<?xml version="1.0" encoding="UTF-8" standalone="no"?>
<svg
   xmlns:dc="http://purl.org/dc/elements/1.1/"
   xmlns:cc="http://creativecommons.org/ns#"
   xmlns:rdf="http://www.w3.org/1999/02/22-rdf-syntax-ns#"
   xmlns:svg="http://www.w3.org/2000/svg"
   xmlns="http://www.w3.org/2000/svg"
   viewBox="0 0 682.66669 658.66669"
   height="658.66669"
   width="682.66669"
   xml:space="preserve"
   id="svg2"
   version="1.1"><metadata
     id="metadata8"><rdf:RDF><cc:Work
         rdf:about=""><dc:format>image/svg+xml</dc:format><dc:type
           rdf:resource="http://purl.org/dc/dcmitype/StillImage" /></cc:Work></rdf:RDF></metadata><defs
     id="defs6"><clipPath
       id="clipPath18"
       clipPathUnits="userSpaceOnUse"><path
         id="path16"
         d="M 0,494 H 512 V 0 H 0 Z" /></clipPath></defs><g
     transform="matrix(1.3333333,0,0,-1.3333333,0,658.66667)"
     id="g10"><g
       id="g12"><g
         clip-path="url(#clipPath18)"
         id="g14"><g
           transform="translate(482,78.0004)"
           id="g20"><path
             id="path22"
             style="fill:rgb(29,141,142);fill-opacity:1;fill-rule:nonzero;stroke:none"
             d="m 0,0 h -178 c -12.093,0 -23.396,-3.433 -33,-9.363 V 353 c 0,18.196 14.804,33 33,33 h 18 V 241 c 0,-5.532 3.045,-10.615 7.922,-13.226 4.879,-2.61 10.796,-2.323 15.398,0.745 l 39.68,26.453 39.68,-26.453 c 2.51,-1.673 5.411,-2.519 8.321,-2.519 2.426,0 4.859,0.587 7.077,1.774 4.877,2.611 7.922,7.694 7.922,13.226 V 386 H 0 Z m -130,386 h 66 V 269.028 l -24.68,16.452 c -2.519,1.68 -5.42,2.52 -8.32,2.52 -2.9,0 -5.801,-0.84 -8.32,-2.52 L -130,269.028 Z M -241,-9.363 C -250.604,-3.433 -261.907,0 -274,0 h -178 v 386 h 178 c 18.196,0 33,-14.804 33,-33 z M 15,416 h -64 -96 -33 c -19.214,0 -36.435,-8.656 -48,-22.262 -11.565,13.606 -28.786,22.262 -48,22.262 h -193 c -8.284,0 -15,-6.716 -15,-15 V -15 c 0,-8.284 6.716,-15 15,-15 h 193 c 18.196,0 33,-14.805 33,-33 0,-8.284 6.716,-15 15,-15 8.284,0 15,6.716 15,15 0,18.195 14.804,33 33,33 H 15 c 8.284,0 15,6.716 15,15 v 416 c 0,8.284 -6.716,15 -15,15" /></g><g
           transform="translate(176,365.9999)"
           id="g24"><path
             id="path26"
             style="fill:rgb(29,141,142);fill-opacity:1;fill-rule:nonzero;stroke:none"
             d="m 0,0 h -97 c -8.284,0 -15,-6.716 -15,-15 0,-8.284 6.716,-15 15,-15 H 0 c 8.284,0 15,6.716 15,15 C 15,-6.716 8.284,0 0,0" /></g><g
           transform="translate(176,269.9999)"
           id="g28"><path
             id="path30"
             style="fill:rgb(29,141,142);fill-opacity:1;fill-rule:nonzero;stroke:none"
             d="m 0,0 h -97 c -8.284,0 -15,-6.716 -15,-15 0,-8.284 6.716,-15 15,-15 H 0 c 8.284,0 15,6.716 15,15 C 15,-6.716 8.284,0 0,0" /></g><g
           transform="translate(176,174.0004)"
           id="g32"><path
             id="path34"
             style="fill:rgb(29,141,142);fill-opacity:1;fill-rule:nonzero;stroke:none"
             d="m 0,0 h -97 c -8.284,0 -15,-6.717 -15,-15 0,-8.284 6.716,-15 15,-15 H 0 c 8.284,0 15,6.716 15,15 C 15,-6.717 8.284,0 0,0" /></g><g
           transform="translate(433,269.9999)"
           id="g36"><path
             id="path38"
             style="fill:rgb(29,141,142);fill-opacity:1;fill-rule:nonzero;stroke:none"
             d="m 0,0 h -96 c -8.284,0 -15,-6.716 -15,-15 0,-8.284 6.716,-15 15,-15 H 0 c 8.284,0 15,6.716 15,15 C 15,-6.716 8.284,0 0,0" /></g><g
           transform="translate(433,174.0004)"
           id="g40"><path
             id="path42"
             style="fill:rgb(29,141,142);fill-opacity:1;fill-rule:nonzero;stroke:none"
             d="m 0,0 h -96 c -8.284,0 -15,-6.717 -15,-15 0,-8.284 6.716,-15 15,-15 H 0 c 8.284,0 15,6.716 15,15 C 15,-6.717 8.284,0 0,0" /></g></g></g></g></svg>