<?xml version="1.0" encoding="UTF-8" standalone="no"?>
<svg
   xmlns:dc="http://purl.org/dc/elements/1.1/"
   xmlns:cc="http://creativecommons.org/ns#"
   xmlns:rdf="http://www.w3.org/1999/02/22-rdf-syntax-ns#"
   xmlns:svg="http://www.w3.org/2000/svg"
   xmlns="http://www.w3.org/2000/svg"
   viewBox="0 0 682.66669 682.66669"
   height="682.66669"
   width="682.66669"
   xml:space="preserve"
   id="svg2"
   version="1.1"><metadata
     id="metadata8"><rdf:RDF><cc:Work
         rdf:about=""><dc:format>image/svg+xml</dc:format><dc:type
           rdf:resource="http://purl.org/dc/dcmitype/StillImage" /></cc:Work></rdf:RDF></metadata><defs
     id="defs6"><clipPath
       id="clipPath18"
       clipPathUnits="userSpaceOnUse"><path
         id="path16"
         d="M 0,512 H 512 V 0 H 0 Z" /></clipPath></defs><g
     transform="matrix(1.3333333,0,0,-1.3333333,0,682.66667)"
     id="g10"><g
       id="g12"><g
         clip-path="url(#clipPath18)"
         id="g14"><g
           transform="translate(128.2998,221.9398)"
           id="g20"><path
             id="path22"
             style="fill:rgb(26,142,142);fill-opacity:1;fill-rule:nonzero;stroke:none"
             d="m 0,0 c -1.86,-1.859 -2.93,-4.431 -2.93,-7.069 0,-2.631 1.07,-5.211 2.93,-7.071 1.87,-1.859 4.45,-2.929 7.08,-2.929 2.63,0 5.2,1.069 7.07,2.929 1.86,1.86 2.93,4.44 2.93,7.071 0,2.639 -1.07,5.21 -2.93,7.069 C 12.28,1.87 9.71,2.931 7.08,2.931 4.44,2.931 1.87,1.871 0,0" /></g><g
           transform="translate(10,204.8734)"
           id="g24"><path
             id="path26"
             style="fill:rgb(26,142,142);fill-opacity:1;fill-rule:nonzero;stroke:none"
             d="m 0,0 h 85.375 c 5.523,0 10,4.478 10,10 0,5.521 -4.477,10 -10,10 H 10 v 267.126 h 380 v -87.433 c 0,-5.523 4.477,-10 10,-10 5.523,0 10,4.477 10,10 v 97.433 c 0,5.523 -4.477,10 -10,10 H 0 c -5.523,0 -10,-4.477 -10,-10 V 10 C -10,4.478 -5.523,0 0,0" /></g><g
           transform="translate(410,374.5702)"
           id="g28"><path
             id="path30"
             style="fill:rgb(26,142,142);fill-opacity:1;fill-rule:nonzero;stroke:none"
             d="M 0,0 C -2.63,0 -5.21,-1.07 -7.07,-2.93 -8.93,-4.79 -10,-7.37 -10,-10 c 0,-2.63 1.07,-5.21 2.93,-7.07 1.86,-1.86 4.44,-2.93 7.07,-2.93 2.63,0 5.21,1.07 7.07,2.93 1.86,1.86 2.93,4.44 2.93,7.07 0,2.63 -1.07,5.21 -2.93,7.07 C 5.21,-1.07 2.63,0 0,0" /></g><g
           transform="translate(492,122.6801)"
           id="g32"><path
             id="path34"
             style="fill:rgb(26,142,142);fill-opacity:1;fill-rule:nonzero;stroke:none"
             d="m 0,0 h -83.761 v 78.63 c 0,3.862 -2.224,7.379 -5.713,9.034 l -33.728,16.006 c -18.078,8.579 -33.664,21.804 -45.074,38.243 l -10.186,14.676 c -2.42,3.487 -1.909,8.303 1.19,11.203 1.728,1.618 3.984,2.445 6.345,2.314 2.365,-0.125 4.517,-1.181 6.064,-2.972 18.222,-21.097 42.146,-35.834 69.186,-42.62 l 17.902,-4.493 c 0.795,-0.199 1.613,-0.3 2.434,-0.3 h 26.834 c 0.18,-0.002 0.358,-0.014 0.539,-0.014 h 5.612 c 0.181,0 0.359,0.011 0.539,0.014 h 17.709 C -10.815,119.721 0,108.906 0,95.613 Z m 0,-102.68 h -31.88 v 41.34 c 0,5.522 -4.477,10 -10,10 -5.523,0 -10,-4.478 -10,-10 v -41.34 H -83.76 V -20 H 0 Z m -72.674,277.708 c 0,13.624 11.083,24.707 24.707,24.707 h 5.612 c 13.623,0 24.707,-11.083 24.707,-24.707 v -10.613 c 0,-13.442 -10.793,-24.404 -24.168,-24.693 h -6.689 c -13.375,0.288 -24.168,11.25 -24.168,24.693 v 10.613 z M -7.5,136.465 c 6.156,7.661 9.851,17.38 9.851,27.95 v 10.613 c 0,24.651 -20.055,44.707 -44.707,44.707 h -5.612 c -24.651,0 -44.707,-20.056 -44.707,-44.707 v -10.613 c 0,-7.75 1.985,-15.045 5.469,-21.406 l -3.604,0.904 c -23.026,5.778 -43.399,18.329 -58.917,36.294 -5.139,5.949 -12.292,9.455 -20.142,9.871 -7.848,0.419 -15.333,-2.313 -21.072,-7.686 -10.29,-9.632 -11.989,-25.628 -3.952,-37.207 l 10.186,-14.677 c 7.423,-10.695 16.356,-20.224 26.453,-28.315 h -158.37 c -5.523,0 -10,-4.478 -10,-10 0,-5.522 4.477,-10 10,-10 h 191.87 c 0.049,0 0.096,0.007 0.145,0.007 l 20.849,-9.894 V -10.001 -112.68 c 0,-5.522 4.477,-10 10,-10 H 10 c 5.523,0 10,4.478 10,10 L 20,-10 V 95.613 C 20,114.06 8.612,129.89 -7.5,136.465" /></g><g
           transform="translate(328,20.0004)"
           id="g36"><path
             id="path38"
             style="fill:rgb(26,142,142);fill-opacity:1;fill-rule:nonzero;stroke:none"
             d="m 0,0 h -144 v 27.316 c 0,19.606 15.95,35.557 35.556,35.557 h 72.889 c 19.605,0 35.556,-15.95 35.556,-35.557 L 0.001,0 Z m -98.444,118.429 c 0,14.581 11.863,26.444 26.444,26.444 14.581,0 26.444,-11.863 26.444,-26.444 v -9.112 c 0,-14.581 -11.863,-26.443 -26.444,-26.443 -14.581,0 -26.444,11.862 -26.444,26.443 z M -164,0 h -144 v 27.316 c 0,19.606 15.95,35.557 35.556,35.557 h 72.889 c 19.605,0 35.556,-15.95 35.556,-35.557 l 0,-27.316 z m -98.444,118.429 c 0,14.581 11.863,26.444 26.444,26.444 14.581,0 26.444,-11.863 26.444,-26.444 v -9.112 c 0,-14.581 -11.863,-26.443 -26.444,-26.443 -14.581,0 -26.444,11.862 -26.444,26.443 z M -33.881,82.831 c 5.24,7.519 8.325,16.647 8.325,26.486 v 9.112 c 0,25.609 -20.835,46.444 -46.444,46.444 -25.609,0 -46.444,-20.835 -46.444,-46.444 v -9.112 c 0,-9.839 3.085,-18.967 8.325,-26.486 -18.147,-0.541 -34.13,-9.819 -43.881,-23.772 -9.751,13.953 -25.734,23.23 -43.881,23.772 5.24,7.519 8.325,16.647 8.325,26.486 v 9.112 c 0,25.609 -20.835,46.444 -46.444,46.444 -25.609,0 -46.444,-20.835 -46.444,-46.444 v -9.112 c 0,-9.839 3.085,-18.967 8.325,-26.486 C -303.979,81.939 -328,57.39 -328,27.316 V -10 c 0,-5.522 4.477,-10 10,-10 h 164 164 c 5.523,0 10,4.478 10,10 V 27.316 C 20,57.39 -4.021,81.939 -33.881,82.831" /></g><g
           transform="translate(354.333,436.5922)"
           id="g40"><path
             id="path42"
             style="fill:rgb(26,142,142);fill-opacity:1;fill-rule:nonzero;stroke:none"
             d="m 0,0 h -29.625 c -5.523,0 -10,-4.477 -10,-10 0,-5.523 4.477,-10 10,-10 H 0 c 5.523,0 10,4.477 10,10 C 10,-4.477 5.523,0 0,0" /></g><g
           transform="translate(354.333,396.5922)"
           id="g44"><path
             id="path46"
             style="fill:rgb(26,142,142);fill-opacity:1;fill-rule:nonzero;stroke:none"
             d="m 0,0 h -73.006 c -5.523,0 -10,-4.477 -10,-10 0,-5.523 4.477,-10 10,-10 H 0 c 5.523,0 10,4.477 10,10 C 10,-4.477 5.523,0 0,0" /></g><g
           transform="translate(136.7769,280.3329)"
           id="g48"><path
             id="path50"
             style="fill:rgb(26,142,142);fill-opacity:1;fill-rule:nonzero;stroke:none"
             d="m 0,0 c -39.267,0 -71.213,31.946 -71.213,71.213 0,16.035 5.331,30.846 14.309,42.762 L -7.071,64.142 C -7.07,64.141 -7.069,64.141 -7.068,64.14 -5.259,62.332 -2.76,61.213 0,61.213 H 70.498 C 65.619,26.666 35.872,0 0,0 m -10,95.356 -32.762,32.762 c 9.393,7.077 20.589,11.874 32.762,13.592 z m 20,63.065 C 50.428,153.817 82.604,121.642 87.208,81.213 H 10 Z M 90.663,61.214 h 7.111 c 5.523,0 10,4.477 10,10 0,59.426 -48.347,107.773 -107.774,107.773 -5.523,0 -10,-4.477 -10,-10 v -7.111 C -55.608,156.88 -91.213,118.129 -91.213,71.213 -91.213,20.918 -50.295,-20 0,-20 c 46.916,0 85.667,35.606 90.663,81.214" /></g></g></g></g></svg>