<?xml version="1.0" encoding="UTF-8" standalone="no"?>
<svg
   xmlns:dc="http://purl.org/dc/elements/1.1/"
   xmlns:cc="http://creativecommons.org/ns#"
   xmlns:rdf="http://www.w3.org/1999/02/22-rdf-syntax-ns#"
   xmlns:svg="http://www.w3.org/2000/svg"
   xmlns="http://www.w3.org/2000/svg"
   viewBox="0 0 682.66669 682.34131"
   height="682.34131"
   width="682.66669"
   xml:space="preserve"
   id="svg2"
   version="1.1"><metadata
     id="metadata8"><rdf:RDF><cc:Work
         rdf:about=""><dc:format>image/svg+xml</dc:format><dc:type
           rdf:resource="http://purl.org/dc/dcmitype/StillImage" /></cc:Work></rdf:RDF></metadata><defs
     id="defs6"><clipPath
       id="clipPath18"
       clipPathUnits="userSpaceOnUse"><path
         id="path16"
         d="M 0,511.756 H 512 V 0 H 0 Z" /></clipPath></defs><g
     transform="matrix(1.3333333,0,0,-1.3333333,0,682.34133)"
     id="g10"><g
       id="g12"><g
         clip-path="url(#clipPath18)"
         id="g14"><g
           transform="translate(148.9985,374.9024)"
           id="g20"><path
             id="path22"
             style="fill:rgb(26,142,142);fill-opacity:1;fill-rule:nonzero;stroke:none"
             d="m 0,0 c 1.859,1.859 2.929,4.438 2.929,7.067 0,2.629 -1.07,5.207 -2.929,7.066 -1.859,1.86 -4.437,2.929 -7.066,2.929 -2.629,0 -5.208,-1.069 -7.067,-2.929 -1.859,-1.859 -2.929,-4.437 -2.929,-7.066 0,-2.629 1.07,-5.208 2.929,-7.067 1.859,-1.859 4.438,-2.928 7.067,-2.928 2.629,0 5.207,1.069 7.066,2.928" /></g><g
           transform="translate(485.6797,265.8218)"
           id="g24"><path
             id="path26"
             style="fill:rgb(26,142,142);fill-opacity:1;fill-rule:nonzero;stroke:none"
             d="m 0,0 h -125.614 -76.195 -45.105 v 9.315 c 0,6.196 -0.756,12.215 -2.147,17.99 H -163.834 -23.9 6.33 V 6.331 C 6.33,2.841 3.49,0 0,0 m -266.904,-35.169 c 0,-31.349 -25.504,-56.853 -56.853,-56.853 -31.349,0 -56.853,25.504 -56.853,56.853 V 9.315 c 0,31.35 25.504,56.853 56.853,56.853 31.349,0 56.853,-25.503 56.853,-56.853 z m 8.672,133.185 h 14.437 V 81.495 c 0,-5.52 4.474,-9.995 9.995,-9.995 5.52,0 9.995,4.475 9.995,9.995 v 16.521 h 14.437 c 19.596,0 35.539,-15.942 35.539,-35.539 V 47.295 h -83.08 c -0.029,0 -0.057,-0.003 -0.086,-0.003 -7.639,13.378 -19.17,24.255 -33.054,31.062 5.93,11.952 18.109,19.662 31.817,19.662 m 24.432,63.641 c 12.034,0 21.824,-9.791 21.824,-21.825 0,-12.034 -9.79,-21.826 -21.824,-21.826 -12.034,0 -21.825,9.791 -21.825,21.825 0,12.034 9.791,21.826 21.825,21.826 m 115.5,-63.641 h 14.438 V 81.495 c 0,-5.52 4.474,-9.995 9.995,-9.995 5.52,0 9.995,4.475 9.995,9.995 v 16.521 h 14.437 c 19.596,0 35.539,-15.942 35.539,-35.539 V 47.295 h -119.943 v 15.182 c 0,19.597 15.943,35.539 35.539,35.539 m 24.433,63.641 c 12.034,0 21.824,-9.791 21.824,-21.825 0,-12.034 -9.79,-21.826 -21.824,-21.826 -12.034,0 -21.824,9.791 -21.824,21.825 0,12.034 9.79,21.826 21.824,21.826 m -97.946,-181.648 h 56.204 v -36.763 h -56.204 z M 0,245.934 h -327.422 c -14.514,0 -26.321,-11.807 -26.321,-26.32 v -63.489 c 0,-5.52 4.475,-9.995 9.995,-9.995 5.521,0 9.996,4.475 9.996,9.995 v 63.489 c 0,3.49 2.839,6.33 6.33,6.33 H 0 c 3.49,0 6.33,-2.84 6.33,-6.33 V 47.295 h -20.235 v 15.182 c 0,27.006 -19.383,49.56 -44.966,54.509 4.305,6.573 6.819,14.419 6.819,22.845 0,23.057 -18.759,41.815 -41.815,41.815 -23.057,0 -41.816,-18.758 -41.816,-41.815 0,-8.427 2.515,-16.273 6.82,-22.845 -14.414,-2.789 -26.852,-11.166 -34.971,-22.782 -8.118,11.616 -20.556,19.994 -34.97,22.782 4.305,6.573 6.819,14.419 6.819,22.845 0,23.057 -18.758,41.815 -41.815,41.815 -23.057,0 -41.815,-18.758 -41.815,-41.815 0,-8.421 2.511,-16.262 6.809,-22.832 -17.875,-3.419 -32.963,-15.384 -40.307,-32.258 -4.744,0.92 -9.637,1.417 -14.644,1.417 -42.372,0 -76.844,-34.472 -76.844,-76.844 V -35.17 c 0,-22.508 9.728,-42.787 25.199,-56.853 h -20.321 c -49.602,0 -89.957,-40.355 -89.957,-89.956 v -73.847 c 0,-5.52 4.475,-9.996 9.995,-9.996 h 111.947 c 5.52,0 9.995,4.476 9.995,9.996 0,5.518 -4.475,9.995 -9.995,9.995 h -101.951 v 63.852 c 0,38.579 31.387,69.965 69.966,69.965 h 143.931 c 38.58,0 69.967,-31.386 69.967,-69.965 v -63.852 h -101.951 c -5.521,0 -9.995,-4.477 -9.995,-9.995 0,-5.52 4.474,-9.996 9.995,-9.996 h 111.946 c 5.52,0 9.995,4.476 9.995,9.996 v 73.847 c 0,49.601 -40.354,89.956 -89.957,89.956 h -20.32 c 15.471,14.066 25.198,34.345 25.198,56.853 v 15.18 h 35.11 v -36.764 h -12.911 c -5.52,0 -9.995,-4.475 -9.995,-9.995 0,-5.52 4.475,-9.995 9.995,-9.995 h 22.906 76.195 22.907 c 5.52,0 9.995,4.475 9.995,9.995 0,5.52 -4.475,9.995 -9.995,9.995 h -12.912 V -19.99 H 0 c 14.513,0 26.32,11.807 26.32,26.32 v 213.284 c 0,14.513 -11.807,26.32 -26.32,26.32" /></g><g
           transform="translate(161.9224,19.9918)"
           id="g28"><path
             id="path30"
             style="fill:rgb(26,142,142);fill-opacity:1;fill-rule:nonzero;stroke:none"
             d="m 0,0 c -2.628,0 -5.208,-1.068 -7.066,-2.929 -1.86,-1.859 -2.929,-4.438 -2.929,-7.066 0,-2.629 1.069,-5.208 2.929,-7.067 1.858,-1.858 4.438,-2.929 7.066,-2.929 2.629,0 5.208,1.07 7.067,2.929 1.859,1.859 2.929,4.438 2.929,7.067 0,2.628 -1.07,5.207 -2.929,7.066 C 5.208,-1.069 2.629,0 0,0" /></g></g></g></g></svg>