<?xml version="1.0" encoding="UTF-8" standalone="no"?>
<svg
   xmlns:dc="http://purl.org/dc/elements/1.1/"
   xmlns:cc="http://creativecommons.org/ns#"
   xmlns:rdf="http://www.w3.org/1999/02/22-rdf-syntax-ns#"
   xmlns:svg="http://www.w3.org/2000/svg"
   xmlns="http://www.w3.org/2000/svg"
   viewBox="0 0 240 380.66666"
   height="380.66666"
   width="240"
   xml:space="preserve"
   id="svg2"
   version="1.1"><metadata
     id="metadata8"><rdf:RDF><cc:Work
         rdf:about=""><dc:format>image/svg+xml</dc:format><dc:type
           rdf:resource="http://purl.org/dc/dcmitype/StillImage" /></cc:Work></rdf:RDF></metadata><defs
     id="defs6"><clipPath
       id="clipPath18"
       clipPathUnits="userSpaceOnUse"><path
         id="path16"
         d="M 0,285.5 H 180 V 0 H 0 Z" /></clipPath></defs><g
     transform="matrix(1.3333333,0,0,-1.3333333,0,380.66667)"
     id="g10"><g
       id="g12"><g
         clip-path="url(#clipPath18)"
         id="g14"><g
           transform="translate(166,46.7504)"
           id="g20"><path
             id="path22"
             style="fill:rgb(29,141,142);fill-opacity:1;fill-rule:nonzero;stroke:none"
             d="m 0,0 c 0,-18.06 -14.691,-32.75 -32.75,-32.75 h -86.5 C -137.309,-32.75 -152,-18.06 -152,0 v 192 c 0,18.059 14.691,32.75 32.75,32.75 h 86.5 C -14.691,224.75 0,210.059 0,192 Z m -32.75,238.75 h -86.5 C -145.028,238.75 -166,217.778 -166,192 V 0 c 0,-25.778 20.972,-46.75 46.75,-46.75 h 86.5 C -6.972,-46.75 14,-25.778 14,0 v 192 c 0,25.778 -20.972,46.75 -46.75,46.75" /></g><g
           transform="translate(142.667,72.0004)"
           id="g24"><path
             id="path26"
             style="fill:rgb(29,141,142);fill-opacity:1;fill-rule:nonzero;stroke:none"
             d="M 0,0 H -105.334 V 161 H -0.001 V 0 Z m 7,175 h -119.334 c -3.866,0 -7,-3.134 -7,-7 V -7 c 0,-3.866 3.134,-7 7,-7 H 6.999 c 3.866,0 7,3.134 7,7 V 168 C 14,171.866 10.866,175 7,175" /></g><g
           transform="translate(90,51.0004)"
           id="g28"><path
             id="path30"
             style="fill:rgb(29,141,142);fill-opacity:1;fill-rule:nonzero;stroke:none"
             d="m 0,0 c 8.284,0 15,-6.716 15,-15 0,-8.284 -6.716,-15 -15,-15 -8.284,0 -15,6.716 -15,15 0,8.284 6.716,15 15,15" /></g></g></g></g></svg>