<?xml version="1.0" encoding="UTF-8" standalone="no"?>
<svg
   xmlns:dc="http://purl.org/dc/elements/1.1/"
   xmlns:cc="http://creativecommons.org/ns#"
   xmlns:rdf="http://www.w3.org/1999/02/22-rdf-syntax-ns#"
   xmlns:svg="http://www.w3.org/2000/svg"
   xmlns="http://www.w3.org/2000/svg"
   viewBox="0 0 682.66669 682.66669"
   height="682.66669"
   width="682.66669"
   xml:space="preserve"
   id="svg2"
   version="1.1">
	<metadata
     id="metadata8">
		<rdf:RDF>
			<cc:Work
         rdf:about="">
				<dc:format>image/svg+xml</dc:format>
				<dc:type
           rdf:resource="http://purl.org/dc/dcmitype/StillImage" />
			</cc:Work>
		</rdf:RDF>
	</metadata>
	<defs
     id="defs6">
		 <linearGradient id="grad" x1="0%" y1="100%" x2="0%" y2="0%">
		  <stop offset="0%" style="stop-color:rgb(255,240,2);stop-opacity:1" />
		  <stop offset="100%" style="stop-color:rgb(221,0,0);stop-opacity:1" />
		</linearGradient>
		<clipPath
       id="clipPath18"
       clipPathUnits="userSpaceOnUse">
			<path
         id="path16"
         d="M 0,512 H 512 V 0 H 0 Z" />
		</clipPath>
	</defs>
	<g
     transform="matrix(1.3333333,0,0,-1.3333333,0,682.66667)"
     id="g10">
		<g
       id="g12">
			<g
         clip-path="url(#clipPath18)"
         id="g14">
				<g
           transform="translate(344.4805,242.4301)"
           id="g20">
					<path
             id="path22"
             style="fill:url(#grad);fill-opacity:1;fill-rule:nonzero;stroke:none"
             d="m 0,0 -128,-80 c -2.59,-1.617 -5.536,-2.43 -8.48,-2.43 -2.668,0 -5.34,0.664 -7.758,2.008 -5.086,2.819 -8.242,8.172 -8.242,13.992 v 160 c 0,5.82 3.156,11.172 8.242,13.992 5.086,2.836 11.304,2.664 16.238,-0.422 L 0,27.14 C 4.676,24.21 7.52,19.085 7.52,13.57 7.52,8.055 4.676,2.929 0,0 m -88.48,269.57 c -141.383,0 -256,-114.615 -256,-256 0,-141.385 114.617,-256 256,-256 141.382,0 256,114.615 256,256 0,141.385 -114.618,256 -256,256" />
				</g>
			</g>
		</g>
	</g>
</svg>