<?xml version="1.0" encoding="UTF-8" standalone="no"?>
<svg
   xmlns:dc="http://purl.org/dc/elements/1.1/"
   xmlns:cc="http://creativecommons.org/ns#"
   xmlns:rdf="http://www.w3.org/1999/02/22-rdf-syntax-ns#"
   xmlns:svg="http://www.w3.org/2000/svg"
   xmlns="http://www.w3.org/2000/svg"
   viewBox="0 0 666.68933 558.52002"
   height="558.52002"
   width="666.68933"
   xml:space="preserve"
   id="svg2"
   version="1.1"><metadata
     id="metadata8"><rdf:RDF><cc:Work
         rdf:about=""><dc:format>image/svg+xml</dc:format><dc:type
           rdf:resource="http://purl.org/dc/dcmitype/StillImage" /></cc:Work></rdf:RDF></metadata><defs
     id="defs6"><clipPath
       id="clipPath18"
       clipPathUnits="userSpaceOnUse"><path
         id="path16"
         d="m 286.844,291.249 -14.682,-2.201 -0.681,-13.649 c -5.91,-2.509 -11.517,-5.846 -16.628,-9.992 v 0 l -12.366,5.792 -8.825,-11.939 -8.825,-11.937 9.163,-10.124 c -2.464,-6.102 -4.01,-12.442 -4.676,-18.828 v 0 l -12.849,-4.653 2.202,-14.682 2.201,-14.683 13.649,-0.679 c 2.51,-5.91 5.846,-11.518 9.991,-16.629 v 0 l -5.79,-12.366 11.937,-8.824 11.939,-8.825 10.123,9.162 c 6.102,-2.463 12.442,-4.01 18.828,-4.674 v 0 l 4.653,-12.849 14.682,2.2 14.681,2.201 0.68,13.649 c 5.911,2.509 11.519,5.846 16.63,9.991 v 0 l 12.365,-5.79 8.826,11.938 8.823,11.937 -9.162,10.124 c 2.464,6.102 4.011,12.442 4.675,18.828 v 0 l 12.85,4.653 -2.201,14.682 -2.202,14.682 -13.649,0.679 c -2.509,5.911 -5.846,11.519 -9.991,16.63 v 0 l 5.79,12.366 -11.938,8.824 -11.937,8.826 -10.124,-9.163 c -6.102,2.464 -12.441,4.01 -18.828,4.675 v 0 l -4.653,12.849 z m -9.615,-109.461 c -16.167,11.95 -19.583,34.743 -7.633,50.909 v 0 c 11.95,16.166 34.743,19.583 50.907,7.633 v 0 c 16.167,-11.95 19.584,-34.743 7.633,-50.909 v 0 c -7.138,-9.656 -18.147,-14.764 -29.299,-14.764 v 0 c -7.517,-0.001 -15.099,2.32 -21.608,7.131" /></clipPath><linearGradient
       id="linearGradient28"
       spreadMethod="pad"
       gradientTransform="matrix(164.7822,0,0,-164.7822,216.4756,211.05927)"
       gradientUnits="userSpaceOnUse"
       y2="0"
       x2="1"
       y1="0"
       x1="0"><stop
         id="stop24"
         offset="0"
         style="stop-opacity:1;stop-color:#96cbff" /><stop
         id="stop26"
         offset="1"
         style="stop-opacity:1;stop-color:#5599ff" /></linearGradient><clipPath
       id="clipPath38"
       clipPathUnits="userSpaceOnUse"><path
         id="path36"
         d="M 0,418.89 H 500.017 V 0 H 0 Z" /></clipPath><clipPath
       id="clipPath146"
       clipPathUnits="userSpaceOnUse"><path
         id="path144"
         d="m 172.193,350.154 c -5.501,-1.355 -10.708,-3.471 -15.502,-6.226 v 0 l -9.727,6.625 -9.141,-8.938 -9.141,-8.938 6.406,-9.873 c -2.863,-4.731 -5.095,-9.888 -6.574,-15.36 v 0 l -11.553,-2.19 -0.144,-12.784 -0.143,-12.784 11.5,-2.449 c 1.357,-5.503 3.473,-10.708 6.228,-15.504 v 0 l -6.625,-9.726 8.937,-9.14 8.938,-9.142 9.873,6.406 c 4.732,-2.862 9.889,-5.095 15.36,-6.574 v 0 l 2.19,-11.553 12.784,-0.143 12.784,-0.144 2.449,11.501 c 5.504,1.355 10.709,3.472 15.504,6.227 v 0 l 9.726,-6.626 9.14,8.938 9.143,8.939 -6.406,9.872 c 2.862,4.732 5.094,9.888 6.573,15.36 v 0 l 11.553,2.19 0.144,12.784 0.143,12.784 -11.501,2.449 c -1.355,5.503 -3.471,10.709 -6.228,15.503 v 0 l 6.627,9.727 -8.938,9.141 -8.939,9.141 -9.873,-6.406 c -4.731,2.863 -9.887,5.095 -15.359,6.575 v 0 l -2.19,11.552 -12.784,0.144 -12.785,0.143 z m 14.098,-89.813 c -17.312,0.195 -31.188,14.386 -30.993,31.697 v 0 c 0.194,17.312 14.385,31.188 31.697,30.994 v 0 c 17.311,-0.195 31.187,-14.386 30.993,-31.697 v 0 c -0.193,-17.192 -14.19,-30.995 -31.338,-30.996 v 0 c -0.12,0 -0.239,10e-4 -0.359,0.002" /></clipPath><linearGradient
       id="linearGradient156"
       spreadMethod="pad"
       gradientTransform="matrix(139.93849,0,0,-139.93849,116.6738,291.68622)"
       gradientUnits="userSpaceOnUse"
       y2="0"
       x2="1"
       y1="0"
       x1="0"><stop
         id="stop152"
         offset="0"
         style="stop-opacity:1;stop-color:#96cbff" /><stop
         id="stop154"
         offset="1"
         style="stop-opacity:1;stop-color:#5599ff" /></linearGradient><clipPath
       id="clipPath166"
       clipPathUnits="userSpaceOnUse"><path
         id="path164"
         d="M 0,418.89 H 500.017 V 0 H 0 Z" /></clipPath><clipPath
       id="clipPath400"
       clipPathUnits="userSpaceOnUse"><path
         id="path398"
         d="m 0,132.148 h 315.453 v 4.995 H 0 Z" /></clipPath><linearGradient
       id="linearGradient410"
       spreadMethod="pad"
       gradientTransform="matrix(315.45309,0,0,-315.45309,0,134.64517)"
       gradientUnits="userSpaceOnUse"
       y2="0"
       x2="1"
       y1="0"
       x1="0"><stop
         id="stop406"
         offset="0"
         style="stop-opacity:1;stop-color:#96cbff" /><stop
         id="stop408"
         offset="1"
         style="stop-opacity:1;stop-color:#5599ff" /></linearGradient><clipPath
       id="clipPath420"
       clipPathUnits="userSpaceOnUse"><path
         id="path418"
         d="M 0,418.89 H 500.017 V 0 H 0 Z" /></clipPath><clipPath
       id="clipPath440"
       clipPathUnits="userSpaceOnUse"><path
         id="path438"
         d="m 242.825,29.337 h 257.191 v 4.995 H 242.825 Z" /></clipPath><linearGradient
       id="linearGradient450"
       spreadMethod="pad"
       gradientTransform="matrix(257.19141,0,0,-257.19141,242.8252,31.834627)"
       gradientUnits="userSpaceOnUse"
       y2="0"
       x2="1"
       y1="0"
       x1="0"><stop
         id="stop446"
         offset="0"
         style="stop-opacity:1;stop-color:#96cbff" /><stop
         id="stop448"
         offset="1"
         style="stop-opacity:1;stop-color:#5599ff" /></linearGradient><clipPath
       id="clipPath460"
       clipPathUnits="userSpaceOnUse"><path
         id="path458"
         d="M 0,418.89 H 500.017 V 0 H 0 Z" /></clipPath></defs><g
     transform="matrix(1.3333333,0,0,-1.3333333,0,558.52)"
     id="g10"><g
       id="g12"><g
         clip-path="url(#clipPath18)"
         id="g14"><g
           id="g20"><g
             id="g22"><path
               id="path30"
               style="fill:url(#linearGradient28);stroke:none"
               d="m 286.844,291.249 -14.682,-2.201 -0.681,-13.649 c -5.91,-2.509 -11.517,-5.846 -16.628,-9.992 v 0 l -12.366,5.792 -8.825,-11.939 -8.825,-11.937 9.163,-10.124 c -2.464,-6.102 -4.01,-12.442 -4.676,-18.828 v 0 l -12.849,-4.653 2.202,-14.682 2.201,-14.683 13.649,-0.679 c 2.51,-5.91 5.846,-11.518 9.991,-16.629 v 0 l -5.79,-12.366 11.937,-8.824 11.939,-8.825 10.123,9.162 c 6.102,-2.463 12.442,-4.01 18.828,-4.674 v 0 l 4.653,-12.849 14.682,2.2 14.681,2.201 0.68,13.649 c 5.911,2.509 11.519,5.846 16.63,9.991 v 0 l 12.365,-5.79 8.826,11.938 8.823,11.937 -9.162,10.124 c 2.464,6.102 4.011,12.442 4.675,18.828 v 0 l 12.85,4.653 -2.201,14.682 -2.202,14.682 -13.649,0.679 c -2.509,5.911 -5.846,11.519 -9.991,16.63 v 0 l 5.79,12.366 -11.938,8.824 -11.937,8.826 -10.124,-9.163 c -6.102,2.464 -12.441,4.01 -18.828,4.675 v 0 l -4.653,12.849 z m -9.615,-109.461 c -16.167,11.95 -19.583,34.743 -7.633,50.909 v 0 c 11.95,16.166 34.743,19.583 50.907,7.633 v 0 c 16.167,-11.95 19.584,-34.743 7.633,-50.909 v 0 c -7.138,-9.656 -18.147,-14.764 -29.299,-14.764 v 0 c -7.517,-0.001 -15.099,2.32 -21.608,7.131" /></g></g></g></g><g
       id="g32"><g
         clip-path="url(#clipPath38)"
         id="g34"><g
           transform="translate(260.836,96.1271)"
           id="g40"><path
             id="path42"
             style="fill:#3a3f47;fill-opacity:1;fill-rule:nonzero;stroke:none"
             d="m 0,0 c 0,0 0.323,1.545 2.579,1.539 3.13,-0.011 3.383,-4.46 2.854,-7.226 -0.702,-3.67 -2.029,-5.167 0.503,-14.683 0,0 -5.603,11.762 -4.723,15.26 C 1.858,-2.544 0,0 0,0" /></g><g
           transform="translate(243.2276,66.4669)"
           id="g44"><path
             id="path46"
             style="fill:#eea886;fill-opacity:1;fill-rule:nonzero;stroke:none"
             d="m 0,0 c 0,0 -1.334,0.673 -1.319,1.402 0.015,0.731 -0.321,1.715 -0.442,2.02 -0.162,0.407 -0.219,1.862 -0.708,1.64 -0.488,-0.221 -0.014,-2.406 -0.002,-2.886 0.013,-0.481 -1.577,0.82 -2.048,0.811 -0.47,-0.008 -2.394,-2.969 -1.204,-3.726 1.192,-0.757 2.891,-0.811 3.131,-0.899 0.248,-0.09 1.146,-0.427 1.146,-0.427 z" /></g><g
           transform="translate(239.0274,69.3478)"
           id="g48"><path
             id="path50"
             style="fill:#eea886;fill-opacity:1;fill-rule:nonzero;stroke:none"
             d="M 0,0 C 0,0 -3.795,2.058 -4.159,1.967 -4.523,1.877 -4.62,1.649 -4.273,1.441 c 0.347,-0.208 3.611,-2.1 3.611,-2.1 0,0 -4.89,1.624 -5.202,1.62 -0.184,-0.003 -0.394,-0.432 -0.218,-0.562 0.176,-0.129 4.93,-2.037 4.93,-2.037 0,0 -4.568,1.509 -4.829,1.422 -0.23,-0.076 -0.331,-0.519 0,-0.656 0.331,-0.137 4.492,-1.792 4.492,-1.792 0,0 -3.394,0.873 -3.576,0.662 -0.113,-0.129 -0.31,-0.491 0.572,-0.687 0.883,-0.197 2.916,-0.893 2.916,-0.893 z" /></g><g
           transform="translate(254.7051,63.5978)"
           id="g52"><path
             id="path54"
             style="fill:#eea886;fill-opacity:1;fill-rule:nonzero;stroke:none"
             d="m 0,0 c 0,0 -6.211,1.377 -7.409,1.742 -1.376,0.418 -4.069,1.127 -4.069,1.127 l -1.446,-2.065 c 0,0 8.017,-4.111 9.494,-4.695 1.377,-0.546 5.115,-1.892 5.115,-1.892 z" /></g><g
           transform="translate(227.7852,37.8429)"
           id="g56"><path
             id="path58"
             style="fill:#de9673;fill-opacity:1;fill-rule:nonzero;stroke:none"
             d="m 0,0 c 0,0 -1.814,-7.733 -1.874,-9.249 -0.06,-1.514 -5.297,-21.671 -5.678,-22.673 -0.38,-1.002 1.964,-1.854 2.632,-1.194 0.667,0.659 5.855,11.902 7.041,13.99 1.187,2.086 4.091,6.938 4.254,11.788 C 6.539,-2.488 0,0 0,0" /></g><g
           transform="translate(226.4688,35.506)"
           id="g60"><path
             id="path62"
             style="fill:#eea886;fill-opacity:1;fill-rule:nonzero;stroke:none"
             d="m 0,0 c 0,0 2.822,-7.425 3.62,-8.714 0.798,-1.288 7.733,-20.927 7.979,-21.97 0.245,-1.043 2.65,-0.347 2.835,0.573 0.183,0.92 -1.792,13.05 -1.977,15.444 -0.184,2.394 -0.58,8.617 -3.158,12.729 C 6.722,2.174 0,0 0,0" /></g><g
           transform="translate(241.0235,5.3664)"
           id="g64"><path
             id="path66"
             style="fill:#ffc955;fill-opacity:1;fill-rule:nonzero;stroke:none"
             d="M 0,0 C 0,0 -3.147,0.728 -3.244,0.81 -3.34,0.892 -3.37,1.078 -3.79,0.886 -4.209,0.693 -4.354,0.035 -4.764,-0.19 c -0.41,-0.228 -2.933,-1.104 -4.301,-1.865 -0.495,-0.274 -2.599,-1.2 -2.874,-1.899 -0.275,-0.698 -0.127,-1.721 3.546,-1.293 3.674,0.428 7.733,0.11 8.52,0.554 C 0.913,-4.25 0.265,-1.056 0,0" /></g><g
           transform="translate(223.0264,4.6496)"
           id="g68"><path
             id="path70"
             style="fill:#ffc955;fill-opacity:1;fill-rule:nonzero;stroke:none"
             d="M 0,0 C 0,0 -2.917,1.386 -2.994,1.486 -3.07,1.587 -3.061,1.776 -3.511,1.678 -3.962,1.579 -4.244,0.969 -4.693,0.835 -5.143,0.702 -7.795,0.388 -9.295,-0.062 c -0.542,-0.163 -2.796,-0.615 -3.214,-1.238 -0.419,-0.625 -0.494,-1.654 3.186,-2.023 3.68,-0.371 7.576,-1.553 8.44,-1.288 C -0.02,-4.348 0.032,-1.089 0,0" /></g><g
           transform="translate(253.0088,48.6574)"
           id="g72"><path
             id="path74"
             style="fill:#ffc955;fill-opacity:1;fill-rule:nonzero;stroke:none"
             d="m 0,0 c 0,0 -24.349,-5.35 -26.54,-13.151 0,0 4.353,1.218 8.71,-1.174 0,0 11.401,-0.076 22.666,-0.049 1.417,0.003 11.344,2.822 9.805,11.178 C 13.081,5.271 0,0 0,0" /></g><g
           transform="translate(257.1436,82.508)"
           id="g76"><path
             id="path78"
             style="fill:#eea987;fill-opacity:1;fill-rule:nonzero;stroke:none"
             d="m 0,0 c 0.354,-0.339 0.675,-0.81 0.956,-1.326 0.267,-0.486 0.499,-1.014 0.691,-1.506 0.418,-1.07 0.652,-1.982 0.652,-1.982 0,0 5.759,3.042 4.354,4.191 C 5.25,0.527 4.635,5.024 4.635,5.024 4.635,5.024 -1.166,1.115 0,0" /></g><g
           transform="translate(250.4063,93.3556)"
           id="g80"><path
             id="path82"
             style="fill:#eea886;fill-opacity:1;fill-rule:nonzero;stroke:none"
             d="m 0,0 c 0,0 -1.189,-1.8 0.605,-5.531 0,0 0.524,-3.224 0.198,-3.903 -0.327,-0.678 1.492,-0.388 1.788,-0.729 0.295,-0.341 1.157,-2.082 2.696,-2.847 1.538,-0.765 6.696,4.27 6.468,6.239 -0.23,1.97 1.737,11.232 -5.044,9.743 C -0.069,1.482 0,0 0,0" /></g><g
           transform="translate(250.4512,89.1896)"
           id="g84"><path
             id="path86"
             style="fill:#3a3f47;fill-opacity:1;fill-rule:nonzero;stroke:none"
             d="m 0,0 c 0,0 -3.021,7.943 5.288,8.689 8.31,0.747 6.717,-9.298 6.461,-12.5 0,0 -1.127,4.547 -4.974,3.634 C 2.929,-1.09 1.897,-0.429 0,0" /></g><g
           transform="translate(257.5264,90.3293)"
           id="g88"><path
             id="path90"
             style="fill:#eea886;fill-opacity:1;fill-rule:nonzero;stroke:none"
             d="M 0,0 C 0.245,0.96 2,0.974 2.165,-0.34 2.329,-1.652 1.372,-3.274 0.769,-2.785 0.165,-2.296 -0.36,-1.411 0,0" /></g><g
           transform="translate(258.0996,81.1818)"
           id="g92"><path
             id="path94"
             style="fill:#a77860;fill-opacity:1;fill-rule:nonzero;stroke:none"
             d="M 0,0 C 0.267,-0.486 0.499,-1.014 0.691,-1.506 2.47,-0.011 3.202,3.249 3.202,3.249 2.082,1.567 0.001,0.001 0.001,0.001 Z" /></g><g
           transform="translate(258.5967,78.6662)"
           id="g96"><path
             id="path98"
             style="fill:#5f8cc9;fill-opacity:1;fill-rule:nonzero;stroke:none"
             d="m 0,0 c 0,0 -5.076,-5.808 -5.721,-6.269 -0.644,-0.459 -2.577,-4.601 0,-7.086 0,0 0.234,-2.645 0.695,-3.659 0.46,-1.012 0.133,-11.437 -0.603,-12.633 -0.736,-1.198 9.711,-5.169 14.682,-3.558 0,0 -1.409,6.686 -1.87,10.092 -0.46,3.406 1.593,13.329 1.639,15.999 C 8.868,-4.445 7.018,2.333 5.204,3.072 3.392,3.812 0,0 0,0" /></g><g
           transform="translate(250.8936,47.964)"
           id="g100"><path
             id="path102"
             style="fill:#6e6760;fill-opacity:1;fill-rule:nonzero;stroke:none"
             d="m 0,0 -18.417,-6.142 -0.378,1.135 18.417,6.143 z" /></g><g
           transform="translate(232.4678,41.8312)"
           id="g104"><path
             id="path106"
             style="fill:#6e6760;fill-opacity:1;fill-rule:nonzero;stroke:none"
             d="m 0,0 -15.514,11.671 0.72,0.957 L 0.72,0.956 Z" /></g><g
           transform="translate(237.1162,44.5617)"
           id="g108"><path
             id="path110"
             style="fill:#eea886;fill-opacity:1;fill-rule:nonzero;stroke:none"
             d="M 0,0 C -0.154,0.399 -0.185,1.044 1.012,1.934 2.209,2.823 4.817,5.277 5.799,5.462 6.78,5.646 7.518,5.217 7.916,5.277 8.315,5.34 8.836,2.946 8.836,2.946 Z" /></g><g
           transform="translate(245.0323,49.839)"
           id="g112"><path
             id="path114"
             style="fill:#eea886;fill-opacity:1;fill-rule:nonzero;stroke:none"
             d="m 0,0 c 0,0 5.224,2.148 6.113,2.578 0.891,0.43 5.186,1.933 5.554,2.117 0.369,0.184 2.302,10.249 2.455,12.857 0.153,2.608 0.307,8.132 3.253,7.885 2.945,-0.245 3.651,-2.178 3.283,-5.983 C 20.29,15.649 18.111,2.025 17.19,1.565 16.271,1.105 5.367,-1.067 0.151,-2.603 -5.064,-4.138 0,0 0,0" /></g><g
           transform="translate(261.1407,95.7169)"
           id="g116"><path
             id="path118"
             style="fill:#5f8cc9;fill-opacity:1;fill-rule:nonzero;stroke:none"
             d="m 0,0 c 0,0 1.246,-2.244 1.118,-3.932 0,0 1.144,2.556 -1.118,3.932" /></g><g
           transform="translate(485.6651,189.9582)"
           id="g120"><path
             id="path122"
             style="fill:#e4f3ff;fill-opacity:1;fill-rule:nonzero;stroke:none"
             d="m 0,0 v -130.895 c 0,-3.489 -2.827,-6.316 -6.315,-6.316 h -97.034 c -3.488,0 -6.316,2.827 -6.316,6.316 V 0 c 0,3.488 2.828,6.316 6.316,6.316 H -6.315 C -2.827,6.316 0,3.488 0,0" /></g><g
           transform="translate(441.8272,141.2228)"
           id="g124"><path
             id="path126"
             style="fill:#b5deff;fill-opacity:1;fill-rule:nonzero;stroke:none"
             d="m 0,0 h -60.719 c -2.874,0 -5.204,2.329 -5.204,5.204 v 34.549 c 0,2.874 2.33,5.204 5.204,5.204 H 0 c 2.874,0 5.203,-2.33 5.203,-5.204 V 5.204 C 5.203,2.329 2.874,0 0,0" /></g><g
           transform="translate(8.3037,266.5265)"
           id="g128"><path
             id="path130"
             style="fill:#bbd070;fill-opacity:1;fill-rule:nonzero;stroke:none"
             d="m 0,0 c 0,0 78.659,29.601 104.193,-16.706 20.431,-37.051 -13.737,-40.7 -13.737,-40.7 0,0 -3.275,-20.239 -39.501,29.829 C 33.88,-3.979 0,0 0,0" /></g><g
           transform="translate(1.3106,392.6544)"
           id="g132"><path
             id="path134"
             style="fill:#97a43c;fill-opacity:1;fill-rule:nonzero;stroke:none"
             d="m 0,0 c 0,0 68.112,17.498 108.085,-69.772 39.973,-87.271 79.351,-95.956 79.351,-95.956 0,0 -153.077,-19.744 -187.436,165.728" /></g><g
           transform="translate(160.6065,223.3908)"
           id="g136"><path
             id="path138"
             style="fill:#48753a;fill-opacity:1;fill-rule:nonzero;stroke:none"
             d="m 0,0 c -7.27,-28.001 -69.335,29.745 -73.3,78.98 -3.965,49.235 10.504,84.504 -0.821,116.52 0,0 109.919,-57.616 74.121,-195.5" /></g></g></g><g
       id="g140"><g
         clip-path="url(#clipPath146)"
         id="g142"><g
           id="g148"><g
             id="g150"><path
               id="path158"
               style="fill:url(#linearGradient156);stroke:none"
               d="m 172.193,350.154 c -5.501,-1.355 -10.708,-3.471 -15.502,-6.226 v 0 l -9.727,6.625 -9.141,-8.938 -9.141,-8.938 6.406,-9.873 c -2.863,-4.731 -5.095,-9.888 -6.574,-15.36 v 0 l -11.553,-2.19 -0.144,-12.784 -0.143,-12.784 11.5,-2.449 c 1.357,-5.503 3.473,-10.708 6.228,-15.504 v 0 l -6.625,-9.726 8.937,-9.14 8.938,-9.142 9.873,6.406 c 4.732,-2.862 9.889,-5.095 15.36,-6.574 v 0 l 2.19,-11.553 12.784,-0.143 12.784,-0.144 2.449,11.501 c 5.504,1.355 10.709,3.472 15.504,6.227 v 0 l 9.726,-6.626 9.14,8.938 9.143,8.939 -6.406,9.872 c 2.862,4.732 5.094,9.888 6.573,15.36 v 0 l 11.553,2.19 0.144,12.784 0.143,12.784 -11.501,2.449 c -1.355,5.503 -3.471,10.709 -6.228,15.503 v 0 l 6.627,9.727 -8.938,9.141 -8.939,9.141 -9.873,-6.406 c -4.731,2.863 -9.887,5.095 -15.359,6.575 v 0 l -2.19,11.552 -12.784,0.144 -12.785,0.143 z m 14.098,-89.813 c -17.312,0.195 -31.188,14.386 -30.993,31.697 v 0 c 0.194,17.312 14.385,31.188 31.697,30.994 v 0 c 17.311,-0.195 31.187,-14.386 30.993,-31.697 v 0 c -0.193,-17.192 -14.19,-30.995 -31.338,-30.996 v 0 c -0.12,0 -0.239,10e-4 -0.359,0.002" /></g></g></g></g><g
       id="g160"><g
         clip-path="url(#clipPath166)"
         id="g162"><g
           transform="translate(53.2315,253.1144)"
           id="g168"><path
             id="path170"
             style="fill:#eea886;fill-opacity:1;fill-rule:nonzero;stroke:none"
             d="M 0,0 C 0,0 0.957,1.675 -0.561,6.163 -2.029,10.504 -7.11,10.11 -8.725,7.329 -10.34,4.548 -9.794,2.821 -7.417,-0.319 -5.039,-3.459 -0.987,-1.436 0,0" /></g><g
           transform="translate(41.4297,175.8908)"
           id="g172"><path
             id="path174"
             style="fill:#eea886;fill-opacity:1;fill-rule:nonzero;stroke:none"
             d="m 0,0 c 0,0 -0.252,-1.843 -0.283,-2.119 -0.031,-0.277 -2.797,0.162 -2.797,0.162 l -0.225,2.195 c 0,0 2.959,0.023 3.305,-0.238" /></g><g
           transform="translate(41.1758,174.006)"
           id="g176"><path
             id="path178"
             style="fill:#152b3d;fill-opacity:1;fill-rule:nonzero;stroke:none"
             d="m 0,0 c 0,0 0.876,-1.111 1.724,-1.596 0.847,-0.483 2.179,-0.675 2.68,-1.176 0.362,-0.362 1.318,-1.919 -2.202,-1.888 -3.519,0.031 -5.217,-0.22 -5.594,0.377 -0.378,0.597 0.545,4.408 0.545,4.408 0,0 0.863,-0.243 2.847,-0.125" /></g><g
           transform="translate(60.5782,175.8908)"
           id="g180"><path
             id="path182"
             style="fill:#eea886;fill-opacity:1;fill-rule:nonzero;stroke:none"
             d="m 0,0 c 0,0 -0.251,-1.843 -0.283,-2.119 -0.031,-0.277 -2.797,0.162 -2.797,0.162 l -0.224,2.195 c 0,0 2.958,0.023 3.304,-0.238" /></g><g
           transform="translate(60.3242,174.006)"
           id="g184"><path
             id="path186"
             style="fill:#152b3d;fill-opacity:1;fill-rule:nonzero;stroke:none"
             d="M 0,0 C 0,0 0.877,-1.111 1.725,-1.596 2.571,-2.079 5.69,-2.477 6.191,-2.979 6.554,-3.34 7.155,-4.796 2.202,-4.66 c -3.518,0.098 -5.217,-0.22 -5.594,0.377 -0.377,0.597 0.546,4.408 0.546,4.408 0,0 1.093,-0.195 2.846,-0.125" /></g><g
           transform="translate(42.3604,221.7897)"
           id="g188"><path
             id="path190"
             style="fill:#323657;fill-opacity:1;fill-rule:nonzero;stroke:none"
             d="m 0,0 c 0,0 -1.418,-4.407 -1.231,-8.204 0.186,-3.797 -0.734,-7.953 -1.11,-11.92 -0.419,-4.422 -2.135,-14.891 -2.197,-17.256 -0.062,-2.367 0.267,-9.92 0.267,-9.92 l 3.434,-0.083 c 0,0 2.885,18.303 3.632,20.171 0.747,1.867 4.451,15.181 4.576,16.675 C 7.495,-9.042 0,0 0,0" /></g><g
           transform="translate(56.6006,222.2487)"
           id="g192"><path
             id="path194"
             style="fill:#323657;fill-opacity:1;fill-rule:nonzero;stroke:none"
             d="m 0,0 c 0,0 2.084,-11.651 2.333,-13.975 0.249,-2.324 0.415,-11.248 0.54,-12.7 0.124,-1.452 0.83,-19.009 1.494,-21.167 H 0.538 c 0,0 -3.932,12.762 -3.932,18.8 0,6.04 -2.604,13.128 -4.285,17.113 -1.68,3.984 -5.528,4.078 -6.561,11.47 0,0 12.841,2.803 14.24,0.459" /></g><g
           transform="translate(51.8418,251.9294)"
           id="g196"><path
             id="path198"
             style="fill:#eea886;fill-opacity:1;fill-rule:nonzero;stroke:none"
             d="m 0,0 c 0,0 -0.432,-1.257 0,-2.154 0.433,-0.898 -5.519,-0.359 -5.519,-0.359 0,0 0.269,1.854 -0.508,3.379 C -6.805,2.391 0,0 0,0" /></g><g
           transform="translate(42.084,220.8297)"
           id="g200"><path
             id="path202"
             style="fill:#323657;fill-opacity:1;fill-rule:nonzero;stroke:none"
             d="M 0,0 C 0,0 2.141,-2.199 14.708,0.342 L 14.517,1.419 0.229,0.881 Z" /></g><g
           transform="translate(52.7432,249.4836)"
           id="g204"><path
             id="path206"
             style="fill:#eea886;fill-opacity:1;fill-rule:nonzero;stroke:none"
             d="m 0,0 c 0,0 2.197,-0.224 2.825,-0.344 0.629,-0.119 4.856,0.756 5.723,0.846 0.867,0.089 4.565,2.623 4.684,2.922 0.121,0.299 2.25,5.693 2.371,6.859 0.119,1.166 2.074,0.564 1.907,-0.24 C 17.195,8.54 16.793,4.891 16.572,3.833 16.334,2.691 15.695,0.104 15.336,-0.214 14.978,-0.533 11.647,-3.065 8.388,-4.142 5.128,-5.219 2.675,-6.804 2.675,-6.804 H -13.39 c 0,0 -6.249,8.932 -6.383,10.278 -0.134,1.346 4.365,10.29 5.261,11.411 0.898,1.122 2.196,-0.366 2.196,-0.366 0,0 -2.689,-7.887 -3.047,-9.009 -0.36,-1.121 3.127,-6.048 4.084,-6.063 0.956,-0.015 3.414,0.299 4.505,0.344 1.091,0.044 2.243,0.523 2.243,0.523 z" /></g><g
           transform="translate(59.666,243.5172)"
           id="g208"><path
             id="path210"
             style="fill:#254380;fill-opacity:1;fill-rule:nonzero;stroke:none"
             d="m 0,0 c 0,0 -1.967,-1.307 -2.146,-3.55 -0.179,-2.243 -0.897,-5.786 -1.256,-6.998 -0.359,-1.211 0.314,-10.002 0.404,-10.631 0.09,-0.628 -12.432,-2.12 -14.355,-0.628 0,0 -0.538,8.209 -0.762,10.542 -0.224,2.332 -1.301,7.984 -1.659,8.746 -0.36,0.763 -4.71,6.867 -4.89,7.671 0,0 2.251,3.589 3.866,3.634 0,0 2.565,-3.006 3.401,-3.14 0.835,-0.135 5.961,0.804 5.962,0.812 0,0 0.56,-0.762 3.534,0.135 0,0 3.542,-0.399 4.118,-0.473 0.697,-0.089 5.548,0.609 5.548,0.609 0,0 1.945,-3.286 1.604,-4.944 z" /></g><g
           transform="translate(68.2325,259.0656)"
           id="g212"><path
             id="path214"
             style="fill:#eea886;fill-opacity:1;fill-rule:nonzero;stroke:none"
             d="m 0,0 c 0,0 0.439,2.079 -0.089,2.676 -0.302,0.34 -1.024,1.239 -1.091,1.371 -0.066,0.133 -0.842,0.578 -0.842,0.793 0,0.215 0.759,0.48 1.42,-0.132 C 0.06,4.097 0.473,3.965 0.737,4.031 1.001,4.097 1.381,6.294 1.414,6.84 1.447,7.385 1.658,8.823 1.999,8.724 2.34,8.625 2.323,7.997 2.323,7.997 c 0,0 0.397,1.09 0.661,0.875 0.265,-0.215 0.232,-0.743 0.232,-0.743 0,0 0.495,0.611 0.628,0.165 0.132,-0.446 0,-0.843 0,-0.843 0,0 0.511,0.281 0.545,-0.413 C 4.422,6.344 4.24,4.312 3.877,3.584 3.513,2.857 2.152,0.956 1.99,0.213 1.827,-0.53 0,0 0,0" /></g><g
           transform="translate(39.9883,262.7165)"
           id="g216"><path
             id="path218"
             style="fill:#eea886;fill-opacity:1;fill-rule:nonzero;stroke:none"
             d="M 0,0 C 0,0 1.495,2.512 2.003,2.737 2.512,2.961 3.229,3.088 3.857,3.537 4.485,3.985 5.315,4.359 5.271,4.509 5.226,4.658 4.485,4.598 3.693,4.254 2.9,3.911 2.553,4.077 2.479,4.256 2.403,4.436 2.9,5.702 3.14,6.001 3.379,6.3 5.084,8.015 4.8,8.269 4.516,8.523 3.409,7.582 3.229,7.387 c 0,0 0.882,1.854 0.539,1.944 C 3.424,9.42 2.781,8.763 2.781,8.763 c 0,0 0.074,1.585 -1.63,-0.987 0,0 0.359,0.852 -0.165,0.568 C 0.463,8.06 -0.045,6.46 -0.21,5.652 -0.374,4.845 -1.12,2.273 -1.757,1.652 -2.393,1.032 0,0 0,0" /></g><g
           transform="translate(45.8145,252.7956)"
           id="g220"><path
             id="path222"
             style="fill:#353a3d;fill-opacity:1;fill-rule:nonzero;stroke:none"
             d="m 0,0 c 0,0 0.788,-0.07 2.463,0.508 1.674,0.578 1.799,3.507 2.161,3.16 0.739,-0.708 1.438,-0.219 1.716,0.2 0,0 -0.818,1.076 -0.439,1.594 0.379,0.519 0.996,0.897 0.996,0.897 0,0 -1.178,5.678 -6.538,3.091 C -5.921,6.419 0,0 0,0" /></g><g
           transform="translate(51.8418,249.7751)"
           id="g224"><path
             id="path226"
             style="fill:#254380;fill-opacity:1;fill-rule:nonzero;stroke:none"
             d="m 0,0 -0.188,0.82 c 0,0 -3.421,0.07 -5.289,-0.201 l -0.196,-0.98 c 0,0 2.39,-1.085 5.673,0.361" /></g><g
           transform="translate(50.9981,257.1813)"
           id="g228"><path
             id="path230"
             style="fill:#eea886;fill-opacity:1;fill-rule:nonzero;stroke:none"
             d="M 0,0 C -0.311,0.517 -1.46,0.865 -1.595,-0.598 -1.699,-1.732 0.459,-2.97 0.479,-1.914 0.499,-0.857 0.207,-0.343 0,0" /></g><g
           transform="translate(68.3145,259.5378)"
           id="g232"><path
             id="path234"
             style="fill:#e55353;fill-opacity:1;fill-rule:nonzero;stroke:none"
             d="m 0,0 c 0,0 1.234,-0.031 1.833,-0.571 0,0 0.039,-0.344 -0.1,-0.615 0,0 -1.07,0.499 -1.89,0.593 0,0 0.013,0.449 0.157,0.593" /></g><g
           transform="translate(69.7696,259.2301)"
           id="g236"><path
             id="path238"
             style="fill:#353a3d;fill-opacity:1;fill-rule:nonzero;stroke:none"
             d="m 0,0 c 0.114,-0.27 -0.013,-0.582 -0.282,-0.696 -0.271,-0.114 -0.582,0.013 -0.697,0.283 -0.113,0.27 0.013,0.581 0.284,0.695 C -0.426,0.396 -0.114,0.27 0,0" /></g><g
           transform="translate(34.6553,168.8185)"
           id="g240"><path
             id="path242"
             style="fill:#ffbb55;fill-opacity:1;fill-rule:nonzero;stroke:none"
             d="M 0,0 H 33.53 L 22.962,-32.454 23.95,-32.775 34.962,1.038 H -0.755 l -10.906,-33.492 0.988,-0.321 z" /></g><g
           transform="translate(46.0664,136.3644)"
           id="g244"><path
             id="path246"
             style="fill:#ffbb55;fill-opacity:1;fill-rule:nonzero;stroke:none"
             d="m 0,0 -10.567,32.454 h 33.53 L 33.636,-0.321 34.624,0 23.718,33.492 H -11.999 L -0.988,-0.321 Z" /></g><path
           id="path248"
           style="fill:#ffbb55;fill-opacity:1;fill-rule:nonzero;stroke:none"
           d="m 31.535,158.599 h 41.04 v 1.039 h -41.04 z" /><path
           id="path250"
           style="fill:#ffbb55;fill-opacity:1;fill-rule:nonzero;stroke:none"
           d="m 27.308,147.315 h 49.101 v 1.039 H 27.308 Z" /><g
           transform="translate(104.334,189.7638)"
           id="g252"><path
             id="path254"
             style="fill:#dbd8e3;fill-opacity:1;fill-rule:nonzero;stroke:none"
             d="m 0,0 c 0.145,10.009 13.473,28.626 13.473,28.626 0,0 0.616,0.263 0.625,0.236 0.008,-0.009 0.688,0.095 0.688,0.086 0.014,0 2.069,1.961 2.083,1.961 0.489,-1.78 4.905,-26.924 5.987,-41.56 C 10.339,-8.192 -0.072,-4.773 0,0 m 111.692,45.202 c 0.792,10.696 1.345,20.7 1.658,30.03 -2.581,1.368 -5.684,2.966 -8.165,4.143 -7.686,3.66 -18.392,8.587 -25.262,11.739 -4.022,1.848 -7.961,3.197 -7.961,3.197 0,0 -27.458,2.631 -29.687,2.491 C 41.573,96.761 38.141,95.566 33.64,93.849 23.902,90.154 5.131,82.632 2.142,80.485 -2.242,77.347 -17.925,0.467 -18.342,-4.755 c -0.407,-5.072 21.33,-12.011 41.461,-17.327 -0.014,-7.794 -0.172,-18.713 -0.348,-28.681 -0.028,-1.703 -0.06,-3.374 -0.091,-4.995 h 88.084 c -0.118,1.712 -0.222,3.401 -0.308,4.995 -0.009,0.213 -0.022,0.421 -0.032,0.63 -0.335,6.752 -1.649,18.844 -1.313,30.619 0,0 -0.213,12.412 1.019,17.757 0.136,23.595 1.562,46.959 1.562,46.959" /></g><g
           transform="translate(217.6563,139.0011)"
           id="g256"><path
             id="path258"
             style="fill:#323657;fill-opacity:1;fill-rule:nonzero;stroke:none"
             d="m 0,0 c -0.579,4.171 -1.127,8.338 -1.621,12.418 0,0.022 -0.009,0.036 -0.009,0.059 -0.158,1.358 -0.321,2.699 -0.475,4.035 -0.009,0.063 -0.014,0.135 -0.023,0.213 -0.643,5.62 -1.178,11.008 -1.562,15.946 -0.29,3.78 -0.028,7.476 0.493,11.09 1.531,25.239 2.292,51.85 2.292,51.85 0.805,10.891 1.267,21.072 1.576,30.56 0,0 -34.478,16.294 -37.603,17.227 0,0 6.539,-15.356 11.445,-49.68 1.883,-13.183 5.376,-35.374 7.911,-58.023 V 35.69 c 1.373,-12.222 3.945,-24.671 5.901,-35.69 0.299,-1.703 0.584,-3.37 0.847,-4.995 H 0.711 C 0.467,-3.333 0.231,-1.666 0,0" /></g><g
           transform="translate(114.9492,199.0387)"
           id="g260"><path
             id="path262"
             style="fill:#323657;fill-opacity:1;fill-rule:nonzero;stroke:none"
             d="M 0,0 C -0.304,11.485 3.577,19.315 3.577,19.315 4.715,15.379 6.286,4.135 7.672,-7.042 3.012,-4.697 0.059,-2.319 0,0 M 45.306,-19.496 C 46.664,-6.734 47.887,6 47.298,12.979 42.543,69.082 29.088,83.931 27.136,86.105 25.628,85.53 19.886,83.375 18.205,82.708 9.003,79.081 -9.755,72.433 -12.282,70.617 c -4.384,-3.138 -21.665,-83.737 -22.187,-88.95 -0.348,-3.523 22.205,-10.886 45.215,-17.458 -0.213,-6.308 -1.684,-14.954 -3.781,-24.247 -0.366,-1.648 -0.756,-3.315 -1.164,-4.995 h 34.314 c 0.196,1.658 0.399,3.32 0.603,4.995 0.611,5.013 1.25,10.15 1.884,15.606 9.619,-2.49 16.159,-4.093 16.159,-4.093 0,0 9.034,15.275 11.656,21.461 0.449,1.056 -11.181,3.85 -25.111,7.568" /></g><g
           transform="translate(145.169,285.6872)"
           id="g264"><path
             id="path266"
             style="fill:#eea987;fill-opacity:1;fill-rule:nonzero;stroke:none"
             d="M 0,0 C 0,0 3.492,6.599 2.527,25.334 2.261,30.524 29.79,13.025 29.79,13.025 c 0,0 -0.095,-1.789 -0.153,-4.203 -0.033,-1.005 -0.05,-2.106 -0.05,-3.238 0,-0.313 0.005,-0.625 0.005,-0.938 0.004,-0.511 0.009,-1.019 0.017,-1.525 0.014,-0.63 0.037,-1.246 0.069,-1.839 0.031,-0.675 0.077,-1.314 0.139,-1.898 0.114,-1.132 0.78,-3.129 1.02,-3.677 C 32.101,-7.205 10.308,-7.373 0,0" /></g><g
           transform="translate(168.25,273.7711)"
           id="g268"><path
             id="path270"
             style="fill:#e8734d;fill-opacity:1;fill-rule:nonzero;stroke:none"
             d="m 0,0 5.073,-6.816 c 0,0 -2.971,-3.981 -8.251,-1.042 z" /></g><g
           transform="translate(171.9659,266.6779)"
           id="g272"><path
             id="path274"
             style="fill:#e8734d;fill-opacity:1;fill-rule:nonzero;stroke:none"
             d="m 0,0 c 0,0 18.589,-45.4 14.623,-103.07 l -5.862,-10.64 -6.612,9.062 c 0,0 -1.066,76.59 -6.342,104.83 z" /></g><g
           transform="translate(173.6826,280.1266)"
           id="g276"><path
             id="path278"
             style="fill:#eea987;fill-opacity:1;fill-rule:nonzero;stroke:none"
             d="m 0,0 -5.433,-6.355 c 0,0 -8.718,1.689 -11.278,6.243 C -19.271,4.442 0,0 0,0" /></g><g
           transform="translate(174.9287,285.6886)"
           id="g280"><path
             id="path282"
             style="fill:#c4c1cc;fill-opacity:1;fill-rule:nonzero;stroke:none"
             d="m 0,0 c 0,0 -0.631,-4.844 -6.679,-11.917 l 6.601,-8.869 3.573,18.398 z" /></g><g
           transform="translate(146.8282,291.5163)"
           id="g284"><path
             id="path286"
             style="fill:#c4c1cc;fill-opacity:1;fill-rule:nonzero;stroke:none"
             d="M 0,0 C 0,0 12.606,-14.26 21.422,-17.745 L 17.321,-27.885 -2.797,-5.691 Z" /></g><g
           transform="translate(276.4258,162.5109)"
           id="g288"><path
             id="path290"
             style="fill:#323657;fill-opacity:1;fill-rule:nonzero;stroke:none"
             d="m 0,0 c 0,0 -16.733,16.229 -27.708,18.928 -5.073,1.249 -11.756,8.252 -18.106,16.486 -2.093,2.711 -4.146,5.557 -6.099,8.373 -0.006,0.006 -0.006,0.012 -0.006,0.012 -7.791,11.248 -13.896,22.031 -13.896,22.031 0,0 -23.028,26.987 -4.549,39.017 0,0 7.921,0.171 12.264,-2.188 4.466,-2.425 13.995,-22.309 15.61,-25.831 1.615,-3.517 19.115,-36.224 20.287,-36.958 1.173,-0.735 3.125,-3.425 10.127,-7.195 C -3.503,28.06 9.964,14.55 9.964,14.55 Z" /></g><g
           transform="translate(196.1035,143.7287)"
           id="g292"><path
             id="path294"
             style="fill:#efaa88;fill-opacity:1;fill-rule:nonzero;stroke:none"
             d="m 0,0 c 0,0 -2.338,0.095 -3.34,0.635 0,0 -1.748,1.121 -3.039,1.844 -0.41,0.227 -0.773,0.417 -1.02,0.514 -1.032,0.409 -3.419,1 -5.622,2.68 -2.2,1.676 -9.373,8.387 -9.373,8.387 l 4.636,7.127 2.141,7.057 c 0,0 16.723,-1.663 18.955,-2.988 0.218,-0.131 0.428,-0.268 0.614,-0.412 1.781,-1.306 2.557,-3.026 3.413,-3.817 0.313,-0.292 3.226,-3.41 3.063,-4.674 -0.224,-1.756 -1.092,-2.883 -2.181,-3.415 0,0 -0.59,-3.419 -2.356,-4.946 0,0 -0.444,-3.172 -3.182,-4.446 C 2.709,3.546 1.898,0.379 0,0" /></g><g
           transform="translate(169.4727,359.3576)"
           id="g296"><path
             id="path298"
             style="fill:#eea886;fill-opacity:1;fill-rule:nonzero;stroke:none"
             d="M 0,0 C 0,0 30.229,7.287 23.862,-30.985 17.494,-69.257 10.244,-72.364 -8.17,-64.733 c -18.415,7.63 -17.135,32.11 -18.232,44.088 C -27.499,-8.667 -9.669,-0.559 0,0" /></g><g
           transform="translate(153.5918,332.8527)"
           id="g300"><path
             id="path302"
             style="fill:#eea886;fill-opacity:1;fill-rule:nonzero;stroke:none"
             d="m 0,0 c -0.449,3.361 -7.123,4.498 -7.585,-0.559 -0.462,-5.056 3.23,-13.865 5.742,-12.956 C 0.67,-12.606 0.619,-4.635 0,0" /></g><g
           transform="translate(144.836,319.1481)"
           id="g304"><path
             id="path306"
             style="fill:#16202e;fill-opacity:1;fill-rule:nonzero;stroke:none"
             d="m 0,0 c 0,0 0.606,12.038 4.993,12.478 4.388,0.439 5.134,-4.394 5.134,-4.394 l 4.448,-0.772 c 0,0 -1.555,10.521 2.803,12.426 4.359,1.906 28.503,-5.385 31.978,-2.24 3.476,3.145 1.505,24.503 -4.905,27.335 -6.41,2.833 -24.092,9.132 -36.848,0.222 0,0 -10.06,0.997 -11.431,-7.129 C -5.198,29.799 -2.818,5.987 0,0" /></g><g
           transform="translate(186.1905,171.9728)"
           id="g308"><path
             id="path310"
             style="fill:#323657;fill-opacity:1;fill-rule:nonzero;stroke:none"
             d="m 0,0 -12.48,-21.458 c 0,0 -33.066,8.519 -40.781,10.695 l 17.636,20.992 C -35.625,10.229 -9.623,4.287 0,0" /></g><g
           transform="translate(174.8467,286.9689)"
           id="g312"><path
             id="path314"
             style="fill:#a77860;fill-opacity:1;fill-rule:nonzero;stroke:none"
             d="M 0,0 H -0.005 C -16.218,1.653 -22.504,14.134 -22.504,14.134 -12.305,4.026 -0.091,4.302 -0.091,4.302 -0.091,3.99 -0.086,3.677 -0.086,3.365 -0.082,2.853 -0.077,2.346 -0.068,1.839 -0.055,1.209 -0.032,0.593 0,0" /></g><g
           transform="translate(437.9707,79.7648)"
           id="g316"><path
             id="path318"
             style="fill:#bae0ff;fill-opacity:1;fill-rule:nonzero;stroke:none"
             d="m 0,0 c 0.056,4.305 2.126,8.114 5.302,10.538 2.314,1.769 5.213,2.803 8.348,2.764 5.764,-0.073 10.636,-3.757 12.496,-8.873 l 0.002,-0.007 c 0.442,-1.218 0.713,-2.515 0.786,-3.866 0.015,-0.298 0.02,-0.6 0.018,-0.903 -0.04,-3.047 -1.088,-5.842 -2.82,-8.077 -2.501,-3.226 -6.432,-5.281 -10.827,-5.224 -1.453,0.018 -2.847,0.266 -4.152,0.708 C 3.771,-11.121 -0.075,-5.992 0,0 m 7.712,-17.202 c 1.737,-0.59 3.599,-0.918 5.533,-0.944 5.863,-0.075 11.108,2.665 14.443,6.966 2.314,2.982 3.71,6.712 3.76,10.776 0.006,0.403 -0.003,0.806 -0.022,1.203 -0.097,1.805 -0.46,3.539 -1.052,5.167 C 27.896,12.788 21.397,17.7 13.709,17.8 9.566,17.854 5.734,16.501 2.664,14.186 -1.624,10.952 -4.423,5.841 -4.496,0.058 -4.599,-7.933 0.529,-14.771 7.712,-17.202" /></g><g
           transform="translate(462.1026,71.34)"
           id="g320"><path
             id="path322"
             style="fill:#1a598c;fill-opacity:1;fill-rule:nonzero;stroke:none"
             d="m 0,0 3.557,-2.755 c -3.337,-4.301 -8.58,-7.041 -14.444,-6.966 -1.935,0.025 -3.795,0.355 -5.533,0.944 l 1.442,4.26 c 1.305,-0.44 2.699,-0.688 4.15,-0.706 C -6.433,-5.28 -2.502,-3.226 0,0" /></g><g
           transform="translate(464.9034,80.3214)"
           id="g324"><path
             id="path326"
             style="fill:#2273b5;fill-opacity:1;fill-rule:nonzero;stroke:none"
             d="M 0,0 4.492,0.243 C 4.514,-0.154 4.521,-0.557 4.517,-0.961 4.464,-5.024 3.068,-8.755 0.756,-11.736 l -3.557,2.755 c 1.734,2.234 2.78,5.032 2.82,8.078 C 0.022,-0.601 0.017,-0.299 0,0" /></g><g
           transform="translate(464.9043,80.3205)"
           id="g328"><path
             id="path330"
             style="fill:#2273b5;fill-opacity:1;fill-rule:nonzero;stroke:none"
             d="M 0,0 C -0.072,1.352 -0.344,2.648 -0.785,3.866 L -0.788,3.873 3.44,5.41 C 4.032,3.782 4.396,2.049 4.492,0.243 Z" /></g><g
           transform="translate(440.6348,93.9503)"
           id="g332"><path
             id="path334"
             style="fill:#4da8f2;fill-opacity:1;fill-rule:nonzero;stroke:none"
             d="M 0,0 C 3.07,2.315 6.902,3.668 11.045,3.614 18.733,3.515 25.231,-1.397 27.71,-8.22 l -4.226,-1.544 -0.003,0.007 c -1.859,5.116 -6.731,8.8 -12.495,8.873 -3.135,0.039 -6.034,-0.995 -8.348,-2.763 z" /></g><g
           transform="translate(393.9532,94.089)"
           id="g336"><path
             id="path338"
             style="fill:#4da8f2;fill-opacity:1;fill-rule:nonzero;stroke:none"
             d="m 0,0 -0.002,-0.001 c -0.334,-0.121 -0.689,-0.195 -1.06,-0.216 -0.083,-0.004 -0.165,-0.005 -0.249,-0.004 -0.35,0.004 -0.688,0.06 -1.008,0.156 -0.444,0.131 -0.852,0.341 -1.207,0.618 -0.131,0.1 -0.253,0.211 -0.369,0.327 -0.669,0.68 -1.079,1.615 -1.066,2.644 0.004,0.268 0.038,0.528 0.096,0.78 0.027,0.121 0.059,0.242 0.098,0.359 0.5,1.478 1.908,2.533 3.552,2.512 C -0.033,7.16 1.012,6.592 1.677,5.721 2.162,5.085 2.446,4.29 2.436,3.43 2.415,1.847 1.404,0.51 0,0 M 2.678,6.444 C 1.791,7.621 0.388,8.389 -1.199,8.409 -3.392,8.438 -5.269,7.03 -5.936,5.059 -6.098,4.581 -6.188,4.071 -6.195,3.54 c -0.008,-0.619 0.099,-1.212 0.3,-1.761 0.323,-0.878 0.885,-1.639 1.612,-2.202 0.721,-0.56 1.604,-0.924 2.568,-1.012 0.128,-0.011 0.258,-0.019 0.389,-0.021 0.082,-0.001 0.163,0.002 0.244,0.006 0.029,0 0.059,0 0.087,10e-4 0.495,0.026 0.971,0.126 1.417,0.288 C 2.295,-0.48 3.643,1.304 3.67,3.413 3.685,4.55 3.313,5.602 2.678,6.444" /></g><g
           transform="translate(461.2998,182.0392)"
           id="g340"><path
             id="path342"
             style="fill:#78c2ff;fill-opacity:1;fill-rule:nonzero;stroke:none"
             d="M 0,0 C -1.027,0 -1.863,-0.836 -1.863,-1.863 V -7.637 C -1.863,-8.663 -1.027,-9.5 0,-9.5 h 5.772 c 1.029,0 1.864,0.837 1.864,1.863 v 5.774 C 7.636,-0.836 6.801,0 5.772,0 Z M 5.772,-9.928 H 0 c -1.264,0 -2.292,1.028 -2.292,2.291 v 5.774 c 0,1.263 1.028,2.291 2.292,2.291 h 5.772 c 1.264,0 2.292,-1.028 2.292,-2.291 v -5.774 c 0,-1.263 -1.028,-2.291 -2.292,-2.291" /></g><g
           transform="translate(461.2998,168.2941)"
           id="g344"><path
             id="path346"
             style="fill:#78c2ff;fill-opacity:1;fill-rule:nonzero;stroke:none"
             d="M 0,0 C -1.027,0 -1.863,-0.836 -1.863,-1.863 V -7.636 C -1.863,-8.664 -1.027,-9.5 0,-9.5 h 5.772 c 1.029,0 1.864,0.836 1.864,1.864 v 5.773 C 7.636,-0.836 6.801,0 5.772,0 Z M 5.772,-9.929 H 0 c -1.264,0 -2.292,1.029 -2.292,2.293 v 5.773 c 0,1.263 1.028,2.292 2.292,2.292 h 5.772 c 1.264,0 2.292,-1.029 2.292,-2.292 v -5.773 c 0,-1.264 -1.028,-2.293 -2.292,-2.293" /></g><g
           transform="translate(467.0723,144.8351)"
           id="g348"><path
             id="path350"
             style="fill:#78c2ff;fill-opacity:1;fill-rule:nonzero;stroke:none"
             d="M 0,0 H -5.772 C -6.92,0 -7.85,0.93 -7.85,2.077 V 7.85 c 0,1.148 0.93,2.078 2.078,2.078 H 0 c 1.147,0 2.078,-0.93 2.078,-2.078 V 2.077 C 2.078,0.93 1.147,0 0,0" /></g><g
           transform="translate(463.8721,147.6115)"
           id="g352"><path
             id="path354"
             style="fill:#f3f3f3;fill-opacity:1;fill-rule:nonzero;stroke:none"
             d="m 0,0 -2.51,2.188 c -0.206,0.18 -0.227,0.493 -0.048,0.698 0.18,0.206 0.492,0.227 0.698,0.048 l 1.775,-1.547 2.53,2.822 C 2.628,4.413 2.94,4.431 3.144,4.248 3.347,4.065 3.364,3.753 3.182,3.55 Z" /></g><g
           transform="translate(469.1504,130.6007)"
           id="g356"><path
             id="path358"
             style="fill:#78c2ff;fill-opacity:1;fill-rule:nonzero;stroke:none"
             d="m 0,0 v -1.71 c 0,-1.072 -0.869,-1.94 -1.941,-1.94 h -43.645 c -1.072,0 -1.941,0.868 -1.941,1.94 V 0 c 0,1.072 0.869,1.941 1.941,1.941 H -1.941 C -0.869,1.941 0,1.072 0,0" /></g><g
           transform="translate(469.1504,120.6232)"
           id="g360"><path
             id="path362"
             style="fill:#78c2ff;fill-opacity:1;fill-rule:nonzero;stroke:none"
             d="M 0,0 V -1.709 C 0,-2.781 -0.869,-3.65 -1.941,-3.65 h -43.645 c -1.072,0 -1.941,0.869 -1.941,1.941 V 0 c 0,1.072 0.869,1.941 1.941,1.941 H -1.941 C -0.869,1.941 0,1.072 0,0" /></g><g
           transform="translate(423.5645,112.0451)"
           id="g364"><path
             id="path366"
             style="fill:#8fbbff;fill-opacity:1;fill-rule:nonzero;stroke:none"
             d="m 0,0 c -0.921,0 -1.671,-0.749 -1.671,-1.67 v -1.71 c 0,-0.921 0.75,-1.67 1.671,-1.67 h 43.645 c 0.92,0 1.669,0.749 1.669,1.67 v 1.71 C 45.314,-0.749 44.565,0 43.645,0 Z M 43.645,-5.592 H 0 c -1.22,0 -2.213,0.992 -2.213,2.212 v 1.71 c 0,1.22 0.993,2.212 2.213,2.212 h 43.645 c 1.219,0 2.211,-0.992 2.211,-2.212 v -1.71 c 0,-1.22 -0.992,-2.212 -2.211,-2.212" /></g><g
           transform="translate(209.6534,189.5988)"
           id="g368"><path
             id="path370"
             style="fill:#eea886;fill-opacity:1;fill-rule:nonzero;stroke:none"
             d="m 0,0 c 18.792,-19.345 43.621,-43.706 43.621,-43.706 l 9.705,18.424 c 0,0 -22.053,25.853 -37.003,43.104 C 11.74,15.575 3.328,10.214 0,0" /></g><g
           transform="translate(198.0469,163.588)"
           id="g372"><path
             id="path374"
             style="fill:#eea886;fill-opacity:1;fill-rule:nonzero;stroke:none"
             d="m 0,0 c 0,0 5.059,-2.444 6.379,-3.533 1.321,-1.09 6.674,-5.097 7.972,-6.04 1.296,-0.943 -1.956,-3.623 -11.528,0.521 C -6.747,-4.906 0,0 0,0" /></g><g
           transform="translate(198.4893,218.9552)"
           id="g376"><path
             id="path378"
             style="fill:#ffc955;fill-opacity:1;fill-rule:nonzero;stroke:none"
             d="M 0,0 -8.818,-81.982 H 107.245 L 116.063,0 Z" /></g><path
           id="path380"
           style="fill:#ffc955;fill-opacity:1;fill-rule:nonzero;stroke:none"
           d="m 180.435,144.348 h 19.385 v -7.375 h -19.385 z" /><g
           transform="translate(403.3057,225.2775)"
           id="g382"><path
             id="path384"
             style="fill:#d6d6d6;fill-opacity:1;fill-rule:nonzero;stroke:none"
             d="M 0,0 16.121,25.925 7.812,22.027 Z" /></g><g
           transform="translate(403.3057,225.2775)"
           id="g386"><path
             id="path388"
             style="fill:#e8e8e8;fill-opacity:1;fill-rule:nonzero;stroke:none"
             d="m 0,0 0.803,15.509 5.933,3.486 z" /></g><g
           transform="translate(415.7198,245.2409)"
           id="g390"><path
             id="path392"
             style="fill:#c2c2c2;fill-opacity:1;fill-rule:nonzero;stroke:none"
             d="M 0,0 2.09,-2.682 -12.414,-19.963 Z" /></g></g></g><g
       id="g394"><g
         clip-path="url(#clipPath400)"
         id="g396"><g
           id="g402"><g
             id="g404"><path
               id="path412"
               style="fill:url(#linearGradient410);stroke:none"
               d="m 0,132.148 h 315.453 v 4.995 H 0 Z" /></g></g></g></g><g
       id="g414"><g
         clip-path="url(#clipPath420)"
         id="g416"><g
           transform="translate(330.0196,148.8976)"
           id="g422"><path
             id="path424"
             style="fill:#bbd070;fill-opacity:1;fill-rule:nonzero;stroke:none"
             d="m 0,0 c 0,0 -27.019,-22.11 -16.15,-41.716 10.869,-19.605 17.837,-3.669 17.837,-3.669 0,0 8.109,-3.126 -2.48,20.836 C -5.783,-13.254 0,0 0,0" /></g><g
           transform="translate(288.4258,185.5138)"
           id="g426"><path
             id="path428"
             style="fill:#97a43c;fill-opacity:1;fill-rule:nonzero;stroke:none"
             d="m 0,0 c 0,0 -20.962,-21.197 2.446,-54.481 23.408,-33.285 18.173,-49.557 18.173,-49.557 0,0 39.942,51.822 -20.619,104.038" /></g><g
           transform="translate(316.3526,91.0226)"
           id="g430"><path
             id="path432"
             style="fill:#48753a;fill-opacity:1;fill-rule:nonzero;stroke:none"
             d="M 0,0 C 11.806,-3.323 3.928,31.74 -13.251,43.713 -30.429,55.688 -46.433,57.927 -55.733,68.915 -55.733,68.915 -58.131,16.359 0,0" /></g></g></g><g
       id="g434"><g
         clip-path="url(#clipPath440)"
         id="g436"><g
           id="g442"><g
             id="g444"><path
               id="path452"
               style="fill:url(#linearGradient450);stroke:none"
               d="m 242.825,29.337 h 257.191 v 4.995 H 242.825 Z" /></g></g></g></g><g
       id="g454"><g
         clip-path="url(#clipPath460)"
         id="g456"><g
           transform="translate(245.667,179.2804)"
           id="g462"><path
             id="path464"
             style="fill:#cfa345;fill-opacity:1;fill-rule:nonzero;stroke:none"
             d="m 0,0 c -0.934,-4.564 1.196,-8.854 4.756,-9.582 3.558,-0.728 7.2,2.384 8.134,6.948 C 13.822,1.931 11.693,6.221 8.134,6.948 4.574,7.677 0.933,4.565 0,0" /></g><g
           transform="translate(493.416,83.5021)"
           id="g466"><path
             id="path468"
             style="fill:#eea886;fill-opacity:1;fill-rule:nonzero;stroke:none"
             d="m 0,0 c 0,0 -0.191,-1.037 -0.773,-1.19 -0.495,-0.13 -1.04,-0.657 -1.208,-0.818 -0.226,-0.216 -1.164,-0.622 -0.894,-0.908 0.27,-0.286 1.578,0.595 1.89,0.725 0.311,0.129 -0.135,-1.311 -0.009,-1.639 0.126,-0.328 2.555,-0.931 2.746,0.094 0.191,1.024 -0.28,2.245 -0.211,2.419 0.07,0.172 0.169,0.739 0.169,0.739 z" /></g><g
           transform="translate(492.4102,79.922)"
           id="g470"><path
             id="path472"
             style="fill:#eea886;fill-opacity:1;fill-rule:nonzero;stroke:none"
             d="m 0,0 c 0,0 -0.378,-3.175 -0.226,-3.408 0.152,-0.233 0.326,-0.242 0.372,0.053 0.048,0.294 0.455,3.056 0.455,3.056 0,0 0.184,-3.832 0.267,-4.051 0.048,-0.128 0.382,-0.167 0.423,-0.011 0.04,0.156 0.074,3.965 0.074,3.965 0,0 0.179,-3.579 0.303,-3.74 0.107,-0.141 0.424,-0.101 0.429,0.165 0.005,0.267 0.027,3.597 0.027,3.597 0,0 0.294,-2.596 0.479,-2.671 0.113,-0.046 0.4,-0.094 0.303,0.574 -0.096,0.667 -0.159,2.267 -0.159,2.267 z" /></g><g
           transform="translate(459.3155,122.4562)"
           id="g474"><path
             id="path476"
             style="fill:#eea886;fill-opacity:1;fill-rule:nonzero;stroke:none"
             d="m 0,0 c 0,0 -0.521,0.974 -0.699,1.751 -0.179,0.777 -1.149,1.812 -1.544,2.057 -0.395,0.246 -3.26,2.298 -3.591,2.298 -0.332,-10e-4 -0.14,-0.637 0.147,-0.823 0.288,-0.185 2.614,-1.998 2.614,-1.998 0,0 -2.895,1.997 -3.198,1.944 -0.302,-0.055 -0.517,-0.439 -0.193,-0.835 0,0 -0.66,-0.434 0.028,-0.962 l 1.369,-1.058 c 0,0 -0.806,0.418 -0.507,-0.228 0.159,-0.344 1.843,-1.348 2.112,-1.655 0.27,-0.307 2.393,-1.342 2.393,-1.342 z" /></g><g
           transform="translate(476.2803,33.4728)"
           id="g478"><path
             id="path480"
             style="fill:#eea886;fill-opacity:1;fill-rule:nonzero;stroke:none"
             d="m 0,0 h -0.718 c 0,0 0.239,2.711 -0.426,2.737 -0.664,0.027 -2.31,-2.206 -3.294,-2.551 -0.983,-0.345 -6.032,-0.637 -6.058,0.293 -0.026,0.929 1.939,1.302 2.551,1.567 0.61,0.267 3.587,3.162 4.118,3.508 0.532,0.345 1.409,2.099 1.409,2.099 h 2.71 c 0,0 0.297,-1.471 0.468,-2.661 C 0.823,4.553 0.869,4.152 0.876,3.879 0.902,2.87 0,0 0,0" /></g><g
           transform="translate(489.4571,34.0089)"
           id="g482"><path
             id="path484"
             style="fill:#eea886;fill-opacity:1;fill-rule:nonzero;stroke:none"
             d="M 0,0 H -0.598 V 2.522 C -1.096,2.48 -2.771,0.896 -3.288,0.437 -3.807,-0.021 -4.517,0 -6.699,-0.14 c -2.183,-0.138 -2.389,1.168 -2.043,1.614 0.345,0.444 1.462,0.639 2.043,0.916 0.58,0.278 2.873,2.863 3.484,3.474 0.611,0.612 0.984,2.364 0.984,2.364 l 2.55,-0.223 c 0,0 -0.016,-1.602 0.274,-2.946 V 5.058 C 0.595,5.055 0.595,5.051 0.596,5.048 0.62,4.934 0.647,4.821 0.678,4.712 1.057,3.314 0,0 0,0" /></g><g
           transform="translate(482.7823,118.3302)"
           id="g486"><path
             id="path488"
             style="fill:#eea886;fill-opacity:1;fill-rule:nonzero;stroke:none"
             d="m 0,0 c 0,0 1.245,-2.627 0.58,-4.774 0,0 3.831,0.521 3.944,0.97 C 4.639,-3.356 4.045,0.671 4.487,1.906 4.93,3.141 0,0 0,0" /></g><g
           transform="translate(482.6914,114.4259)"
           id="g490"><path
             id="path492"
             style="fill:#254380;fill-opacity:1;fill-rule:nonzero;stroke:none"
             d="m 0,0 c 0,0 -2.217,-0.952 -3.229,-1.245 -1.011,-0.293 -3.09,-1.441 -2.645,-5.159 0.445,-3.719 1.321,-6.909 1.671,-8.495 0.349,-1.587 0.499,-5.679 0.264,-7.688 0,0 5.548,-0.946 11.865,0.859 0,0 -1.382,3.299 -1.416,4.176 -0.034,0.877 3.205,8.35 3.298,9.499 0.091,1.151 0.487,6.22 -1.314,7.203 C 6.693,0.134 5.305,-0.113 4.54,0.329 3.775,0.771 1.038,0.433 0,0" /></g><g
           transform="translate(482.7022,108.6408)"
           id="g494"><path
             id="path496"
             style="fill:#254380;fill-opacity:1;fill-rule:nonzero;stroke:none"
             d="m 0,0 c 0,0 0.851,4.467 -3.479,4.461 -3.807,-0.007 -7.403,0.715 -8.005,1.05 -0.604,0.334 -2.932,1.479 -4.155,2.736 -1.222,1.257 -7.846,6.295 -7.846,6.295 l -1.831,-1.852 c 0,0 6.988,-7.588 8.114,-8.328 C -16.075,3.623 -6.615,-1.66 -5.415,-1.827 -4.215,-1.994 -0.845,-2.91 0,0" /></g><g
           transform="translate(496.3086,94.839)"
           id="g498"><path
             id="path500"
             style="fill:#254380;fill-opacity:1;fill-rule:nonzero;stroke:none"
             d="m 0,0 c 0.13,-1.573 -0.727,-12.434 -0.727,-12.434 l -3.079,-0.354 c 0,0 0.219,10.726 0.392,13.2 0.051,0.731 -0.118,1.847 -0.381,3.058 v 10e-4 c -0.167,0.769 -0.372,1.576 -0.583,2.347 -0.583,2.128 -1.211,3.976 -1.211,3.976 0,0 -3.448,8.97 0.878,8.607 0,0 1.608,-1.657 2.289,-4.377 0.681,-2.72 1.459,-6.796 1.489,-8.42 C -0.903,3.979 -0.095,1.158 0,0" /></g><g
           transform="translate(479.4951,91.9269)"
           id="g502"><path
             id="path504"
             style="fill:#ffcb55;fill-opacity:1;fill-rule:nonzero;stroke:none"
             d="m 0,0 c 0,0 -0.994,-2.35 -1.081,-2.943 -0.088,-0.594 -3.203,-8.35 -3.42,-10.62 -0.22,-2.294 -0.877,-8.418 -1.111,-9.295 -0.234,-0.877 0.526,-4.793 0.643,-5.67 0.116,-0.877 0.058,-15.2 -0.994,-22.273 0,0 2.455,-1.053 4.326,0 0,0 3.099,11.048 2.923,17.421 -0.176,6.371 -0.983,9.061 0.005,11.633 0.989,2.572 6.776,10.289 7.361,11.107 0.584,0.819 4.246,5.342 0.779,10.242 C 5.963,4.501 0,0 0,0" /></g><g
           transform="translate(491.4639,70.9982)"
           id="g506"><path
             id="path508"
             style="fill:#ffcb55;fill-opacity:1;fill-rule:nonzero;stroke:none"
             d="m 0,0 c -0.309,-2.047 0.016,-4.734 0.658,-12.218 0.644,-7.483 -1.125,-16.544 -1.125,-16.544 -2.221,-0.759 -4.779,0 -4.779,0 0.059,0.527 0,18.24 0,19.819 0,1.578 -0.453,3.369 -0.57,5.18 -0.08,1.236 -0.654,3.512 -1.3,5.835 -0.195,0.697 -0.394,1.397 -0.589,2.074 v 0.001 c -0.109,0.38 -0.216,0.753 -0.32,1.115 -0.911,3.157 -2.135,15.346 -2.135,15.346 0,0 6.784,5.464 10.088,0.321 3.302,-5.144 1.607,-8.886 1.49,-9.53 C 1.302,10.756 0.308,2.046 0,0" /></g><g
           transform="translate(478.3164,101.1222)"
           id="g510"><path
             id="path512"
             style="fill:#254380;fill-opacity:1;fill-rule:nonzero;stroke:none"
             d="m 0,0 c 0,0 0.603,-9.687 -1.2,-15.136 0,0 7.164,-1.194 16.304,1.886 0,0 -2.514,6.51 -2.427,7.527 0.087,1.018 2.732,12.872 1.462,15.525 C 12.869,12.454 0.451,8.69 0,0" /></g><g
           transform="translate(484.168,129.1271)"
           id="g514"><path
             id="path516"
             style="fill:#eea886;fill-opacity:1;fill-rule:nonzero;stroke:none"
             d="m 0,0 c -1.638,0.066 -5.819,-0.567 -5.041,-6.871 0.779,-6.303 3.055,-5.757 5.31,-4.92 2.254,0.838 4.639,5.934 4.544,7.246 C 4.719,-3.233 4.674,-0.188 0,0" /></g><g
           transform="translate(479.1397,125.1037)"
           id="g518"><path
             id="path520"
             style="fill:#353a3d;fill-opacity:1;fill-rule:nonzero;stroke:none"
             d="m 0,0 c 0,0 2.01,-2.136 3.891,-2.561 0,0 1.6,-2.429 4.118,-2.895 0,0 4.904,5.421 0.198,8.89 C 3.501,6.902 -0.17,1.932 0,0" /></g><g
           transform="translate(482.6211,123.3888)"
           id="g522"><path
             id="path524"
             style="fill:#eea886;fill-opacity:1;fill-rule:nonzero;stroke:none"
             d="M 0,0 C 0.036,0.35 0.752,1.109 1.4,0.365 2.049,-0.379 1.104,-2.294 0.695,-2.324 0.287,-2.354 -0.139,-1.329 0,0" /></g><g
           transform="translate(488.6504,81.9923)"
           id="g526"><path
             id="path528"
             style="fill:#dbaf49;fill-opacity:1;fill-rule:nonzero;stroke:none"
             d="m 0,0 c -0.053,-0.116 -3.433,-7.62 -4.303,-8.922 -0.194,0.696 -0.393,1.397 -0.589,2.074 v 10e-4 c 0,0 4.779,6.682 4.892,6.847" /></g><g
           transform="translate(492.6651,106.0011)"
           id="g530"><path
             id="path532"
             style="fill:#16284d;fill-opacity:1;fill-rule:nonzero;stroke:none"
             d="m 0,0 c 0,0 0.239,-4.768 -0.151,-7.691 -0.167,0.769 -0.372,1.576 -0.583,2.347 C -0.718,-5.234 -0.062,-0.753 0,0" /></g><g
           transform="translate(485.4297,129.5353)"
           id="g534"><path
             id="path536"
             style="fill:#353a3d;fill-opacity:1;fill-rule:nonzero;stroke:none"
             d="m 0,0 c 0,0 5.7,0.132 4.844,-9.662 -0.658,-7.527 2.109,-11.246 1.719,-12.343 -0.389,-1.097 -1.726,-2.931 -4.718,-1.276 -2.992,1.653 -1.923,9.531 -3.531,12.888 -1.607,3.358 -4.235,5.661 -4.235,5.661 0,0 0.619,5.715 5.921,4.732" /></g><g
           transform="translate(477.7393,109.7043)"
           id="g538"><path
             id="path540"
             style="fill:#254380;fill-opacity:1;fill-rule:nonzero;stroke:none"
             d="M 0,0 C 0,0 -1.302,-4.648 -1.611,-5.746 -2.013,-7.173 -0.146,-9.857 1.506,-9.032 3.159,-8.208 0,0 0,0" /></g><g
           transform="translate(489.4571,34.0089)"
           id="g542"><path
             id="path544"
             style="fill:#254380;fill-opacity:1;fill-rule:nonzero;stroke:none"
             d="M 0,0 H -0.598 V 2.522 C -1.096,2.48 -2.771,0.896 -3.288,0.437 -3.807,-0.021 -4.517,0 -6.699,-0.14 -8.882,-0.278 -9.088,1.028 -8.742,1.474 -8.397,1.918 -7.28,2.113 -6.699,2.39 -4.365,2.266 -1.516,5.548 -0.148,5.541 0.578,5.538 0.571,5.135 0.593,5.059 V 5.058 C 0.595,5.055 0.595,5.051 0.596,5.048 0.62,4.934 0.647,4.821 0.678,4.712 1.057,3.314 0,0 0,0" /></g><g
           transform="translate(476.2803,33.4728)"
           id="g546"><path
             id="path548"
             style="fill:#254380;fill-opacity:1;fill-rule:nonzero;stroke:none"
             d="m 0,0 h -0.718 c 0,0 0.239,2.711 -0.426,2.737 -0.664,0.027 -2.31,-2.206 -3.294,-2.551 -0.983,-0.345 -6.032,-0.637 -6.058,0.293 -0.026,0.929 1.939,1.302 2.551,1.567 2.082,0.005 5.468,2.297 6.518,2.762 C -0.377,5.271 0.76,4.992 0.76,4.992 0.823,4.553 0.869,4.152 0.876,3.879 0.902,2.87 0,0 0,0" /></g><g
           transform="translate(289.502,370.714)"
           id="g550"><path
             id="path552"
             style="fill:#0e2d3d;fill-opacity:1;fill-rule:nonzero;stroke:none"
             d="m 0,0 c 0,0 -2.602,-1.272 -1.958,-4.733 0.643,-3.461 0.928,-3.928 0.208,-5.28 -0.719,-1.352 -1.568,-7.121 -0.921,-8.214 0.648,-1.093 8.014,4.805 9.035,9.753 1.022,4.95 -0.647,7.15 -1.237,7.971 C 4.537,0.316 2.296,1.165 0,0" /></g><g
           transform="translate(251.9825,396.4152)"
           id="g554"><path
             id="path556"
             style="fill:#78c2ff;fill-opacity:1;fill-rule:nonzero;stroke:none"
             d="m 0,0 h 32.8 v -23.773 -5.008 l -5.008,5.008 H 0 Z" /></g><g
           transform="translate(288.3858,297.0734)"
           id="g558"><path
             id="path560"
             style="fill:#163342;fill-opacity:1;fill-rule:nonzero;stroke:none"
             d="m 0,0 c 0,0 -0.263,-0.622 -0.759,-1.27 -0.364,-0.475 -1.497,-2.425 -1.995,-2.562 -0.499,-0.136 -2.041,-0.408 -2.177,-1.269 -0.135,-0.861 -0.204,-1.474 1.315,-1.542 1.519,-0.067 2.516,-0.158 3.242,0.907 0.726,1.066 1.882,1.837 1.882,1.837 V -6.68 h 0.589 c 0,0 0.272,2.894 0.431,3.098 C 2.687,-3.378 3.095,-1.156 1.689,0 0.283,1.156 0,0 0,0" /></g><g
           transform="translate(285.6319,293.2419)"
           id="g562"><path
             id="path564"
             style="fill:#eea886;fill-opacity:1;fill-rule:nonzero;stroke:none"
             d="m 0,0 c 0,0 1.36,-0.34 1.881,0 0.521,0.34 2.295,3.336 2.882,3.516 0,0 -0.57,1.154 -2.009,0.316 C 2.754,3.832 0.385,0.499 0,0" /></g><g
           transform="translate(272.3545,344.526)"
           id="g566"><path
             id="path568"
             style="fill:#eea886;fill-opacity:1;fill-rule:nonzero;stroke:none"
             d="M 0,0 C 0,0 -0.943,-0.181 -1.266,0.263 -1.54,0.64 -2.167,0.929 -2.359,1.019 -2.617,1.138 -3.272,1.801 -3.426,1.477 -3.58,1.153 -2.399,0.333 -2.187,0.112 c 0.214,-0.221 -1.157,-0.32 -1.394,-0.535 -0.236,-0.215 0.055,-2.477 0.988,-2.301 0.933,0.177 1.814,0.981 1.985,0.979 0.17,-0.002 0.683,0.101 0.683,0.101 z" /></g><g
           transform="translate(268.9825,344.196)"
           id="g570"><path
             id="path572"
             style="fill:#eea886;fill-opacity:1;fill-rule:nonzero;stroke:none"
             d="m 0,0 c 0,0 -2.822,-0.729 -2.969,-0.935 -0.147,-0.206 -0.099,-0.357 0.167,-0.299 0.267,0.057 2.747,0.625 2.747,0.625 0,0 -3.194,-1.424 -3.352,-1.566 -0.092,-0.083 -0.016,-0.38 0.13,-0.363 0.145,0.017 3.392,1.247 3.392,1.247 0,0 -2.98,-1.334 -3.076,-1.493 -0.085,-0.138 0.055,-0.393 0.282,-0.309 0.228,0.083 3.064,1.166 3.064,1.166 0,0 -2.108,-1.108 -2.111,-1.29 -0.002,-0.111 0.053,-0.371 0.588,-0.068 0.535,0.303 1.872,0.885 1.872,0.885 z" /></g><g
           transform="translate(295.9893,295.2707)"
           id="g574"><path
             id="path576"
             style="fill:#163342;fill-opacity:1;fill-rule:nonzero;stroke:none"
             d="m 0,0 c 0,0 -1.519,-2.255 -2.131,-2.8 0,0 -1.36,-0.498 -1.496,-1.45 -0.136,-0.953 -0.113,-1.588 1.496,-1.633 1.61,-0.046 2.665,0.243 2.96,1.218 0.295,0.975 0.94,1.639 0.94,1.639 v -2.04 h 0.363 c 0,0 0.09,1.972 0.113,2.335 0.023,0.362 0.26,1.757 -0.505,2.375 C 0.976,0.261 0,0 0,0" /></g><g
           transform="translate(297.0098,338.8097)"
           id="g578"><path
             id="path580"
             style="fill:#1d3b54;fill-opacity:1;fill-rule:nonzero;stroke:none"
             d="M 0,0 C 0,0 1.918,-2.494 2.438,-5.452 2.959,-8.411 2.131,-18.34 2.153,-19.803 c 0.024,-1.462 1.384,-5.1 1.112,-7.855 -0.273,-2.755 -1.346,-16.464 -1.346,-16.464 l -2.94,0.583 c 0,0 0.171,13.977 0,15.133 -0.169,1.156 -0.51,5.37 -0.579,5.846 -0.068,0.477 -4.317,12.978 -4.317,15.111 C -5.917,-5.316 -4.625,3.48 0,0" /></g><g
           transform="translate(287.375,337.8351)"
           id="g582"><path
             id="path584"
             style="fill:#1d3b54;fill-opacity:1;fill-rule:nonzero;stroke:none"
             d="m 0,0 c 0,0 -3.151,-12.027 -3.525,-13.693 -0.374,-1.666 -0.916,-3.041 -0.916,-3.748 0,-1.642 0.609,-4.278 0.609,-4.278 L 0.17,-40.857 h 3.811 c 0,0 -2.124,11.482 -2.18,13.727 -0.058,2.25 -1.79,5.445 -1.449,6.398 0.339,0.952 5.474,11.936 5.474,11.936 0,0 3.888,12.287 -5.826,8.796" /></g><g
           transform="translate(293.8584,292.4709)"
           id="g586"><path
             id="path588"
             style="fill:#eea886;fill-opacity:1;fill-rule:nonzero;stroke:none"
             d="M 0,0 C 0,0 1.556,-0.869 2.558,0.247 3.403,1.19 3.871,2.443 3.871,2.443 L 2.131,2.8 Z" /></g><g
           transform="translate(288.6758,358.2726)"
           id="g590"><path
             id="path592"
             style="fill:#285173;fill-opacity:1;fill-rule:nonzero;stroke:none"
             d="m 0,0 c 0,0 -1.299,-0.123 -2.28,-1.174 -0.982,-1.052 -1.904,-2.729 -2.16,-3.29 -0.257,-0.561 -3.862,-5.76 -4.048,-5.877 -0.188,-0.117 -1.999,-0.722 -3.2,-1.126 -1.852,-0.623 -5.565,-1.973 -5.565,-1.973 l 0.737,-2.334 c 0,0 6.983,2.284 8.731,2.715 2.139,0.527 7.06,6.842 7.06,6.842 0,0 3.67,4.3 0.725,6.217" /></g><g
           transform="translate(290.9434,359.1842)"
           id="g594"><path
             id="path596"
             style="fill:#ffc955;fill-opacity:1;fill-rule:nonzero;stroke:none"
             d="m 0,0 c 0,0 -1.683,-0.794 -2.268,-0.912 -0.584,-0.116 -2.851,-3.061 -3.248,-4.136 -0.397,-1.076 0,-2.688 0.818,-4.582 0.818,-1.893 0.047,-2.524 0.421,-4.417 0.374,-1.893 0.254,-8.976 0.183,-10.028 -0.07,-1.052 10.941,-2.646 13.115,-0.73 0,0 -1.472,6.384 -3.214,8.205 -0.377,0.394 -0.337,3.02 -0.08,3.675 0.256,0.654 3.155,5.539 3.155,5.539 0,0 0.213,4.955 -1.052,5.937 C 6.731,-0.596 3.737,-0.292 3.2,-0.105 2.662,0.082 1.099,0.164 0,0" /></g><g
           transform="translate(290.1397,361.1261)"
           id="g598"><path
             id="path600"
             style="fill:#eea886;fill-opacity:1;fill-rule:nonzero;stroke:none"
             d="m 0,0 c 0,0 0.051,-0.463 0.108,-1.089 0.023,-0.248 0.047,-0.522 0.07,-0.802 0.067,-0.839 0.12,-1.74 0.088,-2.201 0,0 1.75,-1.753 3.738,2.045 0,0 -0.837,1.566 -0.207,3.698 C 4.427,3.785 0,0 0,0" /></g><g
           transform="translate(285.2451,348.8566)"
           id="g602"><path
             id="path604"
             style="fill:#183c59;fill-opacity:1;fill-rule:nonzero;stroke:none"
             d="m 0,0 c 0,0 -0.421,2.8 0.026,4.502 0,0 0,-1.464 0.803,-3.543 z" /></g><g
           transform="translate(295.4873,358.8097)"
           id="g606"><path
             id="path608"
             style="fill:#eea886;fill-opacity:1;fill-rule:nonzero;stroke:none"
             d="m 0,0 c 0,0 -1.203,-3.553 -4.506,-3.292 -3.303,0.262 -1.565,3 -1.565,3 0,0 0.822,0.473 1.054,0.517 0.232,0.045 3.652,0.088 3.652,0.088 z" /></g><g
           transform="translate(289.416,358.5182)"
           id="g610"><path
             id="path612"
             style="fill:#285173;fill-opacity:1;fill-rule:nonzero;stroke:none"
             d="m 0,0 c 0,0 -1.73,-4.785 -1.73,-9.662 0,-4.877 -0.139,-12.821 -0.744,-15.33 -0.603,-2.508 -2.322,-10.267 -2.322,-10.267 l -1.348,0.697 c 0,0 3.24,12.382 3.485,13.275 0.244,0.893 -0.186,10.326 -0.418,11.115 -0.233,0.79 -1.221,4.306 -1.068,5.281 0.195,1.229 1.345,3.049 3.204,4.613 z" /></g><g
           transform="translate(294.834,358.9591)"
           id="g614"><path
             id="path616"
             style="fill:#285173;fill-opacity:1;fill-rule:nonzero;stroke:none"
             d="m 0,0 c 0,0 -1.075,-3.442 -1.619,-7.852 -0.545,-4.409 1.672,-24.875 3.158,-29.52 l 5.762,0.929 c 0,0 -1.24,14.466 -2.924,17.099 -1.684,2.633 -2.219,4.962 -0.402,10.456 1.817,5.495 -0.796,8.217 -0.796,8.217 0,0 -2.673,0.614 -3.179,0.671" /></g><g
           transform="translate(288.6192,344.36)"
           id="g618"><path
             id="path620"
             style="fill:#616161;fill-opacity:1;fill-rule:nonzero;stroke:none"
             d="M 0,0 6.985,-12.098 14.75,-7.615 8.068,4.659 Z" /></g><g
           transform="translate(289.461,343.944)"
           id="g622"><path
             id="path624"
             style="fill:#e0cec7;fill-opacity:1;fill-rule:nonzero;stroke:none"
             d="m 0,0 6.204,-10.745 6.897,3.982 -5.935,10.9 z" /></g><g
           transform="translate(291.75,344.9093)"
           id="g626"><path
             id="path628"
             style="fill:#616161;fill-opacity:1;fill-rule:nonzero;stroke:none"
             d="M 0,0 -0.436,0.754 2.353,2.364 2.896,1.672 Z" /></g><g
           transform="translate(292.083,336.3253)"
           id="g630"><path
             id="path632"
             style="fill:#eea886;fill-opacity:1;fill-rule:nonzero;stroke:none"
             d="m 0,0 c 0,0 0.317,-0.001 0.456,0.065 0,0 0.244,0.142 0.424,0.232 C 0.937,0.326 0.987,0.35 1.021,0.361 1.164,0.41 1.491,0.476 1.8,0.69 2.108,0.904 3.202,2.171 3.202,2.171 L 2.687,2.956 2.308,3.761 c 0,0 -2.297,-0.149 -2.608,-0.315 C -0.33,3.43 -0.359,3.412 -0.386,3.394 -0.636,3.228 -0.751,2.999 -0.872,2.897 -0.916,2.859 -1.33,2.454 -1.315,2.281 c 0.019,-0.239 0.129,-0.397 0.274,-0.476 0,0 0.06,-0.468 0.29,-0.685 0,0 0.041,-0.433 0.404,-0.622 0,0 0.091,-0.435 0.347,-0.498" /></g><g
           transform="translate(296.8164,358.2726)"
           id="g634"><path
             id="path636"
             style="fill:#285173;fill-opacity:1;fill-rule:nonzero;stroke:none"
             d="m 0,0 c 0,0 2.121,0.608 3.336,-1.729 1.216,-2.338 1.21,-3.335 1.372,-4.477 0.153,-1.077 0.846,-4.02 0.916,-4.323 0.07,-0.304 1.639,-3.928 0.919,-5.194 -0.723,-1.273 -8.064,-5.02 -8.018,-5.3 0.047,-0.281 -1.271,2.833 -1.271,2.833 0,0 2.971,1.655 3.457,2.165 0.79,0.828 2.458,1.72 2.115,2.748 C 2.424,-12.07 1.215,-7.999 0.935,-7.403 0.654,-6.807 -1.788,-0.759 0,0" /></g><g
           transform="translate(289.8789,370.3302)"
           id="g638"><path
             id="path640"
             style="fill:#eea987;fill-opacity:1;fill-rule:nonzero;stroke:none"
             d="m 0,0 c 0,0 -3.776,-1.187 -1.727,-7.704 2.05,-6.517 7.207,0.756 6.668,4.726 C 4.402,0.993 0,0 0,0" /></g><g
           transform="translate(287.7666,366.5275)"
           id="g642"><path
             id="path644"
             style="fill:#0e2d3d;fill-opacity:1;fill-rule:nonzero;stroke:none"
             d="m 0,0 c 0,0 1.876,-1.841 5.017,-2.071 0,0 1.207,-1.415 1.299,-1.971 0,0 2.802,4.776 -0.642,7.639 C 2.229,6.459 -1.266,1.18 0,0" /></g><g
           transform="translate(292.7451,364.3263)"
           id="g646"><path
             id="path648"
             style="fill:#eea987;fill-opacity:1;fill-rule:nonzero;stroke:none"
             d="M 0,0 C 0.024,0.475 0.316,1.554 1.021,1.251 1.727,0.95 0.979,-1.249 0.511,-1.113 0.511,-1.113 -0.058,-1.122 0,0" /></g><g
           transform="translate(290.2481,360.0368)"
           id="g650"><path
             id="path652"
             style="fill:#a77860;fill-opacity:1;fill-rule:nonzero;stroke:none"
             d="m 0,0 c 0.022,-0.248 0.047,-0.521 0.069,-0.801 0,0 1.667,0.099 2.782,2.578 C 2.777,1.669 1.557,-0.125 0,0" /></g><g
           transform="translate(243.2002,417.4186)"
           id="g654"><path
             id="path656"
             style="fill:#c2c2c2;fill-opacity:1;fill-rule:nonzero;stroke:none"
             d="M 0,0 -0.096,0.9 C 2.619,1.188 5.368,1.373 8.075,1.45 L 8.102,0.544 C 5.417,0.468 2.691,0.285 0,0 m 24.293,-0.304 c -2.641,0.362 -5.357,0.616 -8.076,0.757 l 0.047,0.904 C 19.007,1.215 21.75,0.958 24.416,0.594 Z m -40.251,-2.638 -0.232,0.876 c 2.612,0.694 5.299,1.298 7.987,1.793 l 0.164,-0.891 c -2.664,-0.491 -5.328,-1.089 -7.919,-1.778 m 56.023,-1.02 c -2.514,0.847 -5.137,1.587 -7.797,2.201 l 0.204,0.882 c 2.687,-0.62 5.341,-1.369 7.882,-2.225 z m -71.288,-4.432 -0.379,0.823 c 2.428,1.117 4.982,2.154 7.59,3.081 l 0.304,-0.853 c -2.583,-0.919 -5.111,-1.945 -7.515,-3.051 m 85.958,-2.357 c -2.267,1.383 -4.671,2.663 -7.143,3.802 l 0.379,0.823 c 2.505,-1.154 4.939,-2.45 7.236,-3.852 z m -99.868,-5.893 -0.55,0.72 c 2.098,1.602 4.391,3.138 6.814,4.566 l 0.46,-0.781 c -2.393,-1.409 -4.654,-2.924 -6.724,-4.505 m 112.501,-4.164 c -1.865,1.922 -3.883,3.748 -5.998,5.429 l 0.565,0.709 c 2.144,-1.705 4.191,-3.558 6.084,-5.507 z m -123.053,-6.605 -0.743,0.517 c 1.319,1.895 2.864,3.757 4.591,5.537 l 0.649,-0.631 c -1.693,-1.744 -3.206,-3.569 -4.497,-5.423 m 132.707,-6.324 c -1.334,2.359 -2.818,4.638 -4.412,6.776 l 0.726,0.541 c 1.617,-2.168 3.122,-4.479 4.475,-6.871 z m 8.102,-14.153 c -1.451,2.195 -2.881,4.541 -4.25,6.974 l 0.789,0.445 c 1.358,-2.415 2.777,-4.743 4.216,-6.919 z M 95.29,-60.671 c -1.846,1.907 -3.656,3.979 -5.381,6.157 l 0.711,0.562 c 1.705,-2.154 3.495,-4.203 5.32,-6.09 z m 12.604,-10.405 c -2.288,1.485 -4.508,3.115 -6.6,4.844 l 0.577,0.698 c 2.066,-1.707 4.258,-3.316 6.516,-4.782 z m 14.548,-7.454 c -2.699,1.097 -5.136,2.201 -7.451,3.376 l 0.41,0.808 c 2.291,-1.163 4.706,-2.257 7.383,-3.344 z m 15.366,-5.5 c -0.891,0.306 -1.786,0.609 -2.682,0.913 -1.67,0.566 -3.348,1.136 -5.031,1.725 l 0.299,0.855 c 1.68,-0.588 3.356,-1.157 5.023,-1.722 0.897,-0.304 1.792,-0.608 2.684,-0.914 z m 15.072,-5.992 c -2.233,1.104 -4.662,2.162 -7.425,3.235 l 0.328,0.844 c 2.788,-1.083 5.241,-2.152 7.498,-3.267 z m 13.377,-8.967 c -1.999,1.809 -4.081,3.427 -6.364,4.947 l 0.502,0.755 c 2.289,-1.524 4.465,-3.216 6.469,-5.031 z m 10.154,-12.478 c -1.315,2.291 -2.859,4.523 -4.587,6.634 l 0.7,0.574 c 1.76,-2.149 3.332,-4.423 4.673,-6.757 z m 5.452,-15.108 c -0.465,2.666 -1.159,5.289 -2.062,7.795 l 0.851,0.307 c 0.922,-2.555 1.629,-5.229 2.103,-7.946 z m 1.122,-16.222 -0.897,0.121 c 0.339,2.504 0.51,5.015 0.51,7.462 0,0.2 -0.001,0.401 -0.003,0.603 l 0.905,0.01 c 0.003,-0.205 0.004,-0.409 0.004,-0.613 0,-2.488 -0.175,-5.039 -0.519,-7.583 m -4.426,-15.798 -0.814,0.4 c 0.015,0.028 1.431,2.934 2.718,7.596 l 0.873,-0.241 c -1.312,-4.751 -2.719,-7.635 -2.777,-7.755" /></g><g
           transform="translate(386.3936,181.2902)"
           id="g658"><path
             id="path660"
             style="fill:#252e3b;fill-opacity:1;fill-rule:nonzero;stroke:none"
             d="m 0,0 c 0,0 11.727,34.389 -10.651,45.05 -22.377,10.661 -41.377,-4.75 -44.966,-13.089 -3.589,-8.339 -2.639,-23.503 0.422,-34.076 3.061,-10.573 2.615,-26.671 -4.034,-32.054 -6.651,-5.384 -14.897,-14.324 -14.488,-32.523 0.254,-11.292 44.43,28.88 44.43,28.88 z" /></g><g
           transform="translate(354.9512,140.381)"
           id="g662"><path
             id="path664"
             style="fill:#254380;fill-opacity:1;fill-rule:nonzero;stroke:none"
             d="m 0,0 c 0,0 -18.393,-4.076 -25.693,-8.343 -7.3,-4.265 -23.513,-23.891 -23.513,-32.329 0,-8.438 70.899,-16.323 70.899,-16.323 l 13.44,-49.061 c 0,0 35.836,8.745 40.101,15.998 4.267,7.253 -13.611,59.233 -16.671,69.753 C 55.443,-9.574 42.599,-2.091 27.666,0 12.734,2.092 0,0 0,0" /></g><g
           transform="translate(381.3418,140.5509)"
           id="g666"><path
             id="path668"
             style="fill:#eea886;fill-opacity:1;fill-rule:nonzero;stroke:none"
             d="m 0,0 c 0,0 -0.413,-22.354 -18.143,-23.018 -17.728,-0.664 -14.038,21.441 -14.038,21.441 0,0 12.968,5.254 32.181,1.577" /></g><g
           transform="translate(388.8428,208.0089)"
           id="g670"><path
             id="path672"
             style="fill:#252e3b;fill-opacity:1;fill-rule:nonzero;stroke:none"
             d="M 0,0 C 0,0 6.271,-35.954 -11.589,-61.927 -30.085,-88.825 0,0 0,0" /></g><g
           transform="translate(377.5371,156.3566)"
           id="g674"><path
             id="path676"
             style="fill:#eea886;fill-opacity:1;fill-rule:nonzero;stroke:none"
             d="m 0,0 c 0,0 -1.232,-10.693 0.826,-17.343 2.059,-6.65 -27.109,-6.835 -27.093,-1.366 0.02,6.212 2.985,11.4 0.191,22.048 C -28.869,13.986 0,0 0,0" /></g><g
           transform="translate(354.9131,154.9933)"
           id="g678"><path
             id="path680"
             style="fill:#a77860;fill-opacity:1;fill-rule:nonzero;stroke:none"
             d="m 0,0 c 0,0 9.208,-9.595 20.984,-1.001 0,0 -0.972,-6.133 -9.442,-6.924 C 3.073,-8.717 0,0 0,0" /></g><g
           transform="translate(366.4444,220.4757)"
           id="g682"><path
             id="path684"
             style="fill:#eea886;fill-opacity:1;fill-rule:nonzero;stroke:none"
             d="M 0,0 C 0,0 23.274,-6.887 19.949,-39.186 16.624,-71.483 1.426,-69.821 0,-70.059 -1.425,-70.296 -19.474,-71.483 -25.173,-32.299 -30.873,6.887 0,0 0,0" /></g><g
           transform="translate(360.4375,206.0734)"
           id="g686"><path
             id="path688"
             style="fill:#252e3b;fill-opacity:1;fill-rule:nonzero;stroke:none"
             d="m 0,0 c 0,0 12.646,-20.116 25.956,-24.783 0,0 7.268,33.755 -22.75,40.827 -30.018,7.073 -25.315,-34.094 -23.075,-45.071 0,0 6.252,16.149 19.869,29.027" /></g><g
           transform="translate(343.4746,209.1042)"
           id="g690"><path
             id="path692"
             style="fill:#88c0ff;fill-opacity:1;fill-rule:nonzero;stroke:none"
             d="m 0,0 c 0,0 6.657,12.892 17.898,13.467 11.241,0.575 17.926,-9.175 17.926,-9.175 0,0 -4.388,10.979 -17.912,10.979 C 4.389,15.271 0,0 0,0" /></g><path
           id="path694"
           style="fill:#ffc955;fill-opacity:1;fill-rule:nonzero;stroke:none"
           d="m 387.31,41.707 h 19.385 V 34.332 H 387.31 Z" /><g
           transform="translate(389.2373,107.7101)"
           id="g696"><path
             id="path698"
             style="fill:#ffc955;fill-opacity:1;fill-rule:nonzero;stroke:none"
             d="M 0,0 7.893,-73.378 H -95.989 L -103.882,0 Z" /></g><g
           transform="translate(347.6875,72.2072)"
           id="g700"><path
             id="path702"
             style="fill:#cfa345;fill-opacity:1;fill-rule:nonzero;stroke:none"
             d="m 0,0 c 0.934,-4.564 -1.196,-8.855 -4.756,-9.582 -3.558,-0.728 -7.201,2.383 -8.134,6.947 -0.932,4.565 1.197,8.856 4.756,9.583 C -4.574,7.675 -0.933,4.564 0,0" /></g></g></g></g></svg>