<?xml version="1.0" encoding="UTF-8" standalone="no"?>
<svg
   xmlns:dc="http://purl.org/dc/elements/1.1/"
   xmlns:cc="http://creativecommons.org/ns#"
   xmlns:rdf="http://www.w3.org/1999/02/22-rdf-syntax-ns#"
   xmlns:svg="http://www.w3.org/2000/svg"
   xmlns="http://www.w3.org/2000/svg"
   viewBox="0 0 818.03064 1113.5267"
   height="1113.5267"
   width="818.03064"
   xml:space="preserve"
   id="svg2"
   version="1.1"><metadata
     id="metadata8"><rdf:RDF><cc:Work
         rdf:about=""><dc:format>image/svg+xml</dc:format><dc:type
           rdf:resource="http://purl.org/dc/dcmitype/StillImage" /></cc:Work></rdf:RDF></metadata><defs
     id="defs6"><clipPath
       id="clipPath18"
       clipPathUnits="userSpaceOnUse"><path
         id="path16"
         d="M 0,835.145 H 613.523 V 0 H 0 Z" /></clipPath></defs><g
     transform="matrix(1.3333333,0,0,-1.3333333,0,1113.5267)"
     id="g10"><g
       id="g12"><g
         clip-path="url(#clipPath18)"
         id="g14"><g
           transform="translate(193.2373,409.8277)"
           id="g20"><path
             id="path22"
             style="fill:#e0e0e0;fill-opacity:1;fill-rule:nonzero;stroke:none"
             d="M 0,0 C -0.506,3.874 -0.778,8.725 -0.313,14.204 37.95,35.979 136.681,117.589 136.681,380.04 H -15.216 -167.114 c 0,-262.535 98.794,-344.114 137.031,-365.857 0.319,-4.072 0.316,-8.904 -0.413,-14.22 -38.531,-22.095 -136.618,-104.028 -136.618,-365.621 H -15.216 136.681 C 136.681,-103.924 38.487,-22.042 0,0" /></g><g
           transform="translate(32.0166,148.5523)"
           id="g24"><path
             id="path26"
             style="fill:#2878bd;fill-opacity:1;fill-rule:nonzero;stroke:none"
             d="m 0,0 c 0,0 29.461,63.533 133.533,37.516 104.072,-26.019 146.221,32.2 146.221,32.2 l 19.523,-176.745 H 0 Z" /></g><g
           transform="translate(72.2173,533.0381)"
           id="g28"><path
             id="path30"
             style="fill:#2878bd;fill-opacity:1;fill-rule:nonzero;stroke:none"
             d="m 0,0 c 0,0 19.133,49.081 88.514,28.844 69.382,-20.236 106.75,-26.833 136.729,4.892 0,0 -30.8,-109.445 -115.805,-147.027 0,0 -62.563,5.43 -109.438,113.291" /></g><g
           transform="translate(34.5898,52.6011)"
           id="g32"><path
             id="path34"
             style="fill:#d4d4d4;fill-opacity:1;fill-rule:nonzero;stroke:none"
             d="m 0,0 h 286.862 c -0.879,107.562 -18.668,195.122 -52.907,260.364 -28.737,54.756 -62.143,79.606 -79.498,89.545 l -3.628,2.079 -0.542,4.146 c -0.689,5.272 -0.808,10.659 -0.354,16.01 l 0.375,4.42 3.856,2.195 c 17.35,9.873 50.757,34.599 79.556,89.265 34.394,65.286 52.261,152.996 53.142,260.811 H 0 C 0.881,620.99 18.758,533.262 53.17,467.973 c 28.807,-54.657 62.213,-79.368 79.562,-89.234 l 3.889,-2.212 0.35,-4.459 c 0.417,-5.333 0.26,-10.723 -0.466,-16.024 l -0.563,-4.107 -3.596,-2.062 C 114.99,339.923 81.584,315.049 52.861,260.275 18.651,195.041 0.878,107.514 0,0 M 303.76,-16.863 H -16.898 v 8.431 c 0,114.128 18.445,207.168 54.824,276.538 13.35,25.458 29.032,47.438 46.609,65.33 13.75,13.996 26.471,23.183 35.666,28.836 0.095,1.401 0.14,2.806 0.134,4.209 -19.767,12.13 -53.353,39.118 -82.084,93.628 -36.594,69.432 -55.149,162.681 -55.149,277.158 v 8.431 H 303.76 v -8.431 c 0,-114.446 -18.545,-207.676 -55.12,-277.102 -28.74,-54.554 -62.348,-81.554 -82.109,-93.682 -0.018,-1.4 0.015,-2.799 0.099,-4.192 9.189,-5.646 21.891,-14.814 35.622,-28.779 17.586,-17.884 33.276,-39.858 46.635,-65.312 36.411,-69.38 54.873,-162.452 54.873,-276.632 z" /></g><path
           id="path36"
           style="fill:#2878bd;fill-opacity:1;fill-rule:nonzero;stroke:none"
           d="M 346.712,789.868 H 9.33 v 21.444 h 337.382 z" /><path
           id="path38"
           style="fill:#2878bd;fill-opacity:1;fill-rule:nonzero;stroke:none"
           d="M 346.712,35.738 H 9.33 v 29.876 h 337.382 z" /><g
           transform="translate(487.7891,26.1045)"
           id="g40"><path
             id="path42"
             style="fill:#363a5e;fill-opacity:1;fill-rule:nonzero;stroke:none"
             d="m 0,0 c 0,0 14.449,-20.299 12.467,-23.517 -1.982,-3.217 -17.177,-3.676 -26.426,0 -9.25,3.678 -9.47,27.467 -13.654,37.688 -1.752,4.28 1.996,16.911 7.267,17.828 5.271,0.916 11.004,-1.776 11.004,-1.776 0,0 -5.468,-14.397 9.342,-30.223" /></g><g
           transform="translate(478.5439,56.4917)"
           id="g44"><path
             id="path46"
             style="fill:#eea886;fill-opacity:1;fill-rule:nonzero;stroke:none"
             d="m 0,0 c 0,0 3.04,-8.644 4.151,-16.897 0.921,-6.846 10.294,-21.38 9.853,-23.218 -0.44,-1.839 -12.332,-3.504 -17.177,1.235 -4.845,4.739 -7.962,18.524 -9.029,26.768 -0.994,7.678 -2.248,11.471 -2.248,11.471 0,0 9.825,5.697 14.45,0.641" /></g><g
           transform="translate(362.0186,25.7671)"
           id="g48"><path
             id="path50"
             style="fill:#363a5e;fill-opacity:1;fill-rule:nonzero;stroke:none"
             d="m 0,0 c 0,0 13.928,-19.962 11.946,-23.179 -1.982,-3.217 -17.177,-3.676 -26.426,0 -9.249,3.677 -9.47,27.467 -13.654,37.688 -1.752,4.279 1.997,16.91 7.267,17.827 5.271,0.916 11.452,-1.971 11.452,-1.971 0,0 -5.395,-14.539 9.415,-30.365" /></g><g
           transform="translate(352.6035,56.1324)"
           id="g52"><path
             id="path54"
             style="fill:#eea886;fill-opacity:1;fill-rule:nonzero;stroke:none"
             d="m 0,0 c 0,0 1.101,-9.422 2.863,-16.086 1.762,-6.664 11.231,-21.831 10.791,-23.67 -0.441,-1.838 -12.333,-3.504 -17.178,1.235 -4.845,4.74 -8.588,18.461 -9.029,26.768 -0.44,8.306 1.101,13.724 1.101,13.724 0,0 6.827,3.085 11.452,-1.971" /></g><g
           transform="translate(422.2065,386.605)"
           id="g56"><path
             id="path58"
             style="fill:#eea886;fill-opacity:1;fill-rule:nonzero;stroke:none"
             d="m 0,0 c 0,0 12.399,-60.192 15.247,-75.347 2.847,-15.155 10.82,-88.552 11.675,-101.033 0.854,-12.48 12.938,-59.506 12.369,-63.963 -0.57,-4.457 17.916,-93.997 17.916,-93.997 0,0 -6.313,-5.302 -12.969,-0.478 -3.423,2.48 -40.558,83.826 -40.558,106.111 0,30.807 -21.831,71.021 -24.647,77.913 -26.167,64.027 -21.016,83.603 -24.433,87.763 -3.417,4.16 -3.714,-2.57 -5.707,-11.782 -1.993,-9.211 -6.262,-88.85 -8.825,-98.953 -2.563,-10.103 -0.572,-44.276 -1.996,-61.511 -1.424,-17.235 -7.675,-95.196 -7.675,-95.196 0,0 -4.842,-7.916 -11.634,-0.206 -1.462,1.66 -11.727,86.844 -12.012,107.348 -0.285,20.504 -0.588,48.781 -1.139,57.648 -5.276,84.967 -18.242,97.102 2.18,157.235 C -53.97,104.143 0,0 0,0" /></g><g
           transform="translate(338.938,403.4263)"
           id="g60"><path
             id="path62"
             style="fill:#3f446e;fill-opacity:1;fill-rule:nonzero;stroke:none"
             d="m 0,0 c 0,0 -35.325,-51.589 -20.116,-161.332 0,0 83.785,-11.892 128.672,13.756 0,0 -18.562,113.148 -25.287,130.755 C 76.542,0.785 0,0 0,0" /></g><g
           transform="translate(459.7886,42.062)"
           id="g64"><path
             id="path66"
             style="fill:#363a5e;fill-opacity:1;fill-rule:nonzero;stroke:none"
             d="M 0,0 V -21.252 H 2.643 V -4.826 Z" /></g><g
           transform="translate(333.4971,42.062)"
           id="g68"><path
             id="path70"
             style="fill:#363a5e;fill-opacity:1;fill-rule:nonzero;stroke:none"
             d="M 0,0 V -21.252 H 2.643 V -4.826 Z" /></g><g
           transform="translate(380.8169,632.1831)"
           id="g72"><path
             id="path74"
             style="fill:#eea886;fill-opacity:1;fill-rule:nonzero;stroke:none"
             d="m 0,0 c 0,0 23.657,-23.828 15.6,-54.514 -8.057,-30.685 -21.003,-30.857 -35.273,-17.657 -14.269,13.2 -22.669,27.086 -24.555,42.514 C -46.114,-14.229 -21.6,21.257 0,0" /></g><g
           transform="translate(385.4458,529.8408)"
           id="g76"><path
             id="path78"
             style="fill:#eea886;fill-opacity:1;fill-rule:nonzero;stroke:none"
             d="m 0,0 c 0,0 -3.507,8.026 -5.966,17.064 -0.433,1.593 -0.835,3.218 -1.178,4.836 -1.207,5.684 -1.7,11.285 -0.399,15.128 3.772,11.143 -23.657,3.429 -23.657,3.429 0,0 5.314,-29.486 0,-39.429 C -36.514,-8.915 0,0 0,0" /></g><g
           transform="translate(328.3608,462.1304)"
           id="g80"><path
             id="path82"
             style="fill:#eddad3;fill-opacity:1;fill-rule:nonzero;stroke:none"
             d="M 0,0 C 0,0 2.282,-5.056 4.327,-10.766 2.658,-10.915 1.079,-10.925 0.336,-11.036 -6.271,-12.025 -1.307,-3.643 0,0 m -26.349,-27.909 c 0.453,-3.695 17.731,-2.929 36.161,-1.043 0.014,-0.072 0.032,-0.145 0.05,-0.218 0.399,-1.623 0.743,-3.074 0.993,-4.09 0.272,-1.111 0.517,-2.295 0.735,-3.537 1.85,-10.539 1.705,-25.395 -1.819,-38.12 0,0 46.455,-17.314 75.428,-1.542 0,0 -3.083,25.2 1.542,41.484 4.63,16.286 28.801,73.03 28.801,73.03 0,0 -17.519,25.332 -30.892,29.962 -13.368,4.629 -30.603,7.499 -30.603,7.499 L 28.99,74.597 c 0,0 -20.861,-5.433 -25.532,-6.907 -8.343,-2.635 -11.572,-5.41 -15.89,-14.026 -5.94,-11.845 -15.948,-64.926 -13.917,-81.573" /></g><g
           transform="translate(373.103,615.0405)"
           id="g84"><path
             id="path86"
             style="fill:#e8734d;fill-opacity:1;fill-rule:nonzero;stroke:none"
             d="m 0,0 c 0,0 -11.314,-20.571 -18.343,-27.943 -7.029,-7.371 -6.203,-13.224 -6.203,-13.224 0,0 -27.397,33.795 -7.854,54.195 19.543,20.4 44.743,12.172 52.114,-5.657 7.371,-17.828 4.672,-39.606 4.672,-39.606 0,0 -0.215,20.921 -24.386,32.235" /></g><g
           transform="translate(365.6372,636.5796)"
           id="g88"><path
             id="path90"
             style="fill:#e8734d;fill-opacity:1;fill-rule:nonzero;stroke:none"
             d="m 0,0 c 0,0 2.736,15.06 -20.88,21.049 -23.616,5.989 -34.226,-21.22 -31.317,-37.82 2.909,-16.599 23.103,-58.697 12.151,-64.172 -10.953,-5.477 -15.231,6.331 -15.231,6.331 0,0 3.423,-20.706 18.653,-15.915 15.23,4.792 13.178,38.441 10.88,51.852 C -28.042,-25.264 0,0 0,0" /></g><g
           transform="translate(358.0308,562.9966)"
           id="g92"><path
             id="path94"
             style="fill:#a77860;fill-opacity:1;fill-rule:nonzero;stroke:none"
             d="m 0,0 c 0.091,-0.216 6.062,-13.959 21.449,-16.092 -0.433,1.593 -0.835,3.218 -1.178,4.836 0,0 -8.432,-1.701 -20.271,11.256" /></g><g
           transform="translate(328.6968,461.9307)"
           id="g96"><path
             id="path98"
             style="fill:#cfbeb8;fill-opacity:1;fill-rule:nonzero;stroke:none"
             d="M 0,0 C 0,0 1.127,-2.377 4.218,-11.742 7.365,14.562 5.721,28.253 5.721,28.253 5.377,14.196 0,0 0,0" /></g><g
           transform="translate(361.9585,639.7378)"
           id="g100"><path
             id="path102"
             style="fill:#eddad3;fill-opacity:1;fill-rule:nonzero;stroke:none"
             d="m 0,0 c 0,0 -16.761,-3.22 -25.123,-16.873 0,0 1.696,12.363 10.039,15.927 C -6.741,2.616 0,0 0,0" /></g><g
           transform="translate(338.2227,432.9605)"
           id="g104"><path
             id="path106"
             style="fill:#cfbeb8;fill-opacity:1;fill-rule:nonzero;stroke:none"
             d="M 0,0 C 0.399,-1.623 0.744,-3.074 0.993,-4.09 1.265,-5.201 1.51,-6.385 1.728,-7.627 12.108,-1.981 19.563,2.431 19.563,2.431 16.77,1.805 0,0 0,0" /></g><g
           transform="translate(355.9482,536.3608)"
           id="g108"><path
             id="path110"
             style="fill:#eea886;fill-opacity:1;fill-rule:nonzero;stroke:none"
             d="M 0,0 29.498,-24.045 26.46,1.286 C 26.46,1.286 9.259,4.998 0,0" /></g><g
           transform="translate(376.9214,516.397)"
           id="g112"><path
             id="path114"
             style="fill:#d6c5be;fill-opacity:1;fill-rule:nonzero;stroke:none"
             d="m 0,0 8.524,-4.081 -28.97,28.719 z" /></g><g
           transform="translate(336.4858,435.0425)"
           id="g116"><path
             id="path118"
             style="fill:#494f80;fill-opacity:1;fill-rule:nonzero;stroke:none"
             d="m 0,0 c 4.059,-16.824 -10.962,-54.69 -10.962,-54.69 l 29.772,-9.307 c 4.284,-1.339 8.793,1.287 9.737,5.675 3.987,18.528 13.331,64.134 14.448,89.49 1.424,32.351 -22.13,70.517 -22.13,70.517 -41.866,-7.184 -30.388,-70.517 -30.388,-70.517 0,0 1.519,-3.991 3.551,-10.227 V 20.937 C -5.46,19.373 -4.92,17.663 -4.358,15.84 -2.925,11.16 -1.383,5.723 0,0" /></g><g
           transform="translate(385.373,536.2622)"
           id="g120"><path
             id="path122"
             style="fill:#494f80;fill-opacity:1;fill-rule:nonzero;stroke:none"
             d="m 0,0 -0.516,1.384 c 0,0 21.44,-3.261 32.336,-8.702 10.897,-5.442 31.757,-33.559 31.757,-33.559 L 36.293,-76.896 c -0.031,-27.681 4.458,-76.898 4.458,-76.898 l -12.474,-7.188 c -3.353,-1.933 -7.55,0.437 -7.623,4.307 -0.352,18.716 -1.191,63.158 -1.632,84.682 C 18.455,-44.308 -1.299,0.465 -1.299,0.465 -0.859,0.315 -0.429,0.158 0,0" /></g><g
           transform="translate(424.2456,406.4693)"
           id="g124"><path
             id="path126"
             style="fill:#eea886;fill-opacity:1;fill-rule:nonzero;stroke:none"
             d="M 0,0 C 0,0 -20.571,-0.8 -23.771,0 -26.971,0.8 -48.318,10.057 -49.6,19.2 -50.882,28.344 0,11.005 0,11.005 Z" /></g><g
           transform="translate(360.417,435.041)"
           id="g128"><path
             id="path130"
             style="fill:#6a77bf;fill-opacity:1;fill-rule:nonzero;stroke:none"
             d="M 0,0 83.485,9.771 45.771,-20.915 Z" /></g><g
           transform="translate(406.1885,414.1265)"
           id="g132"><path
             id="path134"
             style="fill:#323657;fill-opacity:1;fill-rule:nonzero;stroke:none"
             d="m 0,0 -45.771,15.601 v 5.314 L 1.543,5.737 Z" /></g><g
           transform="translate(384.6699,450.3716)"
           id="g136"><path
             id="path138"
             style="fill:#eea886;fill-opacity:1;fill-rule:nonzero;stroke:none"
             d="m 0,0 c 0,0 6.905,-0.001 10.772,0.786 2.992,0.61 10.432,-0.23 12.327,-1.91 1.894,-1.679 7.921,-13.38 9.061,-14.094 1.139,-0.714 -0.584,-2.366 -2.587,-1.536 0,0 -1.837,-5.121 -6.372,-3.204 -4.536,1.917 -7.615,6.102 -9.991,6.839 -2.375,0.737 -16.206,4.456 -16.206,4.456 0,0 -0.568,9.909 2.996,8.663" /></g><g
           transform="translate(380.834,542.3198)"
           id="g140"><path
             id="path142"
             style="fill:#fae6de;fill-opacity:1;fill-rule:nonzero;stroke:none"
             d="m 0,0 15.89,-25.167 7.671,-4.837 -17.877,25.06 z" /></g><g
           transform="translate(396.7236,517.1528)"
           id="g144"><path
             id="path146"
             style="fill:#d6c5be;fill-opacity:1;fill-rule:nonzero;stroke:none"
             d="m 0,0 -11.278,-4.837 -3.037,25.331 -1.575,4.673 z" /></g><g
           transform="translate(421.7314,418.2408)"
           id="g148"><path
             id="path150"
             style="fill:#494f80;fill-opacity:1;fill-rule:nonzero;stroke:none"
             d="m 0,0 c 0,0 0.857,-10.628 0,-12.856 0,0 51.485,5.142 56.285,12.342 4.8,7.2 4.629,15.943 4.629,15.943 z" /></g><g
           transform="translate(406.1885,414.1265)"
           id="g152"><path
             id="path154"
             style="fill:#252740;fill-opacity:1;fill-rule:nonzero;stroke:none"
             d="m 0,0 24.343,90.515 92.571,9.771 -25.372,-83.314 z" /></g><g
           transform="translate(356.4756,541.0347)"
           id="g156"><path
             id="path158"
             style="fill:#fae6de;fill-opacity:1;fill-rule:nonzero;stroke:none"
             d="M 0,0 20.446,-24.638 9.259,-34.614 -2.815,-5.12 Z" /></g><g
           transform="translate(329.8271,458.065)"
           id="g160"><path
             id="path162"
             style="fill:#3d426b;fill-opacity:1;fill-rule:nonzero;stroke:none"
             d="M 0,0 C 0,0 0.687,-2.081 0.687,-2.085 1.199,-3.65 1.738,-5.359 2.301,-7.183 6.25,-8.425 40.448,-5.917 40.448,-5.917 40.448,-5.917 11.827,0.803 0,0" /></g><g
           transform="translate(331.8003,451.5513)"
           id="g164"><path
             id="path166"
             style="fill:#494f80;fill-opacity:1;fill-rule:nonzero;stroke:none"
             d="m 0,0 c 5.51,0.416 14.533,1.004 21.917,1.035 11.49,0.049 31.14,-1.23 31.14,-1.23 l -2.343,-12.278 c 0,0 -34.808,-5.655 -53.818,-6.983 v -0.001 c 0,0 -25.088,-2.879 -26.952,0.862 -1.864,3.741 0.617,27.776 4.698,49.43 4.082,21.653 8.276,34.124 13.265,40.813 4.988,6.689 31.342,11.9 31.342,11.9 L -3.105,10.378 c 0,0 -3.207,-6.525 -3.042,-9.341 0.05,-0.858 0.645,-1.264 1.446,-1.416 0.562,0.049 1.799,0.154 3.505,0.287 z" /></g><g
           transform="translate(4.7852,154.6421)"
           id="g168"><path
             id="path170"
             style="fill:#2878bd;fill-opacity:1;fill-rule:nonzero;stroke:none"
             d="m 0,0 -4.785,0.28 c 8.344,142.319 81.408,222.384 82.146,223.176 l 3.51,-3.266 C 80.146,219.41 8.238,140.504 0,0" /></g><g
           transform="translate(369.7402,789.8677)"
           id="g172"><path
             id="path174"
             style="fill:#2878bd;fill-opacity:1;fill-rule:nonzero;stroke:none"
             d="M 0,0 H -4.794 V 40.483 H -126.42 v 4.794 l 126.42,0 z" /></g><g
           transform="translate(522.6831,754.2407)"
           id="g176"><path
             id="path178"
             style="fill:#ffc655;fill-opacity:1;fill-rule:nonzero;stroke:none"
             d="m 0,0 -123.621,-0.569 0.413,-89.601 0.086,-18.874 18.786,18.961 104.748,0.481 z" /></g><g
           transform="translate(470.5312,705.6021)"
           id="g180"><path
             id="path182"
             style="fill:#ffffff;fill-opacity:1;fill-rule:nonzero;stroke:none"
             d="m 0,0 c 0.017,-5.214 -4.197,-9.454 -9.412,-9.471 -5.214,-0.016 -9.454,4.198 -9.471,9.411 -0.016,5.215 4.197,9.456 9.412,9.472 C -4.257,9.429 -0.016,5.215 0,0" /></g><g
           transform="translate(501.5396,705.7007)"
           id="g184"><path
             id="path186"
             style="fill:#ffffff;fill-opacity:1;fill-rule:nonzero;stroke:none"
             d="m 0,0 c 0.017,-5.215 -4.197,-9.455 -9.412,-9.472 -5.214,-0.016 -9.455,4.198 -9.471,9.412 -0.016,5.215 4.197,9.455 9.412,9.471 C -4.257,9.428 -0.016,5.214 0,0" /></g><g
           transform="translate(440.2344,705.5073)"
           id="g188"><path
             id="path190"
             style="fill:#ffffff;fill-opacity:1;fill-rule:nonzero;stroke:none"
             d="m 0,0 c 0.017,-5.215 -4.197,-9.455 -9.412,-9.472 -5.214,-0.016 -9.454,4.198 -9.471,9.412 -0.016,5.214 4.197,9.455 9.412,9.471 C -4.257,9.428 -0.017,5.214 0,0" /></g><g
           transform="translate(535.3911,540.9761)"
           id="g192"><path
             id="path194"
             style="fill:#7abffa;fill-opacity:1;fill-rule:nonzero;stroke:none"
             d="m 0,0 -51.141,-7.065 -4.837,35.014 51.141,7.065 z" /></g><g
           transform="translate(484.25,533.9111)"
           id="g196"><path
             id="path198"
             style="fill:#68b4f2;fill-opacity:1;fill-rule:nonzero;stroke:none"
             d="M 0,0 22.867,23.106 51.141,7.065 Z" /></g><g
           transform="translate(530.5542,575.9897)"
           id="g200"><path
             id="path202"
             style="fill:#a3d5ff;fill-opacity:1;fill-rule:nonzero;stroke:none"
             d="M 0,0 -22.558,-25.343 -51.141,-7.064 Z" /></g><g
           transform="translate(592.8057,463.813)"
           id="g204"><path
             id="path206"
             style="fill:#7abffa;fill-opacity:1;fill-rule:nonzero;stroke:none"
             d="m 0,0 -54.643,17.26 11.817,37.412 54.643,-17.26 z" /></g><g
           transform="translate(538.1626,481.0733)"
           id="g208"><path
             id="path210"
             style="fill:#68b4f2;fill-opacity:1;fill-rule:nonzero;stroke:none"
             d="M 0,0 33.928,12.285 54.643,-17.26 Z" /></g><g
           transform="translate(604.6226,501.2251)"
           id="g212"><path
             id="path214"
             style="fill:#a3d5ff;fill-opacity:1;fill-rule:nonzero;stroke:none"
             d="M 0,0 -34.683,-14.675 -54.643,17.26 Z" /></g><g
           transform="translate(613.5234,552.7661)"
           id="g216"><path
             id="path218"
             style="fill:#7abffa;fill-opacity:1;fill-rule:nonzero;stroke:none"
             d="m 0,0 -42.131,-15.476 -10.596,28.845 42.132,15.476 z" /></g><g
           transform="translate(571.3926,537.29)"
           id="g220"><path
             id="path222"
             style="fill:#68b4f2;fill-opacity:1;fill-rule:nonzero;stroke:none"
             d="M 0,0 15.142,23.864 42.131,15.476 Z" /></g><g
           transform="translate(602.9282,581.6108)"
           id="g224"><path
             id="path226"
             style="fill:#a3d5ff;fill-opacity:1;fill-rule:nonzero;stroke:none"
             d="m 0,0 -14.465,-25.706 -27.666,10.23 z" /></g></g></g></g></svg>