<?xml version="1.0" encoding="UTF-8" standalone="no"?>
<svg
   xmlns:dc="http://purl.org/dc/elements/1.1/"
   xmlns:cc="http://creativecommons.org/ns#"
   xmlns:rdf="http://www.w3.org/1999/02/22-rdf-syntax-ns#"
   xmlns:svg="http://www.w3.org/2000/svg"
   xmlns="http://www.w3.org/2000/svg"
   viewBox="0 0 534.96265 510.53467"
   height="510.53467"
   width="534.96265"
   xml:space="preserve"
   id="svg2"
   version="1.1"><metadata
     id="metadata8"><rdf:RDF><cc:Work
         rdf:about=""><dc:format>image/svg+xml</dc:format><dc:type
           rdf:resource="http://purl.org/dc/dcmitype/StillImage" /></cc:Work></rdf:RDF></metadata><defs
     id="defs6"><clipPath
       id="clipPath18"
       clipPathUnits="userSpaceOnUse"><path
         id="path16"
         d="m 109.375,290.564 c -5.232,0 -9.474,-4.242 -9.474,-9.473 v 0 -190.837 h 270.428 v 190.837 c 0,5.231 -4.241,9.473 -9.474,9.473 v 0 z" /></clipPath><linearGradient
       id="linearGradient28"
       spreadMethod="pad"
       gradientTransform="matrix(300.42896,0,0,-300.42896,91.743668,190.40895)"
       gradientUnits="userSpaceOnUse"
       y2="0"
       x2="1"
       y1="0"
       x1="0"><stop
         id="stop24"
         offset="0"
         style="stop-opacity:1;stop-color:#40d5e6" /><stop
         id="stop26"
         offset="1"
         style="stop-opacity:1;stop-color:#5577ff" /></linearGradient><clipPath
       id="clipPath38"
       clipPathUnits="userSpaceOnUse"><path
         id="path36"
         d="m 109.461,126.664 h 250.83 v 154.088 h -250.83 z" /></clipPath><linearGradient
       id="linearGradient50"
       spreadMethod="pad"
       gradientTransform="matrix(250.83,0,0,-250.83,109.461,203.70825)"
       gradientUnits="userSpaceOnUse"
       y2="0"
       x2="1"
       y1="0"
       x1="0"><stop
         id="stop44"
         offset="0"
         style="stop-opacity:1;stop-color:#404b61" /><stop
         id="stop46"
         offset="0.46823785"
         style="stop-opacity:1;stop-color:#404b61" /><stop
         id="stop48"
         offset="1"
         style="stop-opacity:1;stop-color:#2f3e5c" /></linearGradient><clipPath
       id="clipPath60"
       clipPathUnits="userSpaceOnUse"><path
         id="path58"
         d="M 0,382.901 H 401.222 V 0 H 0 Z" /></clipPath><clipPath
       id="clipPath134"
       clipPathUnits="userSpaceOnUse"><path
         id="path132"
         d="M 235.156,119.176 H 99.996 L 70.414,8.609 H 236.043 399.9 l -29.582,110.567 z" /></clipPath><linearGradient
       id="linearGradient144"
       spreadMethod="pad"
       gradientTransform="matrix(0,-166.57642,-166.57642,0,235.15674,129.86435)"
       gradientUnits="userSpaceOnUse"
       y2="0"
       x2="1"
       y1="0"
       x1="0"><stop
         id="stop140"
         offset="0"
         style="stop-opacity:1;stop-color:#40d5e6" /><stop
         id="stop142"
         offset="1"
         style="stop-opacity:1;stop-color:#5577ff" /></linearGradient><clipPath
       id="clipPath154"
       clipPathUnits="userSpaceOnUse"><path
         id="path152"
         d="M 0,382.901 H 401.222 V 0 H 0 Z" /></clipPath><clipPath
       id="clipPath350"
       clipPathUnits="userSpaceOnUse"><path
         id="path348"
         d="M 70.414,8.609 C 70.414,3.855 74.267,0 79.022,0 v 0 h 312.269 c 4.754,0 8.609,3.855 8.609,8.609 v 0 z" /></clipPath><linearGradient
       id="linearGradient360"
       spreadMethod="pad"
       gradientTransform="matrix(329.48529,0,0,-329.48529,-82.297401,4.3041997)"
       gradientUnits="userSpaceOnUse"
       y2="0"
       x2="1"
       y1="0"
       x1="0"><stop
         id="stop356"
         offset="0"
         style="stop-opacity:1;stop-color:#40d5e6" /><stop
         id="stop358"
         offset="1"
         style="stop-opacity:1;stop-color:#5577ff" /></linearGradient><clipPath
       id="clipPath370"
       clipPathUnits="userSpaceOnUse"><path
         id="path368"
         d="M 0,382.901 H 401.222 V 0 H 0 Z" /></clipPath><clipPath
       id="clipPath490"
       clipPathUnits="userSpaceOnUse"><path
         id="path488"
         d="M 276.31,231.783 H 401.222 V 142.727 H 276.31 Z" /></clipPath></defs><g
     transform="matrix(1.3333333,0,0,-1.3333333,0,510.53467)"
     id="g10"><g
       id="g12"><g
         clip-path="url(#clipPath18)"
         id="g14"><g
           id="g20"><g
             id="g22"><path
               id="path30"
               style="fill:url(#linearGradient28);stroke:none"
               d="m 109.375,290.564 c -5.232,0 -9.474,-4.242 -9.474,-9.473 v 0 -190.837 h 270.428 v 190.837 c 0,5.231 -4.241,9.473 -9.474,9.473 v 0 z" /></g></g></g></g><g
       id="g32"><g
         clip-path="url(#clipPath38)"
         id="g34"><g
           id="g40"><g
             id="g42"><path
               id="path52"
               style="fill:url(#linearGradient50);stroke:none"
               d="m 109.461,126.664 h 250.83 v 154.088 h -250.83 z" /></g></g></g></g><g
       id="g54"><g
         clip-path="url(#clipPath60)"
         id="g56"><path
           id="path62"
           style="fill:#1487e3;fill-opacity:1;fill-rule:nonzero;stroke:none"
           d="m 126.396,151.02 h -25.272 v 2.861 h 25.272 z" /><g
           transform="translate(33.1142,164.4727)"
           id="g64"><path
             id="path66"
             style="fill:#ff7e55;fill-opacity:1;fill-rule:nonzero;stroke:none"
             d="m 0,0 c 0,0 -1.144,-16.046 1.991,-17.967 1.964,-1.203 9.795,-5.261 9.563,-6.022 -0.233,-0.761 -4.422,-6.77 -4.422,-6.77 0,0 -15.042,9.905 -15.528,13.027 -0.473,3.049 0.741,23.495 2.809,24.437 1.549,0.706 2.365,0.122 4.318,-1.327 C 1.47,3.345 0,0 0,0" /></g><g
           transform="translate(31.3652,47.6982)"
           id="g68"><path
             id="path70"
             style="fill:#424773;fill-opacity:1;fill-rule:nonzero;stroke:none"
             d="m 0,0 c 0,0 -0.468,-3.247 -0.525,-3.734 -0.059,-0.488 -5.204,0.287 -5.204,0.287 l -0.417,3.865 c 0,0 5.503,0.04 6.146,-0.418" /></g><g
           transform="translate(30.8945,44.377)"
           id="g72"><path
             id="path74"
             style="fill:#292c47;fill-opacity:1;fill-rule:nonzero;stroke:none"
             d="M 0,0 C 0,0 1.629,-1.957 3.206,-2.81 4.783,-3.662 7.26,-4 8.193,-4.884 c 0.672,-0.637 2.452,-3.379 -4.097,-3.324 -6.549,0.056 -9.705,-0.388 -10.407,0.664 -0.702,1.052 1.015,7.764 1.015,7.764 0,0 1.551,-0.558 5.296,-0.22" /></g><g
           transform="translate(57.1152,47.6982)"
           id="g76"><path
             id="path78"
             style="fill:#424773;fill-opacity:1;fill-rule:nonzero;stroke:none"
             d="m 0,0 c 0,0 -0.469,-3.247 -0.527,-3.734 -0.059,-0.488 -5.203,0.287 -5.203,0.287 l -0.416,3.865 c 0,0 5.503,0.04 6.146,-0.418" /></g><g
           transform="translate(56.6435,44.377)"
           id="g80"><path
             id="path82"
             style="fill:#292c47;fill-opacity:1;fill-rule:nonzero;stroke:none"
             d="m 0,0 c 0,0 1.63,-1.957 3.206,-2.81 1.577,-0.852 7.379,-1.552 8.312,-2.436 0.672,-0.637 1.792,-3.202 -7.421,-2.962 -6.547,0.171 -9.705,-0.388 -10.409,0.664 -0.701,1.052 1.016,7.764 1.016,7.764 0,0 1.461,-0.596 5.296,-0.22" /></g><g
           transform="translate(33.2109,131.126)"
           id="g84"><path
             id="path86"
             style="fill:#292c47;fill-opacity:1;fill-rule:nonzero;stroke:none"
             d="m 0,0 c 0,0 -4.834,-7.682 -4.474,-14.624 0.361,-6.943 -0.43,-14.36 -1.157,-21.612 -0.808,-8.086 -3.015,-24.913 -3.135,-29.238 -0.121,-4.326 0.158,-20.6 0.158,-20.6 l 8.385,0.062 c 0,0 2.977,32.878 4.42,36.293 1.442,3.415 7.364,28.115 7.604,30.847 C 12.041,-16.141 0,0 0,0" /></g><g
           transform="translate(58.6601,130.085)"
           id="g88"><path
             id="path90"
             style="fill:#292c47;fill-opacity:1;fill-rule:nonzero;stroke:none"
             d="m 0,0 c 0,0 1.91,-18.875 2.391,-23.125 0.48,-4.249 0.152,-22.662 0.391,-25.318 0.241,-2.656 -1.606,-30.746 -2.061,-36.096 l -9.217,0.059 c 0,0 -0.636,22.723 -0.636,33.763 0,11.041 -2.833,23.894 -6.079,31.178 -3.246,7.285 -10.676,7.457 -12.671,20.973 0,0 25.181,2.852 27.882,-1.434" /></g><g
           transform="translate(38.3183,195.8857)"
           id="g92"><path
             id="path94"
             style="fill:#eea886;fill-opacity:1;fill-rule:nonzero;stroke:none"
             d="m 0,0 c 0,0 5.76,3.848 9.805,-0.274 4.045,-4.122 6.033,-13.813 3.129,-15.747 -2.906,-1.934 -7.833,-2.442 -10.172,0.183 -2.339,2.623 -4.836,6.627 -5.45,9.549 C -3.303,-3.365 -1.461,-1.23 0,0" /></g><g
           transform="translate(49.2929,179.2119)"
           id="g96"><path
             id="path98"
             style="fill:#eea886;fill-opacity:1;fill-rule:nonzero;stroke:none"
             d="m 0,0 c 0,0 -0.075,-4.049 0.371,-4.911 0.447,-0.863 -8.406,-0.886 -8.406,-0.886 0,0 -0.719,4.694 -2.082,8.66 C -11.479,6.83 0,0 0,0" /></g><g
           transform="translate(39.3984,182.1406)"
           id="g100"><path
             id="path102"
             style="fill:#754836;fill-opacity:1;fill-rule:nonzero;stroke:none"
             d="m 0,0 c 0,0 0.825,-0.841 3.163,0.111 2.339,0.953 4.538,4.882 5.468,5.474 0.932,0.594 0.8,1.191 0.8,1.191 l 0.853,-0.777 1.093,0.187 c 0,0 -1.663,2.657 -0.459,4.184 1.203,1.527 -3.741,8.99 -10.887,4.434 0,0 -5.591,-3.058 -4.572,-6.408 C -3.521,5.047 -1.738,1.378 0,0" /></g><g
           transform="translate(50.1894,174.4043)"
           id="g104"><path
             id="path106"
             style="fill:#e2d2ca;fill-opacity:1;fill-rule:nonzero;stroke:none"
             d="m 0,0 c 0,0 -0.027,1.648 -0.775,1.807 -0.747,0.158 -8.25,0.88 -9.168,0.518 v -1.92 c 0,0 1.768,-1.088 9.943,-0.405" /></g><g
           transform="translate(48.3769,190.1162)"
           id="g108"><path
             id="path110"
             style="fill:#eea886;fill-opacity:1;fill-rule:nonzero;stroke:none"
             d="M 0,0 C -0.27,0.539 -2.105,1.827 -2.25,-0.049 -2.394,-1.926 -0.445,-3.944 0.285,-3.561 1.016,-3.177 0.687,-1.364 0,0" /></g><g
           transform="translate(36.6533,194.8945)"
           id="g112"><path
             id="path114"
             style="fill:#754836;fill-opacity:1;fill-rule:nonzero;stroke:none"
             d="M 0,0 C 0,0 -8.238,-2.209 2.411,-12.436 Z" /></g><g
           transform="translate(110.2539,151.0957)"
           id="g116"><path
             id="path118"
             style="fill:#eea886;fill-opacity:1;fill-rule:nonzero;stroke:none"
             d="m 0,0 -8.395,0.077 c 0.725,0.422 1.896,1.18 1.637,1.526 -0.37,0.492 -2.747,-0.589 -3.713,-0.688 -0.885,-0.091 -2.371,0.023 -3.498,-0.388 l -2.651,-1.13 2.431,-2.249 c 0,0 4.39,-0.629 5.675,-0.719 2.09,-0.148 8.485,2.342 8.59,2.719 C 0.268,-0.171 0,0 0,0" /></g><g
           transform="translate(61.1484,172.1191)"
           id="g120"><path
             id="path122"
             style="fill:#ff7e55;fill-opacity:1;fill-rule:nonzero;stroke:none"
             d="m 0,0 c -5.34,0.938 -10.959,2.285 -10.959,2.285 l -9.943,0.406 c 0,0 -9.125,-2.008 -12.719,-3.632 -0.342,-0.155 -0.342,-8.142 -1.278,-10.236 l 2.979,-6.286 c 0,0 1.722,-12.452 2.078,-17.989 0.164,-2.543 -3.549,-23.84 -3.549,-23.84 0,0 3.979,-1.171 10.766,-1.919 6.785,-0.748 23.741,0.271 23.848,1.071 0.107,0.802 -3.284,29.845 -3.434,31.349 -0.23,2.309 0.666,12.975 0.666,12.975 1.279,-1.717 8.672,-8.16 12.28,-10.206 2.568,-1.457 8.865,-0.567 10.719,-0.378 4.015,0.411 15.105,1.204 15.321,1.598 0.173,0.237 -0.637,4.281 -1.101,4.435 -0.406,0.136 -14.723,0.843 -18.314,0.657 -1.457,-0.077 -6.21,5.231 -6.21,5.231 0,0 -8.205,13.156 -11.15,14.479" /></g><g
           transform="translate(0,212.3115)"
           id="g124"><path
             id="path126"
             style="fill:#ffcb55;fill-opacity:1;fill-rule:nonzero;stroke:none"
             d="m 0,0 h 26.282 v -19.049 -4.012 l -4.012,4.012 H 0 Z" /></g></g></g><g
       id="g128"><g
         clip-path="url(#clipPath134)"
         id="g130"><g
           id="g136"><g
             id="g138"><path
               id="path146"
               style="fill:url(#linearGradient144);stroke:none"
               d="M 235.156,119.176 H 99.996 L 70.414,8.609 H 236.043 399.9 l -29.582,110.567 z" /></g></g></g></g><g
       id="g148"><g
         clip-path="url(#clipPath154)"
         id="g150"><g
           transform="translate(110.2226,99.7774)"
           id="g156"><path
             id="path158"
             style="fill:#ffffff;fill-opacity:1;fill-rule:nonzero;stroke:none"
             d="m 0,0 h 16.608 c 0.695,0 1.218,-0.54 1.088,-1.122 L 16.088,-8.347 C 15.988,-8.792 15.531,-9.114 15,-9.114 H -1.893 c -0.709,0 -1.236,0.56 -1.081,1.151 l 1.893,7.224 C -0.969,-0.308 -0.52,0 0,0" /></g><g
           transform="translate(134.4472,99.7774)"
           id="g160"><path
             id="path162"
             style="fill:#ffffff;fill-opacity:1;fill-rule:nonzero;stroke:none"
             d="m 0,0 h 12.555 l -1.67,-9.114 H -1.91 Z" /></g><g
           transform="translate(153.2812,99.7774)"
           id="g164"><path
             id="path166"
             style="fill:#ffffff;fill-opacity:1;fill-rule:nonzero;stroke:none"
             d="M 0,0 H 12.555 L 11.242,-9.114 -1.555,-9.127 Z" /></g><g
           transform="translate(172.1142,99.7774)"
           id="g168"><path
             id="path170"
             style="fill:#ffffff;fill-opacity:1;fill-rule:nonzero;stroke:none"
             d="M 0,0 H 12.556 L 11.601,-9.114 H -1.194 Z" /></g><g
           transform="translate(190.9482,99.7774)"
           id="g172"><path
             id="path174"
             style="fill:#ffffff;fill-opacity:1;fill-rule:nonzero;stroke:none"
             d="M 0,0 H 12.556 L 11.958,-9.114 H -0.836 Z" /></g><g
           transform="translate(209.7812,99.7774)"
           id="g176"><path
             id="path178"
             style="fill:#ffffff;fill-opacity:1;fill-rule:nonzero;stroke:none"
             d="M 0,0 H 12.557 L 12.318,-9.114 -0.478,-9.127 Z" /></g><g
           transform="translate(360.4941,99.7774)"
           id="g180"><path
             id="path182"
             style="fill:#ffffff;fill-opacity:1;fill-rule:nonzero;stroke:none"
             d="m 0,0 h -18.834 l 2.029,-9.114 H 2.387 Z" /></g><g
           transform="translate(335.3818,99.7774)"
           id="g184"><path
             id="path186"
             style="fill:#ffffff;fill-opacity:1;fill-rule:nonzero;stroke:none"
             d="m 0,0 h -12.556 l 1.672,-9.114 H 1.91 Z" /></g><g
           transform="translate(316.5488,99.7774)"
           id="g188"><path
             id="path190"
             style="fill:#ffffff;fill-opacity:1;fill-rule:nonzero;stroke:none"
             d="m 0,0 h -12.557 l 1.313,-9.114 12.797,-0.013 z" /></g><g
           transform="translate(297.7148,99.7774)"
           id="g192"><path
             id="path194"
             style="fill:#ffffff;fill-opacity:1;fill-rule:nonzero;stroke:none"
             d="m 0,0 h -12.557 l 0.955,-9.114 H 1.193 Z" /></g><g
           transform="translate(278.8808,99.7774)"
           id="g196"><path
             id="path198"
             style="fill:#ffffff;fill-opacity:1;fill-rule:nonzero;stroke:none"
             d="m 0,0 h -12.557 l 0.598,-9.114 H 0.835 Z" /></g><g
           transform="translate(260.0468,99.7774)"
           id="g200"><path
             id="path202"
             style="fill:#ffffff;fill-opacity:1;fill-rule:nonzero;stroke:none"
             d="m 0,0 h -12.557 l 0.241,-9.114 12.795,-0.013 z" /></g><g
           transform="translate(228.6152,99.7774)"
           id="g204"><path
             id="path206"
             style="fill:#ffffff;fill-opacity:1;fill-rule:nonzero;stroke:none"
             d="m 0,0 h 12.557 l 0.207,-9.114 H 0 Z" /></g><g
           transform="translate(104.6982,83.8721)"
           id="g208"><path
             id="path210"
             style="fill:#ffffff;fill-opacity:1;fill-rule:nonzero;stroke:none"
             d="M 0,0 H 26.237 L 24.742,-9.402 H -1.992 Z" /></g><g
           transform="translate(364.5898,83.8721)"
           id="g212"><path
             id="path214"
             style="fill:#ffffff;fill-opacity:1;fill-rule:nonzero;stroke:none"
             d="m 0,0 h -32.432 l 1.848,-9.402 H 2.463 Z" /></g><g
           transform="translate(325.6718,83.8721)"
           id="g216"><path
             id="path218"
             style="fill:#ffffff;fill-opacity:1;fill-rule:nonzero;stroke:none"
             d="m 0,0 h -12.972 l 1.478,-9.402 H 1.725 Z" /></g><g
           transform="translate(306.2138,83.8721)"
           id="g220"><path
             id="path222"
             style="fill:#ffffff;fill-opacity:1;fill-rule:nonzero;stroke:none"
             d="m 0,0 h -12.973 l 1.109,-9.402 H 1.354 Z" /></g><g
           transform="translate(286.7558,83.8721)"
           id="g224"><path
             id="path226"
             style="fill:#ffffff;fill-opacity:1;fill-rule:nonzero;stroke:none"
             d="m 0,0 h -12.973 l 0.739,-9.402 H 0.984 Z" /></g><g
           transform="translate(267.2968,83.8721)"
           id="g228"><path
             id="path230"
             style="fill:#ffffff;fill-opacity:1;fill-rule:nonzero;stroke:none"
             d="m 0,0 h -12.973 l 0.369,-9.402 H 0.615 Z" /></g><g
           transform="translate(100.7793,67.1123)"
           id="g232"><path
             id="path234"
             style="fill:#ffffff;fill-opacity:1;fill-rule:nonzero;stroke:none"
             d="M 0,0 H 26.822 L 24.865,-9.339 H -2.447 Z" /></g><g
           transform="translate(134.3076,67.1123)"
           id="g236"><path
             id="path238"
             style="fill:#ffffff;fill-opacity:1;fill-rule:nonzero;stroke:none"
             d="m 0,0 h 13.411 l -1.59,-9.339 H -1.835 Z" /></g><g
           transform="translate(154.4248,67.1123)"
           id="g240"><path
             id="path242"
             style="fill:#ffffff;fill-opacity:1;fill-rule:nonzero;stroke:none"
             d="m 0,0 h 13.411 87.167 l 0.374,-9.339 H -1.468 Z" /></g><g
           transform="translate(261.7168,67.1123)"
           id="g244"><path
             id="path246"
             style="fill:#ffffff;fill-opacity:1;fill-rule:nonzero;stroke:none"
             d="m 0,0 h 13.41 l 0.735,-9.339 H 0.488 Z" /></g><g
           transform="translate(281.834,67.1123)"
           id="g248"><path
             id="path250"
             style="fill:#ffffff;fill-opacity:1;fill-rule:nonzero;stroke:none"
             d="m 0,0 h 13.411 l 1.101,-9.339 H 0.855 Z" /></g><g
           transform="translate(301.9511,67.1123)"
           id="g252"><path
             id="path254"
             style="fill:#ffffff;fill-opacity:1;fill-rule:nonzero;stroke:none"
             d="m 0,0 h 13.41 l 1.469,-9.339 H 1.223 Z" /></g><g
           transform="translate(322.0683,67.1123)"
           id="g256"><path
             id="path258"
             style="fill:#ffffff;fill-opacity:1;fill-rule:nonzero;stroke:none"
             d="m 0,0 h 13.411 l 1.835,-9.339 H 1.59 Z" /></g><g
           transform="translate(342.1855,67.1123)"
           id="g260"><path
             id="path262"
             style="fill:#ffffff;fill-opacity:1;fill-rule:nonzero;stroke:none"
             d="m 0,0 h 26.822 l 2.447,-9.339 H 1.957 Z" /></g><g
           transform="translate(247.8652,83.8721)"
           id="g264"><path
             id="path266"
             style="fill:#ffffff;fill-opacity:1;fill-rule:nonzero;stroke:none"
             d="M 0,0 H -12.867 V -9.402 H 0.247 Z" /></g><g
           transform="translate(228.4072,83.8721)"
           id="g268"><path
             id="path270"
             style="fill:#ffffff;fill-opacity:1;fill-rule:nonzero;stroke:none"
             d="m 0,0 h -12.973 l -0.37,-9.402 h 13.219 z" /></g><g
           transform="translate(208.9482,83.8721)"
           id="g272"><path
             id="path274"
             style="fill:#ffffff;fill-opacity:1;fill-rule:nonzero;stroke:none"
             d="m 0,0 h -12.972 l -0.739,-9.402 h 13.219 z" /></g><g
           transform="translate(189.4902,83.8721)"
           id="g276"><path
             id="path278"
             style="fill:#ffffff;fill-opacity:1;fill-rule:nonzero;stroke:none"
             d="m 0,0 h -12.973 l -1.109,-9.402 h 13.22 z" /></g><g
           transform="translate(170.0312,83.8721)"
           id="g280"><path
             id="path282"
             style="fill:#ffffff;fill-opacity:1;fill-rule:nonzero;stroke:none"
             d="m 0,0 h -12.973 l -1.478,-9.402 h 13.219 z" /></g><g
           transform="translate(150.5722,83.8721)"
           id="g284"><path
             id="path286"
             style="fill:#ffffff;fill-opacity:1;fill-rule:nonzero;stroke:none"
             d="m 0,0 h -12.973 l -1.846,-9.402 h 13.218 z" /></g><g
           transform="translate(110.8359,105.5049)"
           id="g288"><path
             id="path290"
             style="fill:#ffffff;fill-opacity:1;fill-rule:nonzero;stroke:none"
             d="M 0,0 2.131,8.138 H 8.228 L 6.238,0 Z" /></g><g
           transform="translate(125.1601,113.6426)"
           id="g292"><path
             id="path294"
             style="fill:#ffffff;fill-opacity:1;fill-rule:nonzero;stroke:none"
             d="M 0,0 H 12.191 L 10.486,-8.138 H -1.919 Z" /></g><g
           transform="translate(143.4492,113.6426)"
           id="g296"><path
             id="path298"
             style="fill:#ffffff;fill-opacity:1;fill-rule:nonzero;stroke:none"
             d="M 0,0 H 12.191 L 10.807,-8.138 H -1.6 Z" /></g><g
           transform="translate(161.7383,113.6426)"
           id="g300"><path
             id="path302"
             style="fill:#ffffff;fill-opacity:1;fill-rule:nonzero;stroke:none"
             d="M 0,0 H 12.191 L 11.126,-8.138 H -1.279 Z" /></g><g
           transform="translate(180.0263,113.6426)"
           id="g304"><path
             id="path306"
             style="fill:#ffffff;fill-opacity:1;fill-rule:nonzero;stroke:none"
             d="M 0,0 H 12.192 L 11.446,-8.138 H -0.959 Z" /></g><g
           transform="translate(198.3154,113.6426)"
           id="g308"><path
             id="path310"
             style="fill:#ffffff;fill-opacity:1;fill-rule:nonzero;stroke:none"
             d="M 0,0 H 12.192 L 11.767,-8.138 H -0.64 Z" /></g><g
           transform="translate(216.6045,113.6426)"
           id="g312"><path
             id="path314"
             style="fill:#ffffff;fill-opacity:1;fill-rule:nonzero;stroke:none"
             d="M 0,0 H 12.192 L 12.086,-8.138 H -0.319 Z" /></g><g
           transform="translate(234.8925,113.6426)"
           id="g316"><path
             id="path318"
             style="fill:#ffffff;fill-opacity:1;fill-rule:nonzero;stroke:none"
             d="m 0,0 h 12.193 l 0.213,-8.138 H 0 Z" /></g><g
           transform="translate(253.1816,113.6426)"
           id="g320"><path
             id="path322"
             style="fill:#ffffff;fill-opacity:1;fill-rule:nonzero;stroke:none"
             d="m 0,0 h 12.193 l 0.534,-8.138 H 0.32 Z" /></g><g
           transform="translate(271.4707,113.6426)"
           id="g324"><path
             id="path326"
             style="fill:#ffffff;fill-opacity:1;fill-rule:nonzero;stroke:none"
             d="m 0,0 h 12.193 l 0.853,-8.138 H 0.641 Z" /></g><g
           transform="translate(289.7597,113.6426)"
           id="g328"><path
             id="path330"
             style="fill:#ffffff;fill-opacity:1;fill-rule:nonzero;stroke:none"
             d="m 0,0 h 12.193 l 1.172,-8.138 H 0.959 Z" /></g><g
           transform="translate(308.0488,113.6426)"
           id="g332"><path
             id="path334"
             style="fill:#ffffff;fill-opacity:1;fill-rule:nonzero;stroke:none"
             d="m 0,0 h 12.193 l 1.493,-8.138 H 1.279 Z" /></g><g
           transform="translate(326.3379,113.6426)"
           id="g336"><path
             id="path338"
             style="fill:#ffffff;fill-opacity:1;fill-rule:nonzero;stroke:none"
             d="m 0,0 h 12.192 l 1.813,-8.138 H 1.6 Z" /></g><g
           transform="translate(344.6269,113.6426)"
           id="g340"><path
             id="path342"
             style="fill:#ffffff;fill-opacity:1;fill-rule:nonzero;stroke:none"
             d="m 0,0 h 12.192 l 2.132,-8.138 H 1.918 Z" /></g></g></g><g
       id="g344"><g
         clip-path="url(#clipPath350)"
         id="g346"><g
           id="g352"><g
             id="g354"><path
               id="path362"
               style="fill:url(#linearGradient360);stroke:none"
               d="M 70.414,8.609 C 70.414,3.855 74.267,0 79.022,0 v 0 h 312.269 c 4.754,0 8.609,3.855 8.609,8.609 v 0 z" /></g></g></g></g><g
       id="g364"><g
         clip-path="url(#clipPath370)"
         id="g366"><g
           transform="translate(273.459,44.3369)"
           id="g372"><path
             id="path374"
             style="fill:#4d78eb;fill-opacity:1;fill-rule:nonzero;stroke:none"
             d="M 0,0 C -0.322,1.947 -2.005,3.374 -3.979,3.374 H -38.303 -72.627 C -74.6,3.374 -76.282,1.947 -76.604,0 l -4.289,-25.952 c -0.406,-2.456 1.489,-4.689 3.977,-4.689 h 38.613 38.614 c 2.489,0 4.383,2.233 3.978,4.689 z" /></g><path
           id="path376"
           style="fill:#e0e0e0;fill-opacity:1;fill-rule:nonzero;stroke:none"
           d="m 154.34,264.817 h -27.943 v 2.861 h 27.943 z" /><path
           id="path378"
           style="fill:#e0e0e0;fill-opacity:1;fill-rule:nonzero;stroke:none"
           d="M 182.335,243.274 H 162.16 v 2.861 h 20.175 z" /><path
           id="path380"
           style="fill:#1487e3;fill-opacity:1;fill-rule:nonzero;stroke:none"
           d="m 198.865,243.274 h -13.388 v 2.861 h 13.388 z" /><path
           id="path382"
           style="fill:#1487e3;fill-opacity:1;fill-rule:nonzero;stroke:none"
           d="m 140.102,189.096 h -13.388 v 2.861 h 13.388 z" /><path
           id="path384"
           style="fill:#e0e0e0;fill-opacity:1;fill-rule:nonzero;stroke:none"
           d="m 233.836,243.274 h -32.324 v 2.861 h 32.324 z" /><path
           id="path386"
           style="fill:#e0e0e0;fill-opacity:1;fill-rule:nonzero;stroke:none"
           d="m 147.484,199.947 h -20.771 v 2.861 h 20.771 z" /><path
           id="path388"
           style="fill:#e0e0e0;fill-opacity:1;fill-rule:nonzero;stroke:none"
           d="m 168.348,178.324 h -12.68 v 2.86 h 12.68 z" /><path
           id="path390"
           style="fill:#1487e3;fill-opacity:1;fill-rule:nonzero;stroke:none"
           d="m 151.836,178.324 h -25.122 v 2.86 h 25.122 z" /><path
           id="path392"
           style="fill:#e0e0e0;fill-opacity:1;fill-rule:nonzero;stroke:none"
           d="m 140.57,167.552 h -13.856 v 2.861 h 13.856 z" /><path
           id="path394"
           style="fill:#78c2ff;fill-opacity:1;fill-rule:nonzero;stroke:none"
           d="m 179.612,264.817 h -19.837 v 2.861 h 19.837 z" /><path
           id="path396"
           style="fill:#1487e3;fill-opacity:1;fill-rule:nonzero;stroke:none"
           d="m 179.612,232.501 h -19.837 v 2.861 h 19.837 z" /><path
           id="path398"
           style="fill:#e0e0e0;fill-opacity:1;fill-rule:nonzero;stroke:none"
           d="m 158.333,221.729 h -8.476 v 2.861 h 8.476 z" /><path
           id="path400"
           style="fill:#78c2ff;fill-opacity:1;fill-rule:nonzero;stroke:none"
           d="m 160.42,210.799 h -19.038 v 2.861 h 19.038 z" /><path
           id="path402"
           style="fill:#1487e3;fill-opacity:1;fill-rule:nonzero;stroke:none"
           d="m 189.578,210.799 h -26.281 v 2.861 h 26.281 z" /><path
           id="path404"
           style="fill:#1487e3;fill-opacity:1;fill-rule:nonzero;stroke:none"
           d="m 146.551,221.65 h -19.837 v 2.861 h 19.837 z" /><path
           id="path406"
           style="fill:#1487e3;fill-opacity:1;fill-rule:nonzero;stroke:none"
           d="m 138.484,210.799 h -11.771 v 2.861 h 11.771 z" /><path
           id="path408"
           style="fill:#ff8761;fill-opacity:1;fill-rule:nonzero;stroke:none"
           d="M 173.434,221.65 H 162.33 v 2.861 h 11.104 z" /><path
           id="path410"
           style="fill:#ff8761;fill-opacity:1;fill-rule:nonzero;stroke:none"
           d="m 138.15,156.78 h -11.104 v 2.86 h 11.104 z" /><path
           id="path412"
           style="fill:#78c2ff;fill-opacity:1;fill-rule:nonzero;stroke:none"
           d="m 146.471,243.274 h -19.836 v 2.861 h 19.836 z" /><path
           id="path414"
           style="fill:#78c2ff;fill-opacity:1;fill-rule:nonzero;stroke:none"
           d="m 164.014,189.096 h -19.837 v 2.861 h 19.837 z" /><path
           id="path416"
           style="fill:#78c2ff;fill-opacity:1;fill-rule:nonzero;stroke:none"
           d="m 164.258,167.552 h -19.836 v 2.861 h 19.836 z" /><path
           id="path418"
           style="fill:#78c2ff;fill-opacity:1;fill-rule:nonzero;stroke:none"
           d="M 199.496,167.552 H 179.66 v 2.861 h 19.836 z" /><path
           id="path420"
           style="fill:#78c2ff;fill-opacity:1;fill-rule:nonzero;stroke:none"
           d="m 154.912,232.501 h -28.277 v 2.861 h 28.277 z" /><path
           id="path422"
           style="fill:#78c2ff;fill-opacity:1;fill-rule:nonzero;stroke:none"
           d="m 278.978,264.817 h -19.836 v 2.861 h 19.836 z" /><path
           id="path424"
           style="fill:#78c2ff;fill-opacity:1;fill-rule:nonzero;stroke:none"
           d="m 208.313,156.78 h -19.837 v 2.86 h 19.837 z" /><path
           id="path426"
           style="fill:#78c2ff;fill-opacity:1;fill-rule:nonzero;stroke:none"
           d="m 298.43,264.817 h -13.279 v 2.861 h 13.279 z" /><path
           id="path428"
           style="fill:#78c2ff;fill-opacity:1;fill-rule:nonzero;stroke:none"
           d="m 343.354,254.046 h -13.278 v 2.861 h 13.278 z" /><path
           id="path430"
           style="fill:#1487e3;fill-opacity:1;fill-rule:nonzero;stroke:none"
           d="m 210.227,264.817 h -25.273 v 2.861 h 25.273 z" /><path
           id="path432"
           style="fill:#1487e3;fill-opacity:1;fill-rule:nonzero;stroke:none"
           d="m 308.696,254.046 h -25.272 v 2.861 h 25.272 z" /><path
           id="path434"
           style="fill:#1487e3;fill-opacity:1;fill-rule:nonzero;stroke:none"
           d="m 277.701,243.274 h -25.273 v 2.861 h 25.273 z" /><path
           id="path436"
           style="fill:#1487e3;fill-opacity:1;fill-rule:nonzero;stroke:none"
           d="m 244.797,232.501 h -25.272 v 2.861 h 25.272 z" /><path
           id="path438"
           style="fill:#78c2ff;fill-opacity:1;fill-rule:nonzero;stroke:none"
           d="m 298.847,243.274 h -17.966 v 2.861 h 17.966 z" /><path
           id="path440"
           style="fill:#ff8761;fill-opacity:1;fill-rule:nonzero;stroke:none"
           d="m 254.19,264.817 h -25.272 v 2.861 h 25.272 z" /><path
           id="path442"
           style="fill:#ff8761;fill-opacity:1;fill-rule:nonzero;stroke:none"
           d="M 214.898,232.501 H 200.08 v 2.861 h 14.818 z" /><path
           id="path444"
           style="fill:#ff8761;fill-opacity:1;fill-rule:nonzero;stroke:none"
           d="m 203.295,188.937 h -14.818 v 2.861 h 14.818 z" /><path
           id="path446"
           style="fill:#e0e0e0;fill-opacity:1;fill-rule:nonzero;stroke:none"
           d="m 224.15,264.817 h -9.252 v 2.861 h 9.252 z" /><path
           id="path448"
           style="fill:#e0e0e0;fill-opacity:1;fill-rule:nonzero;stroke:none"
           d="m 194.203,232.501 h -9.25 v 2.861 h 9.25 z" /><path
           id="path450"
           style="fill:#e0e0e0;fill-opacity:1;fill-rule:nonzero;stroke:none"
           d="m 324.043,254.046 h -9.252 v 2.861 h 9.252 z" /><path
           id="path452"
           style="fill:#1487e3;fill-opacity:1;fill-rule:nonzero;stroke:none"
           d="m 140.869,254.046 h -14.473 v 2.861 h 14.473 z" /><path
           id="path454"
           style="fill:#1487e3;fill-opacity:1;fill-rule:nonzero;stroke:none"
           d="m 176.437,199.868 h -11.426 v 2.861 h 11.426 z" /><path
           id="path456"
           style="fill:#1487e3;fill-opacity:1;fill-rule:nonzero;stroke:none"
           d="m 149.094,254.046 h -4.672 v 2.861 h 4.672 z" /><path
           id="path458"
           style="fill:#e0e0e0;fill-opacity:1;fill-rule:nonzero;stroke:none"
           d="m 278.978,254.046 h -38.624 v 2.861 h 38.624 z" /><path
           id="path460"
           style="fill:#e0e0e0;fill-opacity:1;fill-rule:nonzero;stroke:none"
           d="m 241.92,167.552 h -38.625 v 2.861 h 38.625 z" /><path
           id="path462"
           style="fill:#ff8761;fill-opacity:1;fill-rule:nonzero;stroke:none"
           d="m 157.296,254.046 h -4.768 v 2.861 h 4.768 z" /><path
           id="path464"
           style="fill:#1487e3;fill-opacity:1;fill-rule:nonzero;stroke:none"
           d="M 236.786,254.046 H 224.15 v 2.861 h 12.636 z" /><path
           id="path466"
           style="fill:#ff8761;fill-opacity:1;fill-rule:nonzero;stroke:none"
           d="m 249.423,243.274 h -12.637 v 2.861 h 12.637 z" /><path
           id="path468"
           style="fill:#ff8761;fill-opacity:1;fill-rule:nonzero;stroke:none"
           d="m 184.445,156.78 h -12.637 v 2.86 h 12.637 z" /><path
           id="path470"
           style="fill:#1487e3;fill-opacity:1;fill-rule:nonzero;stroke:none"
           d="m 220.805,254.046 h -26.887 v 2.861 h 26.887 z" /><path
           id="path472"
           style="fill:#1487e3;fill-opacity:1;fill-rule:nonzero;stroke:none"
           d="m 184.6,188.937 h -15.708 v 2.861 H 184.6 Z" /><path
           id="path474"
           style="fill:#1487e3;fill-opacity:1;fill-rule:nonzero;stroke:none"
           d="m 175.736,167.552 h -7.855 v 2.861 h 7.855 z" /><path
           id="path476"
           style="fill:#78c2ff;fill-opacity:1;fill-rule:nonzero;stroke:none"
           d="m 190.103,254.046 h -9.252 v 2.861 h 9.252 z" /><path
           id="path478"
           style="fill:#ff8761;fill-opacity:1;fill-rule:nonzero;stroke:none"
           d="m 158.965,243.274 h -9.25 v 2.861 h 9.25 z" /><path
           id="path480"
           style="fill:#ff8761;fill-opacity:1;fill-rule:nonzero;stroke:none"
           d="m 160.809,199.868 h -9.25 v 2.861 h 9.25 z" /><path
           id="path482"
           style="fill:#1487e3;fill-opacity:1;fill-rule:nonzero;stroke:none"
           d="m 177.324,254.046 h -16.118 v 2.861 h 16.118 z" /><g
           id="g484"><g
             id="g486" /><g
             id="g498"><g
               style="opacity:0.75999499"
               id="g496"
               clip-path="url(#clipPath490)"><g
                 id="g494"
                 transform="translate(397.207,142.7275)"><path
                   id="path492"
                   style="fill:#ffffff;fill-opacity:1;fill-rule:nonzero;stroke:none"
                   d="m 0,0 h -116.884 c -2.217,0 -4.013,1.798 -4.013,4.015 v 81.026 c 0,2.217 1.796,4.014 4.013,4.014 L 0,89.055 c 2.217,0 4.015,-1.797 4.015,-4.014 V 4.015 C 4.015,1.798 2.217,0 0,0" /></g></g></g></g><g
           transform="translate(387.7324,179.7627)"
           id="g500"><path
             id="path502"
             style="fill:#4aafff;fill-opacity:1;fill-rule:nonzero;stroke:none"
             d="m 0,0 h -20.125 c -0.852,0 -1.541,0.689 -1.541,1.539 v 3.108 c 0,0.851 0.689,1.54 1.541,1.54 H 0 c 0.852,0 1.541,-0.689 1.541,-1.54 V 1.539 C 1.541,0.689 0.852,0 0,0" /></g><g
           transform="translate(387.7324,168.1768)"
           id="g504"><path
             id="path506"
             style="fill:#4aafff;fill-opacity:1;fill-rule:nonzero;stroke:none"
             d="m 0,0 h -20.125 c -0.852,0 -1.541,0.688 -1.541,1.539 v 3.108 c 0,0.851 0.689,1.54 1.541,1.54 H 0 c 0.852,0 1.541,-0.689 1.541,-1.54 V 1.539 C 1.541,0.688 0.852,0 0,0" /></g><g
           transform="translate(387.7324,156.5898)"
           id="g508"><path
             id="path510"
             style="fill:#4aafff;fill-opacity:1;fill-rule:nonzero;stroke:none"
             d="m 0,0 h -20.125 c -0.852,0 -1.541,0.689 -1.541,1.54 v 3.107 c 0,0.852 0.689,1.541 1.541,1.541 L 0,6.188 c 0.852,0 1.541,-0.689 1.541,-1.541 V 1.54 C 1.541,0.689 0.852,0 0,0" /></g><g
           transform="translate(331.0879,163.8027)"
           id="g512"><path
             id="path514"
             style="fill:#4aafff;fill-opacity:1;fill-rule:nonzero;stroke:none"
             d="m 0,0 c -10.413,-3.725 -21.637,-0.363 -28.401,7.589 -1.613,1.894 -2.972,4.051 -4.006,6.435 -0.229,0.526 -0.442,1.065 -0.638,1.612 -1.968,5.503 -1.957,11.232 -0.336,16.408 2.339,7.473 8.031,13.797 15.971,16.636 2.621,0.938 5.293,1.425 7.931,1.506 10.9,0.329 21.243,-6.319 25.114,-17.14 C 20.443,19.603 13.442,4.808 0,0 M 23.759,35.95 C 18.597,50.384 4.803,59.249 -9.736,58.812 c -3.52,-0.106 -7.082,-0.757 -10.578,-2.007 -10.59,-3.788 -18.184,-12.223 -21.304,-22.189 -2.162,-6.906 -2.176,-14.547 0.449,-21.887 0.261,-0.73 0.544,-1.447 0.849,-2.149 1.381,-3.179 3.193,-6.055 5.344,-8.582 9.023,-10.607 23.994,-15.09 37.882,-10.124 17.93,6.414 27.266,26.147 20.853,44.076" /></g><g
           transform="translate(297.707,195.8467)"
           id="g516"><path
             id="path518"
             style="fill:#1a598c;fill-opacity:1;fill-rule:nonzero;stroke:none"
             d="m 0,0 -8.237,2.572 c 3.12,9.966 10.714,18.401 21.303,22.189 3.496,1.25 7.059,1.901 10.579,2.007 l 0.257,-8.626 C 21.264,18.061 18.592,17.574 15.971,16.636 8.031,13.797 2.339,7.473 0,0" /></g><g
           transform="translate(298.6806,177.8271)"
           id="g520"><path
             id="path522"
             style="fill:#2273b5;fill-opacity:1;fill-rule:nonzero;stroke:none"
             d="m 0,0 -7.913,-3.444 c -0.305,0.702 -0.588,1.419 -0.849,2.149 -2.625,7.34 -2.611,14.981 -0.449,21.887 L -0.974,18.02 C -2.595,12.844 -2.605,7.114 -0.638,1.611 -0.441,1.064 -0.229,0.525 0,0" /></g><g
           transform="translate(296.1123,165.8008)"
           id="g524"><path
             id="path526"
             style="fill:#3788cc;fill-opacity:1;fill-rule:nonzero;stroke:none"
             d="m 0,0 c -2.151,2.527 -3.964,5.403 -5.345,8.582 l 7.913,3.444 C 3.603,9.642 4.962,7.485 6.574,5.591 Z" /></g><g
           transform="translate(333.8925,167.6934)"
           id="g528"><path
             id="path530"
             style="fill:#eea886;fill-opacity:1;fill-rule:nonzero;stroke:none"
             d="m 0,0 c 0,0 -1.67,2.923 0.979,10.756 2.56,7.575 11.428,6.889 14.246,2.035 C 18.043,7.938 17.092,4.923 12.942,-0.556 8.793,-6.036 1.722,-2.505 0,0" /></g><g
           transform="translate(354.4883,32.9307)"
           id="g532"><path
             id="path534"
             style="fill:#eea886;fill-opacity:1;fill-rule:nonzero;stroke:none"
             d="m 0,0 c 0,0 0.438,-3.217 0.494,-3.701 0.054,-0.483 4.881,0.285 4.881,0.285 l 0.391,3.83 C 5.766,0.414 0.604,0.453 0,0" /></g><g
           transform="translate(354.9297,29.6387)"
           id="g536"><path
             id="path538"
             style="fill:#414773;fill-opacity:1;fill-rule:nonzero;stroke:none"
             d="m 0,0 c 0,0 -1.529,-1.938 -3.008,-2.782 -1.478,-0.846 -3.803,-1.18 -4.678,-2.055 -0.63,-0.631 -2.298,-3.35 3.844,-3.294 6.143,0.054 9.104,-0.385 9.762,0.657 C 6.578,-6.431 4.969,0.218 4.969,0.218 4.969,0.218 3.465,-0.206 0,0" /></g><g
           transform="translate(321.0703,32.9307)"
           id="g540"><path
             id="path542"
             style="fill:#eea886;fill-opacity:1;fill-rule:nonzero;stroke:none"
             d="m 0,0 c 0,0 0.439,-3.217 0.494,-3.701 0.055,-0.483 4.881,0.285 4.881,0.285 l 0.391,3.83 C 5.766,0.414 0.604,0.453 0,0" /></g><g
           transform="translate(321.5136,29.6387)"
           id="g544"><path
             id="path546"
             style="fill:#414773;fill-opacity:1;fill-rule:nonzero;stroke:none"
             d="m 0,0 c 0,0 -1.529,-1.938 -3.009,-2.782 -1.478,-0.846 -6.922,-1.539 -7.796,-2.414 -0.632,-0.632 -1.681,-3.173 6.961,-2.935 6.141,0.169 9.105,-0.385 9.763,0.657 C 6.577,-6.431 4.967,0.218 4.967,0.218 4.967,0.218 3.059,-0.121 0,0" /></g><g
           transform="translate(352.8633,113.0283)"
           id="g548"><path
             id="path550"
             style="fill:#2d314f;fill-opacity:1;fill-rule:nonzero;stroke:none"
             d="m 0,0 c 0,0 2.475,-7.689 2.148,-14.316 -0.326,-6.627 1.28,-13.879 1.936,-20.802 0.732,-7.717 3.727,-25.987 3.834,-30.116 0.109,-4.127 -0.464,-17.311 -0.464,-17.311 L 1.46,-82.688 c 0,0 -5.033,31.94 -6.337,35.199 -1.304,3.259 -7.769,26.494 -7.986,29.101 C -13.08,-15.78 0,0 0,0" /></g><g
           transform="translate(328.0136,113.8291)"
           id="g552"><path
             id="path554"
             style="fill:#2d314f;fill-opacity:1;fill-rule:nonzero;stroke:none"
             d="m 0,0 c 0,0 -3.639,-20.332 -4.074,-24.389 -0.434,-4.055 -0.725,-19.628 -0.942,-22.163 -0.216,-2.534 -1.448,-33.172 -2.607,-36.937 h 6.684 c 0,0 6.861,22.271 6.861,32.809 0,10.538 4.543,22.909 7.476,29.862 2.934,6.953 9.648,7.117 11.452,20.017 0,0 -22.41,4.892 -24.85,0.801" /></g><g
           transform="translate(336.3164,165.626)"
           id="g556"><path
             id="path558"
             style="fill:#eea886;fill-opacity:1;fill-rule:nonzero;stroke:none"
             d="m 0,0 c 0,0 0.754,-2.194 0,-3.761 -0.754,-1.564 9.631,-0.626 9.631,-0.626 0,0 -0.47,3.237 0.888,5.899 C 11.875,4.173 0,0 0,0" /></g><g
           transform="translate(353.3447,111.3526)"
           id="g560"><path
             id="path562"
             style="fill:#2b3b57;fill-opacity:1;fill-rule:nonzero;stroke:none"
             d="M 0,0 C 0,0 -3.735,-3.837 -25.666,0.598 L -25.331,2.477 -0.4,1.537 Z" /></g><g
           transform="translate(334.7441,161.3574)"
           id="g564"><path
             id="path566"
             style="fill:#eea886;fill-opacity:1;fill-rule:nonzero;stroke:none"
             d="m 0,0 c 0,0 -3.836,-0.391 -4.932,-0.601 -1.095,-0.208 -8.472,1.321 -9.986,1.477 -1.514,0.156 -7.967,4.577 -8.176,5.1 -0.208,0.521 -3.926,9.933 -4.135,11.968 -0.208,2.037 -3.621,0.986 -3.328,-0.417 0.547,-2.624 1.25,-8.992 1.636,-10.839 0.416,-1.993 1.53,-6.506 2.157,-7.062 0.626,-0.556 6.437,-4.975 12.125,-6.854 5.69,-1.878 9.971,-4.645 9.971,-4.645 h 28.035 c 0,0 10.904,15.587 11.139,17.935 0.234,2.349 -7.616,17.958 -9.182,19.916 -1.566,1.957 -3.83,-0.639 -3.83,-0.639 0,0 4.692,-13.766 5.317,-15.723 0.626,-1.957 -5.457,-10.555 -7.127,-10.582 -1.67,-0.026 -5.957,0.523 -7.863,0.601 -1.905,0.079 -3.915,0.914 -3.915,0.914 z" /></g><g
           transform="translate(322.6621,150.9463)"
           id="g568"><path
             id="path570"
             style="fill:#ffc655;fill-opacity:1;fill-rule:nonzero;stroke:none"
             d="M 0,0 C 0,0 3.433,-2.282 3.746,-6.195 4.059,-10.11 5.312,-16.294 5.937,-18.407 6.564,-20.521 5.39,-35.864 5.232,-36.96 c -0.156,-1.097 21.695,-3.7 25.05,-1.097 0,0 0.94,14.327 1.331,18.397 0.392,4.07 2.27,13.933 2.897,15.264 0.626,1.332 8.219,11.982 8.532,13.386 0,0 -3.929,6.263 -6.746,6.341 0,0 -4.476,-5.245 -5.935,-5.479 -1.46,-0.235 -10.404,1.404 -10.406,1.418 0,0 -0.976,-1.331 -6.166,0.236 0,0 -6.182,-0.697 -7.186,-0.825 -1.218,-0.157 -9.681,1.061 -9.681,1.061 0,0 -3.396,-5.734 -2.801,-8.628 z" /></g><g
           transform="translate(307.7119,178.0791)"
           id="g572"><path
             id="path574"
             style="fill:#eea886;fill-opacity:1;fill-rule:nonzero;stroke:none"
             d="M 0,0 C 0,0 -0.767,3.628 0.157,4.67 0.683,5.263 1.944,6.833 2.06,7.063 2.175,7.294 3.53,8.073 3.53,8.448 3.53,8.823 2.204,9.284 1.051,8.217 -0.103,7.15 -0.823,6.919 -1.284,7.035 c -0.463,0.115 -1.125,3.95 -1.183,4.902 -0.057,0.952 -0.425,3.46 -1.02,3.287 -0.595,-0.173 -0.566,-1.269 -0.566,-1.269 0,0 -0.692,1.904 -1.153,1.528 -0.462,-0.374 -0.404,-1.297 -0.404,-1.297 0,0 -0.866,1.067 -1.096,0.289 -0.231,-0.78 0,-1.471 0,-1.471 0,0 -0.895,0.49 -0.951,-0.721 -0.059,-1.211 0.26,-4.758 0.893,-6.027 C -6.13,4.987 -3.755,1.669 -3.472,0.373 -3.188,-0.924 0,0 0,0" /></g><g
           transform="translate(357.0019,184.4502)"
           id="g576"><path
             id="path578"
             style="fill:#eea886;fill-opacity:1;fill-rule:nonzero;stroke:none"
             d="m 0,0 c 0,0 -2.608,4.385 -3.496,4.776 -0.887,0.392 -2.139,0.614 -3.235,1.397 -1.096,0.782 -2.544,1.434 -2.466,1.695 0.078,0.261 1.37,0.157 2.753,-0.443 1.383,-0.6 1.989,-0.31 2.12,0.003 0.131,0.313 -0.737,2.524 -1.155,3.046 -0.417,0.522 -3.392,3.514 -2.896,3.958 0.496,0.443 2.427,-1.202 2.74,-1.539 0,0 -1.54,3.234 -0.939,3.391 0.599,0.157 1.721,-0.991 1.721,-0.991 0,0 -0.129,2.766 2.845,-1.723 0,0 -0.627,1.488 0.287,0.992 C -0.808,14.066 0.08,11.273 0.367,9.864 0.653,8.456 1.956,3.967 3.066,2.885 4.176,1.802 0,0 0,0" /></g><g
           transform="translate(346.8349,167.1377)"
           id="g580"><path
             id="path582"
             style="fill:#353a3d;fill-opacity:1;fill-rule:nonzero;stroke:none"
             d="m 0,0 c 0,0 -1.374,-0.122 -4.297,0.887 -2.923,1.009 -3.14,6.119 -3.772,5.514 -1.29,-1.235 -2.508,-0.382 -2.995,0.349 0,0 1.426,1.878 0.765,2.783 -0.661,0.905 -1.737,1.565 -1.737,1.565 0,0 2.056,9.907 11.41,5.393 C 10.333,11.202 0,0 0,0" /></g><g
           transform="translate(336.3164,161.8652)"
           id="g584"><path
             id="path586"
             style="fill:#d4d8e8;fill-opacity:1;fill-rule:nonzero;stroke:none"
             d="m 0,0 0.329,1.433 c 0,0 5.971,0.121 9.228,-0.351 L 9.9,-0.63 C 9.9,-0.63 5.729,-2.521 0,0" /></g><g
           transform="translate(337.789,174.792)"
           id="g588"><path
             id="path590"
             style="fill:#eea886;fill-opacity:1;fill-rule:nonzero;stroke:none"
             d="M 0,0 C 0.542,0.9 2.547,1.509 2.783,-1.044 2.966,-3.023 -0.801,-5.185 -0.836,-3.341 -0.87,-1.496 -0.361,-0.6 0,0" /></g><g
           transform="translate(307.5703,178.9023)"
           id="g592"><path
             id="path594"
             style="fill:#e55353;fill-opacity:1;fill-rule:nonzero;stroke:none"
             d="m 0,0 c 0,0 -2.154,-0.052 -3.199,-0.996 0,0 -0.069,-0.6 0.174,-1.071 0,0 1.867,0.871 3.299,1.034 0,0 -0.024,0.783 -0.274,1.033" /></g><g
           transform="translate(305.0302,178.3662)"
           id="g596"><path
             id="path598"
             style="fill:#353a3d;fill-opacity:1;fill-rule:nonzero;stroke:none"
             d="M 0,0 C -0.198,-0.471 0.022,-1.015 0.493,-1.214 0.964,-1.412 1.508,-1.191 1.707,-0.721 1.905,-0.249 1.686,0.294 1.214,0.493 0.743,0.692 0.199,0.471 0,0" /></g><g
           transform="translate(252.1172,254.9238)"
           id="g600"><path
             id="path602"
             style="fill:#6069a8;fill-opacity:1;fill-rule:nonzero;stroke:none"
             d="M 0,0 C 0,0 3.079,-5.22 4.379,-6.072 6.145,-7.229 5.038,-8.4 4.2,-8.401 c -0.838,-10e-4 -5.118,-0.307 -6.061,0.763 -0.944,1.071 -1.41,4.278 -2.288,5.117 -0.877,0.839 -1.783,4.174 0.426,4.984 C -1.768,3.18 0,0 0,0" /></g><g
           transform="translate(250.7841,257.2197)"
           id="g604"><path
             id="path606"
             style="fill:#202338;fill-opacity:1;fill-rule:nonzero;stroke:none"
             d="M 0,0 C 0,0 3.526,-6.113 4.134,-7.016 4.741,-7.919 2.989,-7.917 1.903,-7.489 0.817,-7.06 -1.913,-2.676 -2.306,-1.877 -2.773,-0.924 -2.39,0.167 -2.39,0.167 Z" /></g><g
           transform="translate(247.2109,253.9307)"
           id="g608"><path
             id="path610"
             style="fill:#6069a8;fill-opacity:1;fill-rule:nonzero;stroke:none"
             d="M 0,0 0.814,-6.267 1.246,-6.286 1.111,-1.777 Z" /></g><g
           transform="translate(221.582,254.9238)"
           id="g612"><path
             id="path614"
             style="fill:#6069a8;fill-opacity:1;fill-rule:nonzero;stroke:none"
             d="M 0,0 C 0,0 3.08,-5.22 4.379,-6.072 6.145,-7.229 5.039,-8.4 4.201,-8.401 3.363,-8.402 -0.918,-8.708 -1.86,-7.638 c -0.944,1.071 -1.411,4.278 -2.288,5.117 -0.877,0.839 -1.813,4.26 0.426,4.984 C -1.757,3.099 0,0 0,0" /></g><g
           transform="translate(220.4336,257.207)"
           id="g616"><path
             id="path618"
             style="fill:#202338;fill-opacity:1;fill-rule:nonzero;stroke:none"
             d="M 0,0 C 0,0 3.342,-6.1 3.95,-7.003 4.558,-7.906 2.805,-7.905 1.72,-7.476 0.634,-7.047 -2.098,-2.663 -2.489,-1.864 -2.957,-0.912 -2.573,0.18 -2.573,0.18 Z" /></g><g
           transform="translate(216.6758,253.9307)"
           id="g620"><path
             id="path622"
             style="fill:#6069a8;fill-opacity:1;fill-rule:nonzero;stroke:none"
             d="M 0,0 0.814,-6.267 1.246,-6.286 1.112,-1.777 Z" /></g><g
           transform="translate(207.9209,302.4282)"
           id="g624"><path
             id="path626"
             style="fill:#202338;fill-opacity:1;fill-rule:nonzero;stroke:none"
             d="m 0,0 27.864,-12.696 c 0,0 3.11,-1.012 3.459,-4.465 1.088,-10.779 9.151,-27.881 9.151,-27.881 2.588,-1.264 2.389,-0.166 2.389,-0.166 -1.63,5.233 -3.615,26.803 -4.323,35.475 -0.15,1.837 -0.243,3.095 -0.264,3.497 -0.013,0.274 -0.312,0.632 -0.828,1.049 -3.824,3.101 -19.556,9.52 -19.556,9.52 C 6.079,4.633 0,0 0,0" /></g><g
           transform="translate(202.6689,296.9766)"
           id="g628"><path
             id="path630"
             style="fill:#202338;fill-opacity:1;fill-rule:nonzero;stroke:none"
             d="m 0,0 c 0.862,-7.532 11.614,-6.669 11.614,-6.669 h 13.031 c 0,0 -3.423,-7.617 -4.746,-14.04 -1.402,-6.818 -4.708,-18.881 -4.708,-18.881 0,0 0.216,-0.409 2.574,-0.18 0,0 10.228,20.386 14.144,25.511 0.842,1.103 3.256,7.09 3.672,10.66 0.141,1.202 0.054,2.13 -0.394,2.506 C 34.733,-0.714 33.695,0 32.31,0.874 28.228,3.447 21.14,7.41 17.19,8.297 11.901,9.486 3.536,11.714 3.536,11.714 3.536,11.714 -0.862,7.531 0,0" /></g><g
           transform="translate(211.5371,354.9893)"
           id="g632"><path
             id="path634"
             style="fill:#464240;fill-opacity:1;fill-rule:nonzero;stroke:none"
             d="m 0,0 c 0,0 -1.95,3.703 -1,7.646 0.951,3.943 4.609,7.872 9.967,6.067 5.357,-1.804 9.687,-5.965 6.476,-10.777 -3.212,-4.812 2.907,-6.985 1.347,-9.275 -1.559,-2.29 -0.968,-4.681 -0.308,-5.214 0.661,-0.532 2.789,-2.431 2.555,-4.68 C 18.803,-18.48 8.644,-9.68 8.644,-9.68 8.644,-9.68 3.11,1.437 0,0" /></g><g
           transform="translate(227.8652,307.6646)"
           id="g636"><path
             id="path638"
             style="fill:#eb4747;fill-opacity:1;fill-rule:nonzero;stroke:none"
             d="m 0,0 c 0,0 -0.807,-3.92 -21.617,1.029 0,0 6.975,2.318 21.617,-1.029" /></g><g
           transform="translate(206.0117,307.5942)"
           id="g640"><path
             id="path642"
             style="fill:#325bb3;fill-opacity:1;fill-rule:nonzero;stroke:none"
             d="m 0,0 c -0.323,-0.616 -0.646,-1.232 -0.968,-1.848 7.608,-0.221 15.215,-0.443 22.822,-0.665 -1.203,4.03 -0.813,9.486 -0.602,13.628 0.258,5.059 3.051,8.576 2.754,13.693 1.505,-0.244 1.765,-0.29 3.272,-0.52 -2.305,6.567 -3.094,9.821 -10.255,12.349 -2.332,0.823 -3.863,0.986 -6.386,0.778 C 2.344,36.732 -0.158,36.634 -4.23,29.119 2.146,28.104 1.096,25.814 3.029,19.471 3.973,16.378 4.957,12.926 4.451,9.664 3.953,6.452 0,2.929 0,0" /></g><g
           transform="translate(219.2461,342.6392)"
           id="g644"><path
             id="path646"
             style="fill:#eea886;fill-opacity:1;fill-rule:nonzero;stroke:none"
             d="m 0,0 c -3.395,0.642 -2.672,2.529 -2.672,2.529 0,0 0.157,1.065 0.219,2.412 0.015,0.345 0.024,0.708 0.022,1.077 -10e-4,0.559 -0.028,1.131 -0.092,1.669 -0.279,2.278 6.16,0.919 6.16,0.919 0,0 -0.371,-4.609 0.517,-5.991 C 5.041,1.233 3.395,-0.641 0,0" /></g><g
           transform="translate(212.7715,345.1802)"
           id="g648"><path
             id="path650"
             style="fill:#eea886;fill-opacity:1;fill-rule:nonzero;stroke:none"
             d="m 0,0 c 0,0 6.846,-7.905 9.377,-9.737 0,0 2.907,2.628 1.115,9.566 0,0 -3.305,1.655 -10.492,0.171" /></g><g
           transform="translate(212.958,364.2061)"
           id="g652"><path
             id="path654"
             style="fill:#eea886;fill-opacity:1;fill-rule:nonzero;stroke:none"
             d="m 0,0 c 0,0 -3.556,-6.851 -0.03,-13.339 3.527,-6.489 10.455,2.825 10.902,3.918 0.449,1.093 2.824,7.275 -1.9,9.153 C 4.246,1.61 1.007,1.859 0,0" /></g><g
           transform="translate(214.1396,361.7754)"
           id="g656"><path
             id="path658"
             style="fill:#464240;fill-opacity:1;fill-rule:nonzero;stroke:none"
             d="m 0,0 c 0,0 -2.447,-3.215 -2.737,-5.59 0,0 -0.975,4.491 1.78,8.805 C 1.798,7.53 8.803,3.42 9.741,1.697 10.679,-0.027 13.429,-1.546 8.81,-8.954 8.81,-8.954 0.503,-3.183 0,0" /></g><g
           transform="translate(219.8213,350.1831)"
           id="g660"><path
             id="path662"
             style="fill:#a77860;fill-opacity:1;fill-rule:nonzero;stroke:none"
             d="m 0,0 c 0,0 -0.617,-1.349 -3.028,-2.603 0.015,0.345 0.024,0.708 0.022,1.077 0,0 1.633,0.197 3.006,1.526" /></g><g
           transform="translate(183.8886,313.7578)"
           id="g664"><path
             id="path666"
             style="fill:#eea886;fill-opacity:1;fill-rule:nonzero;stroke:none"
             d="m 0,0 c 0,0 -1.689,-0.751 -2.492,-0.411 -0.801,0.341 -2.04,0.407 -2.431,0.408 -0.522,0.001 -2.159,0.585 -2.132,-0.054 0.03,-0.64 2.658,-1.086 3.196,-1.285 0.538,-0.2 -1.61,-1.382 -1.809,-1.907 -0.199,-0.525 2.225,-3.97 3.591,-2.989 1.367,0.982 2.107,2.942 2.386,3.067 0.278,0.124 1.026,0.674 1.026,0.674 z" /></g><g
           transform="translate(178.4795,310.8145)"
           id="g668"><path
             id="path670"
             style="fill:#eea886;fill-opacity:1;fill-rule:nonzero;stroke:none"
             d="m 0,0 c 0,0 -3.964,-3.287 -4.025,-3.73 -0.063,-0.444 0.146,-0.652 0.531,-0.36 0.384,0.292 3.931,3.063 3.931,3.063 0,0 -3.972,-4.69 -4.106,-5.038 -0.078,-0.205 0.303,-0.628 0.524,-0.491 0.222,0.137 4.446,4.553 4.446,4.553 0,0 -3.7,-4.387 -3.72,-4.715 -0.018,-0.287 0.428,-0.597 0.727,-0.291 0.298,0.306 3.98,4.176 3.98,4.176 0,0 -2.475,-3.368 -2.322,-3.665 0.094,-0.181 0.406,-0.562 1.015,0.329 0.61,0.89 2.284,2.83 2.284,2.83 z" /></g><g
           transform="translate(225.9531,290.3066)"
           id="g672"><path
             id="path674"
             style="fill:#ff7e55;fill-opacity:1;fill-rule:nonzero;stroke:none"
             d="m 0,0 h -11.67 c 0,0 -10.752,-0.862 -11.613,6.669 -0.863,7.532 3.535,11.714 3.535,11.714 0,0 5.68,-1.512 10.639,-2.71 2.482,0.527 5.474,0.87 8.968,0.782 0,0 21.02,-6.946 20.387,-10.602 0,0 -8.793,4.701 -20.246,-5.853" /></g><g
           transform="translate(218.3574,303.3486)"
           id="g676"><path
             id="path678"
             style="fill:#5e5853;fill-opacity:1;fill-rule:nonzero;stroke:none"
             d="M 0,0 22.25,0.328 11.016,-5.377 Z" /></g><g
           transform="translate(225.2695,306.1914)"
           id="g680"><path
             id="path682"
             style="fill:#325bb3;fill-opacity:1;fill-rule:nonzero;stroke:none"
             d="M 0,0 C 0,0 -5.006,-1.938 -11.142,-0.186 L -11.429,2.105 1.205,1.403 Z" /></g><g
           transform="translate(229.373,297.9717)"
           id="g684"><path
             id="path686"
             style="fill:#91887f;fill-opacity:1;fill-rule:nonzero;stroke:none"
             d="M 0,0 -11.016,4.268 V 5.377 L 0.871,1.089 Z" /></g><g
           transform="translate(225.1914,305.1313)"
           id="g688"><path
             id="path690"
             style="fill:#eddad3;fill-opacity:1;fill-rule:nonzero;stroke:none"
             d="m 0,0 c -0.059,-0.822 0.772,-1.415 1.531,-1.091 l 1.291,0.551 c 0.389,0.165 0.615,0.575 0.547,0.993 -0.537,3.365 -1.691,16.466 -0.004,18.714 0.623,0.831 1.012,1.56 1.231,2.196 1.114,-2.871 2.5,-6.57 3.05,-8.559 l 10.512,-13.985 3.526,-0.894 c -4.4,10.598 -7.932,16.213 -7.932,16.213 -0.689,1.847 -2.661,7.44 -4.408,12.42 -1.104,3.145 -2.116,6.045 -2.66,7.603 -0.277,0.79 -0.821,1.457 -1.539,1.885 -1.628,0.974 -4.341,2.508 -6.802,3.702 -0.01,0.005 -0.02,0.009 -0.03,0.014 -0.079,0.038 -0.157,0.076 -0.235,0.114 -0.003,0 -0.004,0.001 -0.005,0.001 l -10e-4,10e-4 C 2.75,32.8 0.926,12.811 0.003,0.028 0.002,0.019 0.001,0.009 0,0" /></g><g
           transform="translate(207.8261,344.4053)"
           id="g692"><path
             id="path694"
             style="fill:#eddad3;fill-opacity:1;fill-rule:nonzero;stroke:none"
             d="m 0,0 c -1.499,-0.231 -5.215,-3.839 -7.187,-7.48 -2.252,-4.156 -4.545,-8.887 -6.263,-10.443 -3.159,-2.863 -12.003,-12.98 -12.423,-12.735 -0.162,0.095 2.425,-3.021 2.754,-3.166 0.164,-0.072 14.535,12.38 15.915,14.277 1.309,1.799 4.808,9.348 5.855,9.182 0,0 10e-4,-0.002 0.003,-0.006 0,-10e-4 0.001,-0.002 0.002,-0.003 0.079,-0.171 1.352,-2.931 2.559,-6.966 0.019,-0.067 0.039,-0.134 0.059,-0.201 0.831,-2.813 0.755,-5.869 0.305,-9.302 -0.34,-2.591 -2.274,-6.827 -3.44,-8.889 -0.141,-0.248 -0.105,-0.72 0.047,-1.079 v 0 c 0.09,-0.214 0.222,-0.388 0.382,-0.447 l 4.219,-1.563 0.992,-0.367 c 0.714,-0.265 1.463,-0.127 2.022,0.279 0.459,0.333 0.79,0.846 0.871,1.467 0.937,7.216 2.125,14.589 3.071,17.366 C 13.894,-7.889 8.121,1.268 8.121,1.268 8.121,1.268 1.314,0.491 0,0" /></g><g
           transform="translate(229.373,297.9717)"
           id="g696"><path
             id="path698"
             style="fill:#6e6760;fill-opacity:1;fill-rule:nonzero;stroke:none"
             d="M 0,0 6.619,18.07 27.955,17.722 21.646,1.07 Z" /></g><g
           transform="translate(242.8183,308.0483)"
           id="g700"><path
             id="path702"
             style="fill:#807066;fill-opacity:1;fill-rule:nonzero;stroke:none"
             d="M 0,0 C -0.65,-1.302 -0.454,-2.719 0.439,-3.167 1.334,-3.613 2.586,-2.92 3.236,-1.619 3.888,-0.318 3.691,1.1 2.797,1.547 1.904,1.994 0.651,1.301 0,0" /></g><g
           transform="translate(220.3271,357.3843)"
           id="g704"><path
             id="path706"
             style="fill:#464240;fill-opacity:1;fill-rule:nonzero;stroke:none"
             d="M 0,0 C 0,0 1.366,-2.126 0.104,-3.962 -1.159,-5.797 0.423,-7.6 0.696,-9.54 c 0.275,-1.94 -5.27,-7.103 0.897,-9.7 6.166,-2.597 8.129,1.696 6.554,4.059 -1.572,2.363 -2.689,4.28 -2.822,7.648 C 5.192,-4.164 4.084,1.087 0,0" /></g><g
           transform="translate(175.6611,382.9009)"
           id="g708"><path
             id="path710"
             style="fill:#78c2ff;fill-opacity:1;fill-rule:nonzero;stroke:none"
             d="m 0,0 h 26.281 v -19.049 -4.013 l -4.011,4.013 H 0 Z" /></g></g></g></g></svg>