<?xml version="1.0" encoding="UTF-8" standalone="no"?>
<svg
   xmlns:dc="http://purl.org/dc/elements/1.1/"
   xmlns:cc="http://creativecommons.org/ns#"
   xmlns:rdf="http://www.w3.org/1999/02/22-rdf-syntax-ns#"
   xmlns:svg="http://www.w3.org/2000/svg"
   xmlns="http://www.w3.org/2000/svg"
   viewBox="0 0 305.85599 408.44666"
   height="408.44666"
   width="305.85599"
   xml:space="preserve"
   id="svg2"
   version="1.1"><metadata
     id="metadata8"><rdf:RDF><cc:Work
         rdf:about=""><dc:format>image/svg+xml</dc:format><dc:type
           rdf:resource="http://purl.org/dc/dcmitype/StillImage" /></cc:Work></rdf:RDF></metadata><defs
     id="defs6"><clipPath
       id="clipPath18"
       clipPathUnits="userSpaceOnUse"><path
         id="path16"
         d="m 28.459,304.44 0.368,0.012 c -0.123,-0.003 -0.246,-0.007 -0.368,-0.012 m -8.744,-0.286 C 8.522,303.903 -0.305,293.422 0.008,280.734 v 0 l 9.113,0.298 c -0.311,12.548 8.32,22.937 19.338,23.408 v 0 z" /></clipPath><linearGradient
       id="linearGradient32"
       spreadMethod="pad"
       gradientTransform="matrix(28.827391,0,0,-28.827391,9.5e-6,292.59335)"
       gradientUnits="userSpaceOnUse"
       y2="0"
       x2="1"
       y1="0"
       x1="0"><stop
         id="stop24"
         offset="0"
         style="stop-opacity:1;stop-color:#25a09a" /><stop
         id="stop26"
         offset="0.11229"
         style="stop-opacity:1;stop-color:#25a09a" /><stop
         id="stop28"
         offset="0.59699073"
         style="stop-opacity:1;stop-color:#51c1be" /><stop
         id="stop30"
         offset="1"
         style="stop-opacity:1;stop-color:#51c1be" /></linearGradient><clipPath
       id="clipPath42"
       clipPathUnits="userSpaceOnUse"><path
         id="path40"
         d="m 2.35,292.095 c -0.012,-0.024 -0.023,-0.049 -0.034,-0.073 v 0 C 2.314,292.017 2.312,292.014 2.31,292.009 v 0 c -0.011,-0.022 -0.021,-0.045 -0.031,-0.067 v 0 C 2.278,291.94 2.276,291.937 2.275,291.934 v 0 c -0.023,-0.05 -0.046,-0.099 -0.068,-0.149 v 0 C 2.204,291.779 2.2,291.771 2.197,291.764 v 0 C 2.19,291.747 2.182,291.73 2.175,291.713 v 0 c -0.004,-0.008 -0.008,-0.017 -0.012,-0.026 v 0 c -0.009,-0.02 -0.018,-0.04 -0.027,-0.061 v 0 c -0.002,-0.003 -0.004,-0.007 -0.005,-0.01 v 0 C 2.12,291.592 2.11,291.568 2.099,291.544 v 0 C 2.096,291.536 2.093,291.529 2.09,291.522 v 0 c -0.008,-0.018 -0.016,-0.036 -0.023,-0.053 v 0 c -0.004,-0.008 -0.007,-0.015 -0.01,-0.023 v 0 c -0.008,-0.018 -0.016,-0.037 -0.024,-0.055 v 0 c -0.003,-0.007 -0.006,-0.013 -0.009,-0.02 v 0 c -0.01,-0.024 -0.02,-0.048 -0.031,-0.072 v 0 C 1.99,291.292 1.987,291.284 1.984,291.277 v 0 c -0.007,-0.016 -0.014,-0.032 -0.02,-0.048 v 0 C 1.959,291.218 1.955,291.208 1.95,291.197 v 0 c -0.006,-0.014 -0.012,-0.028 -0.018,-0.042 v 0 c -0.004,-0.011 -0.009,-0.022 -0.013,-0.033 v 0 c -0.008,-0.018 -0.016,-0.037 -0.023,-0.055 v 0 c -0.005,-0.012 -0.01,-0.023 -0.015,-0.035 v 0 c -0.006,-0.016 -0.013,-0.033 -0.02,-0.049 v 0 C 1.857,290.972 1.852,290.96 1.847,290.949 v 0 c -0.005,-0.013 -0.011,-0.027 -0.016,-0.04 v 0 c -0.005,-0.012 -0.01,-0.024 -0.015,-0.036 v 0 c -0.004,-0.012 -0.009,-0.024 -0.014,-0.036 v 0 C 1.791,290.811 1.781,290.785 1.77,290.758 v 0 c -0.002,-0.007 -0.005,-0.014 -0.008,-0.021 v 0 c -0.006,-0.015 -0.012,-0.03 -0.018,-0.045 v 0 c -0.003,-0.009 -0.007,-0.018 -0.011,-0.027 v 0 C 1.728,290.65 1.721,290.634 1.716,290.62 v 0 c -0.004,-0.009 -0.007,-0.017 -0.01,-0.026 v 0 C 1.7,290.578 1.694,290.564 1.688,290.548 v 0 c -10e-4,-0.002 -0.002,-0.005 -0.003,-0.007 v 0 C 1.67,290.503 1.656,290.466 1.642,290.428 v 0 C 1.64,290.424 1.639,290.421 1.638,290.417 v 0 c -0.007,-0.018 -0.014,-0.036 -0.021,-0.055 v 0 c -0.002,-0.005 -0.004,-0.009 -0.005,-0.013 v 0 c -0.031,-0.081 -0.061,-0.162 -0.09,-0.243 v 0 C 1.52,290.102 1.519,290.098 1.517,290.095 v 0 c -0.007,-0.02 -0.014,-0.04 -0.021,-0.06 v 0 c 0,0 0,-0.001 -10e-4,-0.001 v 0 c -0.947,-2.62 -1.476,-5.485 -1.494,-8.484 v 0 C 0.001,281.549 0,281.548 0,281.548 v 0 c 0,-0.093 0,-0.187 0,-0.281 v 0 c 0,-0.007 0,-0.015 0,-0.023 v 0 c 0.001,-0.019 0.001,-0.038 0.001,-0.057 v 0 c 0,-0.009 0,-0.017 0,-0.026 v 0 c 0,-0.018 0,-0.036 0.001,-0.054 v 0 c 0,-0.01 0,-0.02 0,-0.03 v 0 c 0,-0.029 0.001,-0.058 0.001,-0.088 v 0 c 0,-0.015 0.001,-0.031 0.001,-0.046 v 0 c 0,-0.012 0,-0.025 0,-0.038 v 0 c 0.001,-0.017 0.001,-0.035 0.001,-0.052 v 0 c 0.001,-0.011 0.001,-0.022 0.001,-0.033 v 0 c 0.001,-0.028 0.001,-0.057 0.002,-0.086 v 0 l 9.113,0.298 c -0.001,0.029 -0.002,0.059 -0.002,0.088 v 0 c -10e-4,0.008 -10e-4,0.016 -10e-4,0.024 v 0 c 0,0.022 -10e-4,0.044 -10e-4,0.067 v 0 c 0,0.008 0,0.015 -0.001,0.023 v 0 c 0,0.025 0,0.048 -10e-4,0.073 v 0 c 0,0.006 0,0.011 0,0.017 v 0 c 0,0.03 -10e-4,0.058 -10e-4,0.088 v 0 c 0,0.005 0,0.011 0,0.017 v 0 c 0,0.023 -0.001,0.046 -0.001,0.069 v 0 c 0,0.009 0,0.018 0,0.027 v 0 c 0,0.023 0,0.046 0,0.069 v 0 c 0,0.007 0,0.013 0,0.019 v 0 c 0,0.03 -10e-4,0.058 -10e-4,0.088 v 0 c 0,0.004 10e-4,0.009 10e-4,0.013 v 0 c 0,0.025 0,0.052 0,0.078 v 0 c 0,0.005 0,0.011 0,0.016 v 0 c 0,0.026 0,0.052 0,0.078 v 0 c 0,0.004 0,0.009 0,0.013 v 0 c 0.001,0.031 0.001,0.061 0.001,0.092 v 0 c 0,0 0,0.001 0,0.001 v 0 c 10e-4,0.028 10e-4,0.056 10e-4,0.084 v 0 c 0,0.008 10e-4,0.015 10e-4,0.023 v 0 c 0,0.023 0,0.048 0.001,0.072 v 0 c 0,0.005 0,0.011 0,0.016 v 0 c 10e-4,0.061 0.003,0.121 0.004,0.181 v 0 c 0,0.003 0,0.006 10e-4,0.009 v 0 c 0,0.029 10e-4,0.057 0.002,0.086 v 0 c 0,0.002 0,0.004 0,0.007 v 0 c 0.003,0.093 0.006,0.186 0.01,0.278 v 0 c 0,0.002 0,0.004 0,0.006 v 0 c 0.004,0.092 0.008,0.185 0.013,0.277 v 0 c 0,0.003 0,0.005 0,0.008 v 0 c 0.174,3.365 0.99,6.535 2.315,9.354 v 0 z" /></clipPath><linearGradient
       id="linearGradient56"
       spreadMethod="pad"
       gradientTransform="matrix(11.462301,0,0,-11.462301,0,286.56396)"
       gradientUnits="userSpaceOnUse"
       y2="0"
       x2="1"
       y1="0"
       x1="0"><stop
         id="stop48"
         offset="0"
         style="stop-opacity:1;stop-color:#25a09a" /><stop
         id="stop50"
         offset="0.11229"
         style="stop-opacity:1;stop-color:#25a09a" /><stop
         id="stop52"
         offset="0.59699073"
         style="stop-opacity:1;stop-color:#51c1be" /><stop
         id="stop54"
         offset="1"
         style="stop-opacity:1;stop-color:#51c1be" /></linearGradient><clipPath
       id="clipPath66"
       clipPathUnits="userSpaceOnUse"><path
         id="path64"
         d="m 7.486,299.129 c -0.006,-0.005 -0.011,-0.01 -0.017,-0.015 v 0 c -0.021,-0.019 -0.042,-0.039 -0.063,-0.058 v 0 c -0.012,-0.011 -0.023,-0.022 -0.035,-0.032 v 0 c -0.02,-0.019 -0.04,-0.038 -0.06,-0.057 v 0 c -0.013,-0.011 -0.024,-0.022 -0.036,-0.033 v 0 c -0.02,-0.019 -0.04,-0.038 -0.06,-0.056 v 0 c -0.016,-0.015 -0.031,-0.03 -0.047,-0.045 v 0 c -0.016,-0.015 -0.031,-0.03 -0.047,-0.045 v 0 c -0.018,-0.017 -0.037,-0.035 -0.055,-0.053 v 0 C 7.053,298.723 7.041,298.71 7.028,298.698 v 0 c -0.02,-0.019 -0.04,-0.039 -0.06,-0.058 v 0 c -0.011,-0.011 -0.021,-0.021 -0.032,-0.032 v 0 c -0.022,-0.021 -0.045,-0.044 -0.067,-0.065 v 0 c -0.007,-0.008 -0.015,-0.016 -0.023,-0.024 v 0 c -0.024,-0.023 -0.047,-0.046 -0.07,-0.069 v 0 C 6.768,298.442 6.76,298.434 6.753,298.427 v 0 c -0.024,-0.024 -0.047,-0.048 -0.071,-0.072 v 0 C 6.676,298.349 6.67,298.343 6.664,298.336 v 0 c -0.025,-0.025 -0.05,-0.05 -0.075,-0.076 v 0 c -0.003,-0.004 -0.007,-0.008 -0.011,-0.011 v 0 c -0.595,-0.613 -1.157,-1.265 -1.682,-1.953 v 0 c -0.001,0 -0.001,-10e-4 -0.001,-10e-4 v 0 c -0.026,-0.034 -0.052,-0.067 -0.077,-0.101 v 0 C 4.816,296.192 4.815,296.19 4.814,296.189 v 0 c -0.026,-0.034 -0.051,-0.068 -0.076,-0.102 v 0 c 0,0 -0.001,-10e-4 -0.001,-10e-4 v 0 c -0.142,-0.19 -0.28,-0.382 -0.416,-0.577 v 0 c -0.002,-0.002 -0.004,-0.005 -0.006,-0.008 v 0 C 4.294,295.47 4.272,295.439 4.251,295.409 v 0 c -0.004,-0.007 -0.009,-0.013 -0.013,-0.02 v 0 c -0.02,-0.028 -0.04,-0.057 -0.059,-0.086 v 0 c -0.006,-0.009 -0.012,-0.017 -0.018,-0.026 v 0 C 4.142,295.249 4.123,295.22 4.104,295.193 v 0 c -0.006,-0.009 -0.012,-0.019 -0.018,-0.028 v 0 C 4.067,295.137 4.049,295.11 4.03,295.082 v 0 c -0.007,-0.01 -0.014,-0.021 -0.021,-0.031 v 0 C 3.992,295.024 3.974,294.997 3.956,294.97 v 0 c -0.007,-0.011 -0.014,-0.022 -0.021,-0.033 v 0 c -0.018,-0.026 -0.034,-0.052 -0.052,-0.078 v 0 c -0.008,-0.013 -0.016,-0.027 -0.025,-0.04 v 0 c -0.015,-0.024 -0.031,-0.048 -0.047,-0.072 v 0 C 3.8,294.729 3.789,294.712 3.778,294.694 v 0 c -0.013,-0.02 -0.025,-0.039 -0.038,-0.06 v 0 C 3.726,294.612 3.712,294.59 3.699,294.569 v 0 c -0.011,-0.017 -0.021,-0.033 -0.031,-0.05 v 0 C 3.653,294.496 3.639,294.473 3.625,294.45 v 0 c -0.009,-0.015 -0.019,-0.03 -0.028,-0.045 v 0 c -0.015,-0.024 -0.03,-0.049 -0.045,-0.073 v 0 C 3.544,294.318 3.535,294.303 3.527,294.29 v 0 c -0.015,-0.025 -0.031,-0.05 -0.046,-0.075 v 0 c -0.008,-0.014 -0.016,-0.028 -0.024,-0.041 v 0 c -0.016,-0.026 -0.031,-0.052 -0.046,-0.078 v 0 c -0.009,-0.014 -0.017,-0.028 -0.025,-0.042 v 0 C 3.37,294.028 3.355,294.002 3.339,293.976 v 0 c -0.008,-0.014 -0.016,-0.029 -0.024,-0.042 v 0 C 3.3,293.907 3.284,293.881 3.269,293.855 v 0 C 3.261,293.84 3.253,293.826 3.244,293.812 v 0 c -0.015,-0.027 -0.031,-0.054 -0.046,-0.081 v 0 c -0.008,-0.014 -0.015,-0.027 -0.022,-0.04 v 0 c -0.017,-0.029 -0.033,-0.057 -0.049,-0.086 v 0 C 3.12,293.593 3.114,293.582 3.108,293.571 v 0 C 3.091,293.54 3.073,293.509 3.056,293.478 v 0 c -0.005,-0.009 -0.01,-0.019 -0.015,-0.028 v 0 c -0.017,-0.031 -0.035,-0.063 -0.052,-0.094 v 0 C 2.985,293.348 2.98,293.338 2.975,293.331 v 0 C 2.958,293.298 2.94,293.266 2.923,293.234 v 0 C 2.919,293.226 2.914,293.217 2.91,293.209 v 0 c -0.018,-0.033 -0.036,-0.066 -0.053,-0.1 v 0 c -0.004,-0.006 -0.008,-0.014 -0.011,-0.02 v 0 C 2.828,293.055 2.81,293.02 2.792,292.986 v 0 c -0.004,-0.007 -0.007,-0.013 -0.011,-0.02 v 0 c -0.018,-0.034 -0.036,-0.069 -0.054,-0.104 v 0 C 2.724,292.856 2.721,292.85 2.718,292.844 v 0 C 2.7,292.808 2.681,292.772 2.663,292.736 v 0 C 2.66,292.73 2.658,292.726 2.655,292.721 v 0 c -0.019,-0.038 -0.038,-0.076 -0.057,-0.114 v 0 c -10e-4,-0.003 -0.003,-0.006 -0.004,-0.009 v 0 c -0.02,-0.04 -0.04,-0.079 -0.06,-0.12 v 0 c 0,-0.001 -10e-4,-0.003 -0.002,-0.004 v 0 C 2.491,292.391 2.45,292.307 2.41,292.223 v 0 c 0,0 0,-0.001 0,-0.001 v 0 c -0.02,-0.043 -0.04,-0.085 -0.06,-0.127 v 0 l 9.112,0.298 c 1.059,2.252 2.443,4.281 4.083,6.002 v 0 c 0,0 0,0.001 0,0.001 v 0 c 0.031,0.032 0.061,0.063 0.092,0.095 v 0 c 10e-4,0.001 10e-4,0.002 0.002,0.002 v 0 c 0.03,0.031 0.06,0.063 0.09,0.093 v 0 c 0.002,0.002 0.003,0.003 0.004,0.004 v 0 c 0.062,0.064 0.124,0.127 0.187,0.189 v 0 c 10e-4,10e-4 0.003,0.003 0.004,0.004 v 0 c 0.029,0.03 0.059,0.059 0.089,0.088 v 0 c 0.003,0.003 0.006,0.007 0.009,0.01 v 0 c 0.029,0.028 0.057,0.055 0.085,0.083 v 0 c 0.004,0.004 0.008,0.007 0.012,0.011 v 0 c 0.028,0.027 0.055,0.054 0.083,0.081 v 0 c 0.005,0.004 0.009,0.008 0.014,0.013 v 0 c 0.027,0.026 0.055,0.052 0.082,0.079 v 0 c 0.005,0.004 0.009,0.008 0.013,0.012 v 0 c 0.028,0.026 0.056,0.053 0.084,0.079 v 0 c 0.005,0.004 0.009,0.008 0.013,0.012 v 0 c 0.029,0.027 0.058,0.054 0.087,0.081 v 0 c 0.003,0.003 0.006,0.005 0.009,0.008 v 0 c 0.03,0.028 0.061,0.056 0.092,0.084 v 0 c 0.001,0.001 0.002,0.002 0.003,0.003 v 0 z" /></clipPath><linearGradient
       id="linearGradient80"
       spreadMethod="pad"
       gradientTransform="matrix(14.2485,0,0,-14.2485,2.3500011,295.76135)"
       gradientUnits="userSpaceOnUse"
       y2="0"
       x2="1"
       y1="0"
       x1="0"><stop
         id="stop72"
         offset="0"
         style="stop-opacity:1;stop-color:#25a09a" /><stop
         id="stop74"
         offset="0.11229"
         style="stop-opacity:1;stop-color:#25a09a" /><stop
         id="stop76"
         offset="0.59699073"
         style="stop-opacity:1;stop-color:#51c1be" /><stop
         id="stop78"
         offset="1"
         style="stop-opacity:1;stop-color:#51c1be" /></linearGradient><clipPath
       id="clipPath90"
       clipPathUnits="userSpaceOnUse"><path
         id="path88"
         d="m 28.827,304.452 c 0,0 0,0 0,0 m -0.096,-0.002 c -0.056,-0.002 -0.113,-0.004 -0.169,-0.006 v 0 c -0.024,-0.001 -0.047,-0.002 -0.071,-0.003 v 0 l 0.336,0.011 c -0.032,-10e-4 -0.064,-0.002 -0.096,-0.002 m -9.016,-0.296 c -0.033,-10e-4 -0.066,-0.002 -0.099,-0.002 v 0 c -0.005,-10e-4 -0.011,-10e-4 -0.015,-10e-4 v 0 c -0.033,-0.001 -0.065,-0.002 -0.098,-0.003 v 0 c -0.004,0 -0.009,0 -0.013,0 v 0 c -0.068,-0.003 -0.137,-0.006 -0.205,-0.009 v 0 c -0.002,0 -0.004,0 -0.007,0 v 0 c -0.035,-0.002 -0.07,-0.003 -0.105,-0.005 v 0 c 0,0 0,0 -10e-4,0 v 0 c -0.071,-0.004 -0.142,-0.008 -0.213,-0.013 v 0 c -0.001,0 -0.002,0 -0.004,0 v 0 c -0.035,-0.002 -0.07,-0.004 -0.105,-0.007 v 0 c -0.001,0 -0.001,0 -0.002,0 v 0 c -0.179,-0.013 -0.357,-0.028 -0.534,-0.046 v 0 c -0.001,0 -0.001,0 -0.001,0 v 0 c -0.106,-0.01 -0.212,-0.022 -0.318,-0.034 v 0 c -0.001,0 -0.002,-10e-4 -0.003,-10e-4 v 0 c -0.318,-0.037 -0.634,-0.083 -0.948,-0.137 v 0 c 0,0 -0.001,0 -0.001,0 v 0 c -0.103,-0.018 -0.207,-0.037 -0.31,-0.057 v 0 c -0.002,0 -0.004,-10e-4 -0.006,-10e-4 v 0 c -0.102,-0.019 -0.204,-0.04 -0.305,-0.061 v 0 c -0.002,0 -0.005,-10e-4 -0.007,-10e-4 v 0 c -0.033,-0.007 -0.066,-0.014 -0.099,-0.021 v 0 c -10e-4,-10e-4 -10e-4,-10e-4 -0.002,-10e-4 v 0 c -0.033,-0.007 -0.066,-0.014 -0.099,-0.021 v 0 c -0.002,-10e-4 -0.003,-10e-4 -0.005,-10e-4 v 0 c -0.032,-0.008 -0.064,-0.015 -0.096,-0.022 v 0 c -0.003,-10e-4 -0.008,-0.002 -0.011,-0.003 v 0 c -0.065,-0.014 -0.13,-0.03 -0.195,-0.045 v 0 c -0.002,-10e-4 -0.005,-10e-4 -0.007,-0.002 v 0 c -0.031,-0.007 -0.062,-0.015 -0.093,-0.022 v 0 c -0.005,-0.002 -0.01,-0.003 -0.015,-0.004 v 0 c -0.032,-0.008 -0.063,-0.016 -0.094,-0.023 v 0 c -10e-4,-10e-4 -10e-4,-10e-4 -0.003,-10e-4 v 0 c -0.031,-0.008 -0.061,-0.016 -0.092,-0.024 v 0 c -0.004,-0.001 -0.008,-0.002 -0.012,-0.003 v 0 c -0.03,-0.008 -0.059,-0.015 -0.089,-0.023 v 0 c -0.007,-0.002 -0.013,-0.004 -0.02,-0.005 v 0 c -0.029,-0.008 -0.059,-0.016 -0.089,-0.024 v 0 c -0.002,-0.001 -0.004,-0.001 -0.007,-0.002 v 0 c -0.028,-0.008 -0.056,-0.015 -0.084,-0.023 v 0 c -0.007,-0.002 -0.012,-0.003 -0.018,-0.005 v 0 c -0.029,-0.008 -0.058,-0.016 -0.087,-0.024 v 0 c -0.006,-0.002 -0.013,-0.004 -0.019,-0.006 v 0 c -0.029,-0.008 -0.057,-0.016 -0.086,-0.024 v 0 c -0.005,-0.002 -0.01,-0.003 -0.015,-0.005 v 0 c -0.025,-0.007 -0.051,-0.015 -0.076,-0.022 v 0 c -0.007,-0.002 -0.015,-0.005 -0.023,-0.007 v 0 c -0.027,-0.008 -0.054,-0.016 -0.081,-0.024 v 0 c -0.009,-0.003 -0.018,-0.005 -0.026,-0.008 v 0 c -0.025,-0.008 -0.049,-0.015 -0.074,-0.023 v 0 c -0.008,-0.002 -0.017,-0.005 -0.025,-0.007 v 0 c -0.023,-0.007 -0.046,-0.015 -0.068,-0.022 v 0 c -0.01,-0.003 -0.02,-0.006 -0.03,-0.009 v 0 c -0.025,-0.008 -0.05,-0.016 -0.075,-0.024 v 0 c -0.011,-0.003 -0.021,-0.007 -0.032,-0.01 v 0 c -0.021,-0.007 -0.042,-0.014 -0.063,-0.021 v 0 c -0.012,-0.003 -0.025,-0.008 -0.037,-0.012 v 0 c -0.02,-0.006 -0.041,-0.013 -0.061,-0.02 v 0 c -0.011,-0.004 -0.022,-0.007 -0.034,-0.011 v 0 c -0.023,-0.008 -0.047,-0.016 -0.071,-0.024 v 0 c -0.011,-0.004 -0.025,-0.009 -0.037,-0.013 v 0 c -0.018,-0.006 -0.035,-0.012 -0.054,-0.018 v 0 c -0.014,-0.005 -0.029,-0.01 -0.044,-0.015 v 0 c -0.018,-0.007 -0.036,-0.013 -0.055,-0.02 v 0 c -0.012,-0.004 -0.026,-0.009 -0.038,-0.013 v 0 c -0.023,-0.008 -0.045,-0.016 -0.068,-0.024 v 0 c -0.013,-0.005 -0.026,-0.01 -0.039,-0.015 v 0 c -0.015,-0.005 -0.03,-0.01 -0.044,-0.015 v 0 c -0.021,-0.008 -0.041,-0.016 -0.062,-0.023 v 0 c -0.014,-0.005 -0.028,-0.011 -0.042,-0.016 v 0 c -0.014,-0.005 -0.028,-0.01 -0.042,-0.015 v 0 c -0.022,-0.008 -0.044,-0.017 -0.066,-0.025 v 0 c -0.013,-0.005 -0.026,-0.01 -0.039,-0.015 v 0 c -0.015,-0.006 -0.03,-0.011 -0.045,-0.017 v 0 c -0.02,-0.008 -0.04,-0.016 -0.06,-0.023 v 0 c -0.014,-0.006 -0.027,-0.011 -0.04,-0.016 v 0 c -0.015,-0.006 -0.031,-0.012 -0.045,-0.018 v 0 c -0.016,-0.006 -0.031,-0.012 -0.046,-0.018 v 0 c -0.021,-0.008 -0.041,-0.016 -0.062,-0.024 v 0 c -0.01,-0.004 -0.021,-0.009 -0.031,-0.013 v 0 c -0.026,-0.01 -0.051,-0.02 -0.076,-0.031 v 0 c -0.01,-0.004 -0.021,-0.008 -0.031,-0.012 v 0 c -0.016,-0.007 -0.032,-0.013 -0.048,-0.02 v 0 c -0.007,-0.003 -0.015,-0.006 -0.022,-0.009 v 0 c -0.028,-0.012 -0.058,-0.024 -0.086,-0.036 v 0 c -0.008,-0.004 -0.017,-0.007 -0.025,-0.011 v 0 C 13.027,302.712 13,302.7 12.972,302.688 v 0 c -0.008,-0.003 -0.016,-0.007 -0.024,-0.01 v 0 c -0.017,-0.007 -0.033,-0.014 -0.05,-0.022 v 0 c -0.008,-0.003 -0.016,-0.007 -0.025,-0.01 v 0 c -0.027,-0.012 -0.054,-0.024 -0.081,-0.036 v 0 c -0.008,-0.004 -0.017,-0.008 -0.026,-0.011 v 0 c -0.027,-0.013 -0.055,-0.025 -0.083,-0.038 v 0 c -0.008,-0.003 -0.015,-0.006 -0.023,-0.01 v 0 c -0.017,-0.007 -0.034,-0.015 -0.051,-0.023 v 0 c -0.003,-0.001 -0.006,-0.003 -0.01,-0.004 v 0 c -0.032,-0.015 -0.065,-0.03 -0.097,-0.045 v 0 c -0.006,-0.003 -0.013,-0.006 -0.019,-0.009 v 0 c -0.032,-0.014 -0.065,-0.03 -0.097,-0.045 v 0 c -0.003,-0.001 -0.005,-0.002 -0.008,-0.004 v 0 c -0.018,-0.008 -0.037,-0.017 -0.055,-0.025 v 0 c -0.002,-0.002 -0.004,-0.002 -0.006,-0.003 v 0 c -0.034,-0.017 -0.069,-0.033 -0.103,-0.05 v 0 c -0.003,-0.001 -0.007,-0.003 -0.011,-0.005 v 0 c -0.035,-0.017 -0.07,-0.034 -0.105,-0.051 v 0 c -0.001,-10e-4 -0.002,-10e-4 -0.003,-0.002 v 0 c -0.054,-0.026 -0.108,-0.053 -0.162,-0.08 v 0 c -0.005,-0.002 -0.009,-0.005 -0.013,-0.007 v 0 c -0.036,-0.018 -0.071,-0.035 -0.106,-0.053 v 0 c 0,0 0,0 0,-10e-4 v 0 c -0.018,-0.009 -0.037,-0.018 -0.055,-0.028 v 0 c -0.002,-10e-4 -0.005,-0.002 -0.007,-0.003 v 0 c -0.033,-0.017 -0.066,-0.034 -0.099,-0.052 v 0 c -0.004,-0.002 -0.009,-0.004 -0.013,-0.007 v 0 c -0.054,-0.028 -0.107,-0.056 -0.16,-0.085 v 0 c -0.002,0 -0.002,-10e-4 -0.003,-10e-4 v 0 c -0.035,-0.019 -0.069,-0.037 -0.103,-0.056 v 0 c -0.004,-0.002 -0.007,-0.004 -0.01,-0.005 v 0 c -0.09,-0.049 -0.178,-0.098 -0.267,-0.149 v 0 c -0.002,-10e-4 -0.005,-0.003 -0.007,-0.004 v 0 c -0.09,-0.051 -0.18,-0.103 -0.269,-0.155 v 0 c -10e-4,-10e-4 -0.002,-10e-4 -0.002,-0.002 v 0 c -0.054,-0.031 -0.108,-0.064 -0.162,-0.096 v 0 c 0,0 0,0 0,0 v 0 c -0.034,-0.021 -0.069,-0.042 -0.104,-0.063 v 0 c -0.002,-10e-4 -0.004,-0.003 -0.006,-0.004 v 0 c -0.053,-0.032 -0.106,-0.065 -0.158,-0.097 v 0 c -10e-4,-10e-4 -0.002,-0.002 -0.003,-0.002 v 0 c -0.034,-0.022 -0.069,-0.043 -0.103,-0.065 v 0 c -10e-4,-10e-4 -0.002,-10e-4 -0.003,-0.002 v 0 c -0.052,-0.033 -0.105,-0.067 -0.157,-0.101 v 0 c -0.002,-10e-4 -0.003,-10e-4 -0.005,-0.002 v 0 c -0.033,-0.022 -0.066,-0.044 -0.099,-0.066 v 0 c -0.002,-10e-4 -0.003,-10e-4 -0.005,-0.003 v 0 c -0.051,-0.033 -0.102,-0.067 -0.153,-0.101 v 0 C 9.858,300.993 9.854,300.99 9.85,300.988 v 0 c -0.03,-0.021 -0.061,-0.042 -0.091,-0.062 v 0 C 9.756,300.924 9.753,300.922 9.75,300.92 v 0 c -0.051,-0.034 -0.101,-0.069 -0.151,-0.104 v 0 c -0.003,-0.002 -0.005,-0.003 -0.007,-0.005 v 0 C 9.56,300.789 9.529,300.768 9.498,300.746 v 0 C 9.495,300.744 9.493,300.742 9.49,300.74 v 0 c -0.05,-0.035 -0.1,-0.071 -0.15,-0.106 v 0 C 9.338,300.632 9.335,300.63 9.333,300.629 v 0 c -0.03,-0.022 -0.062,-0.045 -0.092,-0.067 v 0 C 9.238,300.56 9.235,300.558 9.232,300.556 v 0 C 9.184,300.52 9.135,300.485 9.087,300.449 v 0 c -0.005,-0.004 -0.009,-0.007 -0.014,-0.011 v 0 c -0.028,-0.02 -0.056,-0.041 -0.083,-0.062 v 0 c -0.005,-0.003 -0.009,-0.007 -0.014,-0.01 v 0 C 8.929,300.33 8.882,300.295 8.835,300.259 v 0 C 8.83,300.255 8.824,300.25 8.818,300.246 v 0 c -0.026,-0.02 -0.053,-0.041 -0.08,-0.062 v 0 c -0.005,-0.004 -0.009,-0.007 -0.013,-0.01 v 0 c -0.047,-0.037 -0.094,-0.073 -0.14,-0.11 v 0 C 8.579,300.06 8.574,300.055 8.568,300.051 v 0 C 8.542,300.03 8.516,300.009 8.49,299.988 v 0 C 8.485,299.984 8.48,299.98 8.475,299.976 v 0 C 8.46,299.964 8.444,299.952 8.429,299.939 v 0 c 0,0 -10e-4,0 -10e-4,0 v 0 c -0.03,-0.025 -0.059,-0.049 -0.09,-0.073 v 0 C 8.332,299.861 8.326,299.856 8.32,299.85 v 0 c -0.025,-0.02 -0.051,-0.041 -0.076,-0.062 v 0 c -0.005,-0.004 -0.011,-0.009 -0.016,-0.013 v 0 c -0.014,-0.012 -0.029,-0.024 -0.044,-0.036 v 0 C 8.18,299.735 8.176,299.731 8.171,299.728 v 0 C 8.145,299.706 8.12,299.685 8.094,299.663 v 0 c -0.006,-0.006 -0.013,-0.011 -0.019,-0.017 v 0 c -0.026,-0.021 -0.051,-0.043 -0.076,-0.064 v 0 C 7.995,299.578 7.99,299.574 7.986,299.571 v 0 c -0.015,-0.013 -0.03,-0.026 -0.045,-0.038 v 0 c -0.004,-0.004 -0.008,-0.007 -0.012,-0.011 v 0 C 7.904,299.5 7.879,299.479 7.854,299.457 v 0 c -0.008,-0.006 -0.015,-0.013 -0.022,-0.019 v 0 c -0.023,-0.02 -0.046,-0.04 -0.069,-0.061 v 0 C 7.757,299.372 7.75,299.366 7.744,299.36 v 0 C 7.73,299.348 7.716,299.336 7.702,299.324 v 0 C 7.696,299.318 7.69,299.313 7.684,299.307 v 0 c -0.023,-0.02 -0.047,-0.041 -0.07,-0.062 v 0 c -0.006,-0.006 -0.013,-0.012 -0.02,-0.018 v 0 c -0.023,-0.02 -0.046,-0.042 -0.069,-0.062 v 0 c -0.006,-0.006 -0.013,-0.012 -0.019,-0.018 v 0 C 7.5,299.142 7.493,299.135 7.486,299.129 v 0 l 9.113,0.298 c 0,10e-4 0.001,10e-4 0.002,0.002 v 0 c 0.022,0.021 0.046,0.043 0.069,0.063 v 0 c 0.005,0.004 0.009,0.008 0.014,0.013 v 0 c 0.023,0.02 0.046,0.041 0.069,0.062 v 0 c 0.003,0.003 0.007,0.006 0.01,0.009 v 0 c 0.023,0.02 0.046,0.041 0.069,0.061 v 0 c 0.002,10e-4 0.003,0.003 0.005,0.004 v 0 c 0.024,0.022 0.048,0.043 0.072,0.064 v 0 c 0.004,0.003 0.007,0.006 0.011,0.01 v 0 c 0.024,0.02 0.047,0.041 0.071,0.062 v 0 c 0.004,0.003 0.007,0.005 0.011,0.009 v 0 c 0.022,0.019 0.044,0.038 0.067,0.058 v 0 c 0.003,0.002 0.005,0.004 0.008,0.007 v 0 c 0.024,0.02 0.046,0.039 0.07,0.059 v 0 c 0.005,0.005 0.01,0.009 0.015,0.013 v 0 c 0.023,0.019 0.046,0.039 0.068,0.058 v 0 c 0.006,0.005 0.012,0.009 0.017,0.014 v 0 c 0.021,0.018 0.041,0.034 0.063,0.052 v 0 c 0.004,0.004 0.008,0.007 0.012,0.01 v 0 c 0.022,0.018 0.043,0.036 0.065,0.054 v 0 c 0.007,0.006 0.013,0.011 0.02,0.017 v 0 c 0.023,0.018 0.044,0.036 0.067,0.054 v 0 c 0.006,0.005 0.012,0.01 0.018,0.015 v 0 c 0.022,0.018 0.042,0.034 0.064,0.052 v 0 c 0.005,0.004 0.009,0.007 0.014,0.011 v 0 c 0.021,0.017 0.042,0.034 0.063,0.051 v 0 c 0.007,0.005 0.014,0.011 0.02,0.016 v 0 c 0.022,0.017 0.044,0.035 0.066,0.052 v 0 c 0.007,0.006 0.015,0.012 0.021,0.017 v 0 c 0.021,0.016 0.042,0.032 0.062,0.048 v 0 c 0.007,0.006 0.014,0.011 0.021,0.017 v 0 c 0.019,0.014 0.038,0.029 0.057,0.044 v 0 c 0.008,0.006 0.015,0.012 0.023,0.018 v 0 c 0.022,0.017 0.043,0.033 0.066,0.05 v 0 c 0.007,0.005 0.014,0.011 0.021,0.016 v 0 c 0.022,0.017 0.043,0.033 0.065,0.05 v 0 c 0.007,0.005 0.013,0.01 0.02,0.015 v 0 c 0.019,0.014 0.038,0.028 0.057,0.043 v 0 c 0.007,0.005 0.015,0.01 0.022,0.016 v 0 c 0.021,0.016 0.044,0.032 0.065,0.048 v 0 c 0.009,0.007 0.017,0.013 0.026,0.019 v 0 c 0.02,0.015 0.042,0.031 0.063,0.046 v 0 c 0.008,0.006 0.016,0.012 0.024,0.018 v 0 c 0.017,0.013 0.035,0.025 0.052,0.038 v 0 c 0.008,0.006 0.017,0.012 0.025,0.018 v 0 c 0.021,0.015 0.043,0.031 0.064,0.046 v 0 c 0.009,0.006 0.018,0.013 0.027,0.02 v 0 c 0.02,0.014 0.04,0.028 0.059,0.042 v 0 c 0.011,0.007 0.022,0.015 0.033,0.023 v 0 c 0.015,0.01 0.03,0.021 0.045,0.031 v 0 c 0.011,0.008 0.021,0.015 0.032,0.023 v 0 c 0.02,0.013 0.039,0.027 0.059,0.04 v 0 c 0.011,0.008 0.022,0.016 0.033,0.023 v 0 c 0.019,0.013 0.038,0.026 0.057,0.039 v 0 c 0.011,0.008 0.023,0.016 0.034,0.024 v 0 c 0.015,0.01 0.029,0.019 0.043,0.029 v 0 c 0.013,0.009 0.026,0.017 0.039,0.026 v 0 c 0.018,0.012 0.036,0.024 0.054,0.037 v 0 c 0.011,0.007 0.021,0.014 0.032,0.021 v 0 c 0.02,0.013 0.041,0.027 0.062,0.041 v 0 c 0.01,0.007 0.021,0.014 0.032,0.021 v 0 c 0.014,0.01 0.028,0.019 0.043,0.028 v 0 c 0.014,0.01 0.029,0.019 0.044,0.029 v 0 c 0.016,0.01 0.032,0.021 0.048,0.031 v 0 c 0.012,0.008 0.024,0.015 0.036,0.023 v 0 c 0.02,0.013 0.039,0.025 0.059,0.038 v 0 c 0.012,0.008 0.023,0.015 0.034,0.022 v 0 c 0.015,0.009 0.029,0.018 0.043,0.027 v 0 c 0.016,0.01 0.032,0.02 0.049,0.031 v 0 c 0.013,0.008 0.028,0.017 0.042,0.026 v 0 c 0.013,0.008 0.026,0.016 0.039,0.024 v 0 c 0.019,0.012 0.039,0.024 0.058,0.036 v 0 c 0.012,0.008 0.025,0.015 0.037,0.023 v 0 c 0.014,0.008 0.027,0.016 0.04,0.025 v 0 c 0.017,0.01 0.034,0.02 0.051,0.031 v 0 c 0.015,0.008 0.029,0.017 0.044,0.026 v 0 c 0.012,0.007 0.024,0.014 0.036,0.022 v 0 c 0.02,0.012 0.041,0.024 0.061,0.036 v 0 c 0.012,0.007 0.024,0.014 0.036,0.021 v 0 c 0.014,0.009 0.028,0.017 0.042,0.025 v 0 c 0.018,0.01 0.035,0.021 0.053,0.031 v 0 c 0.013,0.008 0.027,0.016 0.04,0.023 v 0 c 0.013,0.008 0.026,0.015 0.039,0.023 v 0 c 0.02,0.011 0.04,0.023 0.06,0.034 v 0 c 0.012,0.007 0.025,0.014 0.037,0.021 v 0 c 0.015,0.009 0.029,0.017 0.044,0.025 v 0 c 0.017,0.01 0.034,0.019 0.05,0.028 v 0 c 0.015,0.009 0.03,0.017 0.044,0.025 v 0 c 0.012,0.007 0.025,0.014 0.037,0.02 v 0 c 0.02,0.012 0.041,0.023 0.061,0.034 v 0 c 0.013,0.007 0.025,0.014 0.038,0.021 v 0 c 0.015,0.008 0.031,0.017 0.046,0.025 v 0 c 0.016,0.009 0.032,0.018 0.048,0.026 v 0 c 0.016,0.009 0.031,0.017 0.046,0.025 v 0 c 0.012,0.006 0.023,0.012 0.034,0.018 v 0 c 0.021,0.012 0.043,0.023 0.064,0.034 v 0 c 0.012,0.006 0.024,0.013 0.035,0.019 v 0 c 0.02,0.01 0.039,0.02 0.058,0.03 v 0 c 0.013,0.007 0.024,0.013 0.036,0.019 v 0 c 0.018,0.009 0.036,0.018 0.053,0.027 v 0 c 0.01,0.005 0.02,0.011 0.03,0.016 v 0 c 0.023,0.011 0.046,0.023 0.068,0.034 v 0 c 0.011,0.006 0.021,0.011 0.032,0.017 v 0 c 0.02,0.01 0.041,0.02 0.061,0.03 v 0 c 0.013,0.007 0.026,0.013 0.039,0.02 v 0 c 0.016,0.007 0.032,0.016 0.048,0.023 v 0 c 0.01,0.006 0.021,0.011 0.032,0.016 v 0 c 0.023,0.012 0.046,0.023 0.069,0.034 v 0 c 0.01,0.005 0.02,0.01 0.03,0.015 v 0 c 0.024,0.011 0.047,0.022 0.071,0.034 v 0 c 0.009,0.004 0.019,0.009 0.028,0.013 v 0 c 0.018,0.009 0.037,0.018 0.055,0.027 v 0 c 0.01,0.004 0.018,0.008 0.028,0.013 v 0 c 0.024,0.011 0.049,0.023 0.073,0.034 v 0 c 0.008,0.004 0.017,0.008 0.025,0.012 v 0 c 0.025,0.011 0.051,0.023 0.076,0.035 v 0 c 0.007,0.003 0.015,0.006 0.022,0.01 v 0 c 0.022,0.01 0.045,0.02 0.068,0.031 v 0 c 0.006,0.002 0.011,0.005 0.017,0.008 v 0 c 0.026,0.011 0.051,0.022 0.076,0.034 v 0 c 0.009,0.004 0.018,0.008 0.027,0.012 v 0 c 0.025,0.011 0.05,0.022 0.075,0.033 v 0 c 0.008,0.003 0.016,0.007 0.024,0.01 v 0 c 0.022,0.01 0.044,0.019 0.067,0.029 v 0 c 0.006,0.003 0.012,0.006 0.018,0.008 v 0 c 0.027,0.012 0.053,0.023 0.08,0.034 v 0 c 0.007,0.003 0.014,0.006 0.021,0.009 v 0 c 0.026,0.012 0.053,0.023 0.08,0.034 v 0 c 0.006,0.003 0.013,0.005 0.019,0.008 v 0 c 0.027,0.011 0.054,0.022 0.08,0.033 v 0 c 0.002,10e-4 0.004,0.002 0.006,0.003 v 0 c 0.028,0.011 0.057,0.023 0.085,0.034 v 0 c 0.006,0.003 0.012,0.005 0.018,0.008 v 0 c 0.028,0.011 0.056,0.022 0.084,0.033 v 0 c 0.004,0.002 0.009,0.004 0.014,0.006 v 0 c 0.06,0.024 0.119,0.047 0.179,0.07 v 0 c 0.004,0.002 0.008,0.003 0.012,0.005 v 0 c 0.029,0.011 0.059,0.022 0.089,0.034 v 0 c 0.003,0.001 0.007,0.002 0.01,0.004 v 0 c 0.063,0.023 0.124,0.046 0.187,0.069 v 0 c 0.002,10e-4 0.003,0.002 0.005,0.002 v 0 c 0.032,0.012 0.063,0.023 0.096,0.035 v 0 c 0,0 10e-4,0 0.002,10e-4 v 0 c 1.686,0.606 3.472,0.969 5.326,1.051 v 0 z" /></clipPath><linearGradient
       id="linearGradient104"
       spreadMethod="pad"
       gradientTransform="matrix(21.341291,0,0,-21.341291,7.4861088,301.79077)"
       gradientUnits="userSpaceOnUse"
       y2="0"
       x2="1"
       y1="0"
       x1="0"><stop
         id="stop96"
         offset="0"
         style="stop-opacity:1;stop-color:#25a09a" /><stop
         id="stop98"
         offset="0.11229"
         style="stop-opacity:1;stop-color:#25a09a" /><stop
         id="stop100"
         offset="0.59699073"
         style="stop-opacity:1;stop-color:#51c1be" /><stop
         id="stop102"
         offset="1"
         style="stop-opacity:1;stop-color:#51c1be" /></linearGradient><clipPath
       id="clipPath114"
       clipPathUnits="userSpaceOnUse"><path
         id="path112"
         d="M 0,306.335 H 229.392 V 0 H 0 Z" /></clipPath><clipPath
       id="clipPath126"
       clipPathUnits="userSpaceOnUse"><path
         id="path124"
         d="M 6.032,36.949 C 6.346,24.269 15.681,14.188 26.874,14.44 v 0 l 9.112,0.297 C 24.792,14.486 15.458,24.567 15.144,37.246 v 0 z" /></clipPath><linearGradient
       id="linearGradient140"
       spreadMethod="pad"
       gradientTransform="matrix(29.954199,0,0,-29.954199,6.032001,25.84016)"
       gradientUnits="userSpaceOnUse"
       y2="0"
       x2="1"
       y1="0"
       x1="0"><stop
         id="stop132"
         offset="0"
         style="stop-opacity:1;stop-color:#25a09a" /><stop
         id="stop134"
         offset="0.11229"
         style="stop-opacity:1;stop-color:#25a09a" /><stop
         id="stop136"
         offset="0.59699073"
         style="stop-opacity:1;stop-color:#51c1be" /><stop
         id="stop138"
         offset="1"
         style="stop-opacity:1;stop-color:#51c1be" /></linearGradient><clipPath
       id="clipPath150"
       clipPathUnits="userSpaceOnUse"><path
         id="path148"
         d="M 6.032,36.949 C 6.341,24.45 15.418,14.475 26.399,14.435 v 0 c 0.022,0 0.043,0 0.065,0 v 0 c 0,0 0,0 0,0 v 0 c 0.136,0 0.273,0.002 0.41,0.005 v 0 l 9.112,0.297 c -0.135,-0.003 -0.271,-0.005 -0.407,-0.005 v 0 c 0,0 -10e-4,0 -0.002,0 v 0 c -0.021,0 -0.042,0 -0.064,0 v 0 C 24.53,14.77 15.453,24.746 15.144,37.246 v 0 z" /></clipPath><linearGradient
       id="linearGradient164"
       spreadMethod="pad"
       gradientTransform="matrix(29.954199,0,0,-29.954199,6.032001,25.84016)"
       gradientUnits="userSpaceOnUse"
       y2="0"
       x2="1"
       y1="0"
       x1="0"><stop
         id="stop156"
         offset="0"
         style="stop-opacity:1;stop-color:#25a09a" /><stop
         id="stop158"
         offset="0.11229"
         style="stop-opacity:1;stop-color:#25a09a" /><stop
         id="stop160"
         offset="0.59699073"
         style="stop-opacity:1;stop-color:#51c1be" /><stop
         id="stop162"
         offset="1"
         style="stop-opacity:1;stop-color:#51c1be" /></linearGradient><clipPath
       id="clipPath174"
       clipPathUnits="userSpaceOnUse"><path
         id="path172"
         d="M 0,306.335 H 229.392 V 0 H 0 Z" /></clipPath><clipPath
       id="clipPath270"
       clipPathUnits="userSpaceOnUse"><path
         id="path268"
         d="M 166.102,114.626 C 161.608,100.93 142.195,21.926 140.311,13.721 v 0 c 2.943,-0.647 15.577,-2.507 15.577,-2.507 v 0 c 0,0 8.087,8.411 15.99,34.723 v 0 c 8.36,27.828 27.099,58.521 28.521,60.779 v 0 c 2.178,3.456 1.838,13.03 1.838,13.03 v 0 c 0,0 -27.433,-1.825 -36.135,-5.12" /></clipPath><linearGradient
       id="linearGradient284"
       spreadMethod="pad"
       gradientTransform="matrix(61.946075,0,0,-61.946075,140.31079,65.480461)"
       gradientUnits="userSpaceOnUse"
       y2="0"
       x2="1"
       y1="0"
       x1="0"><stop
         id="stop276"
         offset="0"
         style="stop-opacity:1;stop-color:#25a09a" /><stop
         id="stop278"
         offset="0.11229"
         style="stop-opacity:1;stop-color:#25a09a" /><stop
         id="stop280"
         offset="0.59699073"
         style="stop-opacity:1;stop-color:#51c1be" /><stop
         id="stop282"
         offset="1"
         style="stop-opacity:1;stop-color:#51c1be" /></linearGradient><clipPath
       id="clipPath294"
       clipPathUnits="userSpaceOnUse"><path
         id="path292"
         d="M 0,306.335 H 229.392 V 0 H 0 Z" /></clipPath><clipPath
       id="clipPath318"
       clipPathUnits="userSpaceOnUse"><path
         id="path316"
         d="m 165.287,139.038 0.808,-20.22 12.575,22.405 z" /></clipPath><clipPath
       id="clipPath326"
       clipPathUnits="userSpaceOnUse"><path
         id="path324"
         d="M -32768,32767 H 32767 V -32768 H -32768 Z" /></clipPath><linearGradient
       id="linearGradient334"
       spreadMethod="pad"
       gradientTransform="matrix(-2.3192213,16.466457,16.466457,2.3192213,173.18542,124.31824)"
       gradientUnits="userSpaceOnUse"
       y2="0"
       x2="1"
       y1="0"
       x1="0"><stop
         id="stop328"
         offset="0"
         style="stop-opacity:0;stop-color:#ffffff" /><stop
         id="stop330"
         offset="0.93676"
         style="stop-opacity:0.70000763;stop-color:#ffffff" /><stop
         id="stop332"
         offset="1"
         style="stop-opacity:0.70000763;stop-color:#ffffff" /></linearGradient><mask
       id="mask336"
       height="1"
       width="1"
       y="0"
       x="0"
       maskUnits="userSpaceOnUse"><g
         id="g346"><g
           id="g344"
           clip-path="url(#clipPath326)"><g
             id="g342"><g
               id="g340"><path
                 id="path338"
                 style="fill:url(#linearGradient334);stroke:none"
                 d="M -32768,32767 H 32767 V -32768 H -32768 Z" /></g></g></g></g></mask><linearGradient
       id="linearGradient358"
       spreadMethod="pad"
       gradientTransform="matrix(-2.3192213,16.466457,16.466457,2.3192213,173.18542,124.31824)"
       gradientUnits="userSpaceOnUse"
       y2="0"
       x2="1"
       y1="0"
       x1="0"><stop
         id="stop352"
         offset="0"
         style="stop-opacity:1;stop-color:#ed799a" /><stop
         id="stop354"
         offset="0.93676"
         style="stop-opacity:1;stop-color:#ff6355" /><stop
         id="stop356"
         offset="1"
         style="stop-opacity:1;stop-color:#ff6355" /></linearGradient><clipPath
       id="clipPath368"
       clipPathUnits="userSpaceOnUse"><path
         id="path366"
         d="M 0,306.335 H 229.392 V 0 H 0 Z" /></clipPath></defs><g
     transform="matrix(1.3333333,0,0,-1.3333333,0,408.44667)"
     id="g10"><g
       id="g12"><g
         clip-path="url(#clipPath18)"
         id="g14"><g
           id="g20"><g
             id="g22"><path
               id="path34"
               style="fill:url(#linearGradient32);stroke:none"
               d="m 28.459,304.44 0.368,0.012 c -0.123,-0.003 -0.246,-0.007 -0.368,-0.012 m -8.744,-0.286 C 8.522,303.903 -0.305,293.422 0.008,280.734 v 0 l 9.113,0.298 c -0.311,12.548 8.32,22.937 19.338,23.408 v 0 z" /></g></g></g></g><g
       id="g36"><g
         clip-path="url(#clipPath42)"
         id="g38"><g
           id="g44"><g
             id="g46"><path
               id="path58"
               style="fill:url(#linearGradient56);stroke:none"
               d="m 2.35,292.095 c -0.012,-0.024 -0.023,-0.049 -0.034,-0.073 v 0 C 2.314,292.017 2.312,292.014 2.31,292.009 v 0 c -0.011,-0.022 -0.021,-0.045 -0.031,-0.067 v 0 C 2.278,291.94 2.276,291.937 2.275,291.934 v 0 c -0.023,-0.05 -0.046,-0.099 -0.068,-0.149 v 0 C 2.204,291.779 2.2,291.771 2.197,291.764 v 0 C 2.19,291.747 2.182,291.73 2.175,291.713 v 0 c -0.004,-0.008 -0.008,-0.017 -0.012,-0.026 v 0 c -0.009,-0.02 -0.018,-0.04 -0.027,-0.061 v 0 c -0.002,-0.003 -0.004,-0.007 -0.005,-0.01 v 0 C 2.12,291.592 2.11,291.568 2.099,291.544 v 0 C 2.096,291.536 2.093,291.529 2.09,291.522 v 0 c -0.008,-0.018 -0.016,-0.036 -0.023,-0.053 v 0 c -0.004,-0.008 -0.007,-0.015 -0.01,-0.023 v 0 c -0.008,-0.018 -0.016,-0.037 -0.024,-0.055 v 0 c -0.003,-0.007 -0.006,-0.013 -0.009,-0.02 v 0 c -0.01,-0.024 -0.02,-0.048 -0.031,-0.072 v 0 C 1.99,291.292 1.987,291.284 1.984,291.277 v 0 c -0.007,-0.016 -0.014,-0.032 -0.02,-0.048 v 0 C 1.959,291.218 1.955,291.208 1.95,291.197 v 0 c -0.006,-0.014 -0.012,-0.028 -0.018,-0.042 v 0 c -0.004,-0.011 -0.009,-0.022 -0.013,-0.033 v 0 c -0.008,-0.018 -0.016,-0.037 -0.023,-0.055 v 0 c -0.005,-0.012 -0.01,-0.023 -0.015,-0.035 v 0 c -0.006,-0.016 -0.013,-0.033 -0.02,-0.049 v 0 C 1.857,290.972 1.852,290.96 1.847,290.949 v 0 c -0.005,-0.013 -0.011,-0.027 -0.016,-0.04 v 0 c -0.005,-0.012 -0.01,-0.024 -0.015,-0.036 v 0 c -0.004,-0.012 -0.009,-0.024 -0.014,-0.036 v 0 C 1.791,290.811 1.781,290.785 1.77,290.758 v 0 c -0.002,-0.007 -0.005,-0.014 -0.008,-0.021 v 0 c -0.006,-0.015 -0.012,-0.03 -0.018,-0.045 v 0 c -0.003,-0.009 -0.007,-0.018 -0.011,-0.027 v 0 C 1.728,290.65 1.721,290.634 1.716,290.62 v 0 c -0.004,-0.009 -0.007,-0.017 -0.01,-0.026 v 0 C 1.7,290.578 1.694,290.564 1.688,290.548 v 0 c -10e-4,-0.002 -0.002,-0.005 -0.003,-0.007 v 0 C 1.67,290.503 1.656,290.466 1.642,290.428 v 0 C 1.64,290.424 1.639,290.421 1.638,290.417 v 0 c -0.007,-0.018 -0.014,-0.036 -0.021,-0.055 v 0 c -0.002,-0.005 -0.004,-0.009 -0.005,-0.013 v 0 c -0.031,-0.081 -0.061,-0.162 -0.09,-0.243 v 0 C 1.52,290.102 1.519,290.098 1.517,290.095 v 0 c -0.007,-0.02 -0.014,-0.04 -0.021,-0.06 v 0 c 0,0 0,-0.001 -10e-4,-0.001 v 0 c -0.947,-2.62 -1.476,-5.485 -1.494,-8.484 v 0 C 0.001,281.549 0,281.548 0,281.548 v 0 c 0,-0.093 0,-0.187 0,-0.281 v 0 c 0,-0.007 0,-0.015 0,-0.023 v 0 c 0.001,-0.019 0.001,-0.038 0.001,-0.057 v 0 c 0,-0.009 0,-0.017 0,-0.026 v 0 c 0,-0.018 0,-0.036 0.001,-0.054 v 0 c 0,-0.01 0,-0.02 0,-0.03 v 0 c 0,-0.029 0.001,-0.058 0.001,-0.088 v 0 c 0,-0.015 0.001,-0.031 0.001,-0.046 v 0 c 0,-0.012 0,-0.025 0,-0.038 v 0 c 0.001,-0.017 0.001,-0.035 0.001,-0.052 v 0 c 0.001,-0.011 0.001,-0.022 0.001,-0.033 v 0 c 0.001,-0.028 0.001,-0.057 0.002,-0.086 v 0 l 9.113,0.298 c -0.001,0.029 -0.002,0.059 -0.002,0.088 v 0 c -10e-4,0.008 -10e-4,0.016 -10e-4,0.024 v 0 c 0,0.022 -10e-4,0.044 -10e-4,0.067 v 0 c 0,0.008 0,0.015 -0.001,0.023 v 0 c 0,0.025 0,0.048 -10e-4,0.073 v 0 c 0,0.006 0,0.011 0,0.017 v 0 c 0,0.03 -10e-4,0.058 -10e-4,0.088 v 0 c 0,0.005 0,0.011 0,0.017 v 0 c 0,0.023 -0.001,0.046 -0.001,0.069 v 0 c 0,0.009 0,0.018 0,0.027 v 0 c 0,0.023 0,0.046 0,0.069 v 0 c 0,0.007 0,0.013 0,0.019 v 0 c 0,0.03 -10e-4,0.058 -10e-4,0.088 v 0 c 0,0.004 10e-4,0.009 10e-4,0.013 v 0 c 0,0.025 0,0.052 0,0.078 v 0 c 0,0.005 0,0.011 0,0.016 v 0 c 0,0.026 0,0.052 0,0.078 v 0 c 0,0.004 0,0.009 0,0.013 v 0 c 0.001,0.031 0.001,0.061 0.001,0.092 v 0 c 0,0 0,0.001 0,0.001 v 0 c 10e-4,0.028 10e-4,0.056 10e-4,0.084 v 0 c 0,0.008 10e-4,0.015 10e-4,0.023 v 0 c 0,0.023 0,0.048 0.001,0.072 v 0 c 0,0.005 0,0.011 0,0.016 v 0 c 10e-4,0.061 0.003,0.121 0.004,0.181 v 0 c 0,0.003 0,0.006 10e-4,0.009 v 0 c 0,0.029 10e-4,0.057 0.002,0.086 v 0 c 0,0.002 0,0.004 0,0.007 v 0 c 0.003,0.093 0.006,0.186 0.01,0.278 v 0 c 0,0.002 0,0.004 0,0.006 v 0 c 0.004,0.092 0.008,0.185 0.013,0.277 v 0 c 0,0.003 0,0.005 0,0.008 v 0 c 0.174,3.365 0.99,6.535 2.315,9.354 v 0 z" /></g></g></g></g><g
       id="g60"><g
         clip-path="url(#clipPath66)"
         id="g62"><g
           id="g68"><g
             id="g70"><path
               id="path82"
               style="fill:url(#linearGradient80);stroke:none"
               d="m 7.486,299.129 c -0.006,-0.005 -0.011,-0.01 -0.017,-0.015 v 0 c -0.021,-0.019 -0.042,-0.039 -0.063,-0.058 v 0 c -0.012,-0.011 -0.023,-0.022 -0.035,-0.032 v 0 c -0.02,-0.019 -0.04,-0.038 -0.06,-0.057 v 0 c -0.013,-0.011 -0.024,-0.022 -0.036,-0.033 v 0 c -0.02,-0.019 -0.04,-0.038 -0.06,-0.056 v 0 c -0.016,-0.015 -0.031,-0.03 -0.047,-0.045 v 0 c -0.016,-0.015 -0.031,-0.03 -0.047,-0.045 v 0 c -0.018,-0.017 -0.037,-0.035 -0.055,-0.053 v 0 C 7.053,298.723 7.041,298.71 7.028,298.698 v 0 c -0.02,-0.019 -0.04,-0.039 -0.06,-0.058 v 0 c -0.011,-0.011 -0.021,-0.021 -0.032,-0.032 v 0 c -0.022,-0.021 -0.045,-0.044 -0.067,-0.065 v 0 c -0.007,-0.008 -0.015,-0.016 -0.023,-0.024 v 0 c -0.024,-0.023 -0.047,-0.046 -0.07,-0.069 v 0 C 6.768,298.442 6.76,298.434 6.753,298.427 v 0 c -0.024,-0.024 -0.047,-0.048 -0.071,-0.072 v 0 C 6.676,298.349 6.67,298.343 6.664,298.336 v 0 c -0.025,-0.025 -0.05,-0.05 -0.075,-0.076 v 0 c -0.003,-0.004 -0.007,-0.008 -0.011,-0.011 v 0 c -0.595,-0.613 -1.157,-1.265 -1.682,-1.953 v 0 c -0.001,0 -0.001,-10e-4 -0.001,-10e-4 v 0 c -0.026,-0.034 -0.052,-0.067 -0.077,-0.101 v 0 C 4.816,296.192 4.815,296.19 4.814,296.189 v 0 c -0.026,-0.034 -0.051,-0.068 -0.076,-0.102 v 0 c 0,0 -0.001,-10e-4 -0.001,-10e-4 v 0 c -0.142,-0.19 -0.28,-0.382 -0.416,-0.577 v 0 c -0.002,-0.002 -0.004,-0.005 -0.006,-0.008 v 0 C 4.294,295.47 4.272,295.439 4.251,295.409 v 0 c -0.004,-0.007 -0.009,-0.013 -0.013,-0.02 v 0 c -0.02,-0.028 -0.04,-0.057 -0.059,-0.086 v 0 c -0.006,-0.009 -0.012,-0.017 -0.018,-0.026 v 0 C 4.142,295.249 4.123,295.22 4.104,295.193 v 0 c -0.006,-0.009 -0.012,-0.019 -0.018,-0.028 v 0 C 4.067,295.137 4.049,295.11 4.03,295.082 v 0 c -0.007,-0.01 -0.014,-0.021 -0.021,-0.031 v 0 C 3.992,295.024 3.974,294.997 3.956,294.97 v 0 c -0.007,-0.011 -0.014,-0.022 -0.021,-0.033 v 0 c -0.018,-0.026 -0.034,-0.052 -0.052,-0.078 v 0 c -0.008,-0.013 -0.016,-0.027 -0.025,-0.04 v 0 c -0.015,-0.024 -0.031,-0.048 -0.047,-0.072 v 0 C 3.8,294.729 3.789,294.712 3.778,294.694 v 0 c -0.013,-0.02 -0.025,-0.039 -0.038,-0.06 v 0 C 3.726,294.612 3.712,294.59 3.699,294.569 v 0 c -0.011,-0.017 -0.021,-0.033 -0.031,-0.05 v 0 C 3.653,294.496 3.639,294.473 3.625,294.45 v 0 c -0.009,-0.015 -0.019,-0.03 -0.028,-0.045 v 0 c -0.015,-0.024 -0.03,-0.049 -0.045,-0.073 v 0 C 3.544,294.318 3.535,294.303 3.527,294.29 v 0 c -0.015,-0.025 -0.031,-0.05 -0.046,-0.075 v 0 c -0.008,-0.014 -0.016,-0.028 -0.024,-0.041 v 0 c -0.016,-0.026 -0.031,-0.052 -0.046,-0.078 v 0 c -0.009,-0.014 -0.017,-0.028 -0.025,-0.042 v 0 C 3.37,294.028 3.355,294.002 3.339,293.976 v 0 c -0.008,-0.014 -0.016,-0.029 -0.024,-0.042 v 0 C 3.3,293.907 3.284,293.881 3.269,293.855 v 0 C 3.261,293.84 3.253,293.826 3.244,293.812 v 0 c -0.015,-0.027 -0.031,-0.054 -0.046,-0.081 v 0 c -0.008,-0.014 -0.015,-0.027 -0.022,-0.04 v 0 c -0.017,-0.029 -0.033,-0.057 -0.049,-0.086 v 0 C 3.12,293.593 3.114,293.582 3.108,293.571 v 0 C 3.091,293.54 3.073,293.509 3.056,293.478 v 0 c -0.005,-0.009 -0.01,-0.019 -0.015,-0.028 v 0 c -0.017,-0.031 -0.035,-0.063 -0.052,-0.094 v 0 C 2.985,293.348 2.98,293.338 2.975,293.331 v 0 C 2.958,293.298 2.94,293.266 2.923,293.234 v 0 C 2.919,293.226 2.914,293.217 2.91,293.209 v 0 c -0.018,-0.033 -0.036,-0.066 -0.053,-0.1 v 0 c -0.004,-0.006 -0.008,-0.014 -0.011,-0.02 v 0 C 2.828,293.055 2.81,293.02 2.792,292.986 v 0 c -0.004,-0.007 -0.007,-0.013 -0.011,-0.02 v 0 c -0.018,-0.034 -0.036,-0.069 -0.054,-0.104 v 0 C 2.724,292.856 2.721,292.85 2.718,292.844 v 0 C 2.7,292.808 2.681,292.772 2.663,292.736 v 0 C 2.66,292.73 2.658,292.726 2.655,292.721 v 0 c -0.019,-0.038 -0.038,-0.076 -0.057,-0.114 v 0 c -10e-4,-0.003 -0.003,-0.006 -0.004,-0.009 v 0 c -0.02,-0.04 -0.04,-0.079 -0.06,-0.12 v 0 c 0,-0.001 -10e-4,-0.003 -0.002,-0.004 v 0 C 2.491,292.391 2.45,292.307 2.41,292.223 v 0 c 0,0 0,-0.001 0,-0.001 v 0 c -0.02,-0.043 -0.04,-0.085 -0.06,-0.127 v 0 l 9.112,0.298 c 1.059,2.252 2.443,4.281 4.083,6.002 v 0 c 0,0 0,0.001 0,0.001 v 0 c 0.031,0.032 0.061,0.063 0.092,0.095 v 0 c 10e-4,0.001 10e-4,0.002 0.002,0.002 v 0 c 0.03,0.031 0.06,0.063 0.09,0.093 v 0 c 0.002,0.002 0.003,0.003 0.004,0.004 v 0 c 0.062,0.064 0.124,0.127 0.187,0.189 v 0 c 10e-4,10e-4 0.003,0.003 0.004,0.004 v 0 c 0.029,0.03 0.059,0.059 0.089,0.088 v 0 c 0.003,0.003 0.006,0.007 0.009,0.01 v 0 c 0.029,0.028 0.057,0.055 0.085,0.083 v 0 c 0.004,0.004 0.008,0.007 0.012,0.011 v 0 c 0.028,0.027 0.055,0.054 0.083,0.081 v 0 c 0.005,0.004 0.009,0.008 0.014,0.013 v 0 c 0.027,0.026 0.055,0.052 0.082,0.079 v 0 c 0.005,0.004 0.009,0.008 0.013,0.012 v 0 c 0.028,0.026 0.056,0.053 0.084,0.079 v 0 c 0.005,0.004 0.009,0.008 0.013,0.012 v 0 c 0.029,0.027 0.058,0.054 0.087,0.081 v 0 c 0.003,0.003 0.006,0.005 0.009,0.008 v 0 c 0.03,0.028 0.061,0.056 0.092,0.084 v 0 c 0.001,0.001 0.002,0.002 0.003,0.003 v 0 z" /></g></g></g></g><g
       id="g84"><g
         clip-path="url(#clipPath90)"
         id="g86"><g
           id="g92"><g
             id="g94"><path
               id="path106"
               style="fill:url(#linearGradient104);stroke:none"
               d="m 28.827,304.452 c 0,0 0,0 0,0 m -0.096,-0.002 c -0.056,-0.002 -0.113,-0.004 -0.169,-0.006 v 0 c -0.024,-0.001 -0.047,-0.002 -0.071,-0.003 v 0 l 0.336,0.011 c -0.032,-10e-4 -0.064,-0.002 -0.096,-0.002 m -9.016,-0.296 c -0.033,-10e-4 -0.066,-0.002 -0.099,-0.002 v 0 c -0.005,-10e-4 -0.011,-10e-4 -0.015,-10e-4 v 0 c -0.033,-0.001 -0.065,-0.002 -0.098,-0.003 v 0 c -0.004,0 -0.009,0 -0.013,0 v 0 c -0.068,-0.003 -0.137,-0.006 -0.205,-0.009 v 0 c -0.002,0 -0.004,0 -0.007,0 v 0 c -0.035,-0.002 -0.07,-0.003 -0.105,-0.005 v 0 c 0,0 0,0 -10e-4,0 v 0 c -0.071,-0.004 -0.142,-0.008 -0.213,-0.013 v 0 c -0.001,0 -0.002,0 -0.004,0 v 0 c -0.035,-0.002 -0.07,-0.004 -0.105,-0.007 v 0 c -0.001,0 -0.001,0 -0.002,0 v 0 c -0.179,-0.013 -0.357,-0.028 -0.534,-0.046 v 0 c -0.001,0 -0.001,0 -0.001,0 v 0 c -0.106,-0.01 -0.212,-0.022 -0.318,-0.034 v 0 c -0.001,0 -0.002,-10e-4 -0.003,-10e-4 v 0 c -0.318,-0.037 -0.634,-0.083 -0.948,-0.137 v 0 c 0,0 -0.001,0 -0.001,0 v 0 c -0.103,-0.018 -0.207,-0.037 -0.31,-0.057 v 0 c -0.002,0 -0.004,-10e-4 -0.006,-10e-4 v 0 c -0.102,-0.019 -0.204,-0.04 -0.305,-0.061 v 0 c -0.002,0 -0.005,-10e-4 -0.007,-10e-4 v 0 c -0.033,-0.007 -0.066,-0.014 -0.099,-0.021 v 0 c -10e-4,-10e-4 -10e-4,-10e-4 -0.002,-10e-4 v 0 c -0.033,-0.007 -0.066,-0.014 -0.099,-0.021 v 0 c -0.002,-10e-4 -0.003,-10e-4 -0.005,-10e-4 v 0 c -0.032,-0.008 -0.064,-0.015 -0.096,-0.022 v 0 c -0.003,-10e-4 -0.008,-0.002 -0.011,-0.003 v 0 c -0.065,-0.014 -0.13,-0.03 -0.195,-0.045 v 0 c -0.002,-10e-4 -0.005,-10e-4 -0.007,-0.002 v 0 c -0.031,-0.007 -0.062,-0.015 -0.093,-0.022 v 0 c -0.005,-0.002 -0.01,-0.003 -0.015,-0.004 v 0 c -0.032,-0.008 -0.063,-0.016 -0.094,-0.023 v 0 c -10e-4,-10e-4 -10e-4,-10e-4 -0.003,-10e-4 v 0 c -0.031,-0.008 -0.061,-0.016 -0.092,-0.024 v 0 c -0.004,-0.001 -0.008,-0.002 -0.012,-0.003 v 0 c -0.03,-0.008 -0.059,-0.015 -0.089,-0.023 v 0 c -0.007,-0.002 -0.013,-0.004 -0.02,-0.005 v 0 c -0.029,-0.008 -0.059,-0.016 -0.089,-0.024 v 0 c -0.002,-0.001 -0.004,-0.001 -0.007,-0.002 v 0 c -0.028,-0.008 -0.056,-0.015 -0.084,-0.023 v 0 c -0.007,-0.002 -0.012,-0.003 -0.018,-0.005 v 0 c -0.029,-0.008 -0.058,-0.016 -0.087,-0.024 v 0 c -0.006,-0.002 -0.013,-0.004 -0.019,-0.006 v 0 c -0.029,-0.008 -0.057,-0.016 -0.086,-0.024 v 0 c -0.005,-0.002 -0.01,-0.003 -0.015,-0.005 v 0 c -0.025,-0.007 -0.051,-0.015 -0.076,-0.022 v 0 c -0.007,-0.002 -0.015,-0.005 -0.023,-0.007 v 0 c -0.027,-0.008 -0.054,-0.016 -0.081,-0.024 v 0 c -0.009,-0.003 -0.018,-0.005 -0.026,-0.008 v 0 c -0.025,-0.008 -0.049,-0.015 -0.074,-0.023 v 0 c -0.008,-0.002 -0.017,-0.005 -0.025,-0.007 v 0 c -0.023,-0.007 -0.046,-0.015 -0.068,-0.022 v 0 c -0.01,-0.003 -0.02,-0.006 -0.03,-0.009 v 0 c -0.025,-0.008 -0.05,-0.016 -0.075,-0.024 v 0 c -0.011,-0.003 -0.021,-0.007 -0.032,-0.01 v 0 c -0.021,-0.007 -0.042,-0.014 -0.063,-0.021 v 0 c -0.012,-0.003 -0.025,-0.008 -0.037,-0.012 v 0 c -0.02,-0.006 -0.041,-0.013 -0.061,-0.02 v 0 c -0.011,-0.004 -0.022,-0.007 -0.034,-0.011 v 0 c -0.023,-0.008 -0.047,-0.016 -0.071,-0.024 v 0 c -0.011,-0.004 -0.025,-0.009 -0.037,-0.013 v 0 c -0.018,-0.006 -0.035,-0.012 -0.054,-0.018 v 0 c -0.014,-0.005 -0.029,-0.01 -0.044,-0.015 v 0 c -0.018,-0.007 -0.036,-0.013 -0.055,-0.02 v 0 c -0.012,-0.004 -0.026,-0.009 -0.038,-0.013 v 0 c -0.023,-0.008 -0.045,-0.016 -0.068,-0.024 v 0 c -0.013,-0.005 -0.026,-0.01 -0.039,-0.015 v 0 c -0.015,-0.005 -0.03,-0.01 -0.044,-0.015 v 0 c -0.021,-0.008 -0.041,-0.016 -0.062,-0.023 v 0 c -0.014,-0.005 -0.028,-0.011 -0.042,-0.016 v 0 c -0.014,-0.005 -0.028,-0.01 -0.042,-0.015 v 0 c -0.022,-0.008 -0.044,-0.017 -0.066,-0.025 v 0 c -0.013,-0.005 -0.026,-0.01 -0.039,-0.015 v 0 c -0.015,-0.006 -0.03,-0.011 -0.045,-0.017 v 0 c -0.02,-0.008 -0.04,-0.016 -0.06,-0.023 v 0 c -0.014,-0.006 -0.027,-0.011 -0.04,-0.016 v 0 c -0.015,-0.006 -0.031,-0.012 -0.045,-0.018 v 0 c -0.016,-0.006 -0.031,-0.012 -0.046,-0.018 v 0 c -0.021,-0.008 -0.041,-0.016 -0.062,-0.024 v 0 c -0.01,-0.004 -0.021,-0.009 -0.031,-0.013 v 0 c -0.026,-0.01 -0.051,-0.02 -0.076,-0.031 v 0 c -0.01,-0.004 -0.021,-0.008 -0.031,-0.012 v 0 c -0.016,-0.007 -0.032,-0.013 -0.048,-0.02 v 0 c -0.007,-0.003 -0.015,-0.006 -0.022,-0.009 v 0 c -0.028,-0.012 -0.058,-0.024 -0.086,-0.036 v 0 c -0.008,-0.004 -0.017,-0.007 -0.025,-0.011 v 0 C 13.027,302.712 13,302.7 12.972,302.688 v 0 c -0.008,-0.003 -0.016,-0.007 -0.024,-0.01 v 0 c -0.017,-0.007 -0.033,-0.014 -0.05,-0.022 v 0 c -0.008,-0.003 -0.016,-0.007 -0.025,-0.01 v 0 c -0.027,-0.012 -0.054,-0.024 -0.081,-0.036 v 0 c -0.008,-0.004 -0.017,-0.008 -0.026,-0.011 v 0 c -0.027,-0.013 -0.055,-0.025 -0.083,-0.038 v 0 c -0.008,-0.003 -0.015,-0.006 -0.023,-0.01 v 0 c -0.017,-0.007 -0.034,-0.015 -0.051,-0.023 v 0 c -0.003,-0.001 -0.006,-0.003 -0.01,-0.004 v 0 c -0.032,-0.015 -0.065,-0.03 -0.097,-0.045 v 0 c -0.006,-0.003 -0.013,-0.006 -0.019,-0.009 v 0 c -0.032,-0.014 -0.065,-0.03 -0.097,-0.045 v 0 c -0.003,-0.001 -0.005,-0.002 -0.008,-0.004 v 0 c -0.018,-0.008 -0.037,-0.017 -0.055,-0.025 v 0 c -0.002,-0.002 -0.004,-0.002 -0.006,-0.003 v 0 c -0.034,-0.017 -0.069,-0.033 -0.103,-0.05 v 0 c -0.003,-0.001 -0.007,-0.003 -0.011,-0.005 v 0 c -0.035,-0.017 -0.07,-0.034 -0.105,-0.051 v 0 c -0.001,-10e-4 -0.002,-10e-4 -0.003,-0.002 v 0 c -0.054,-0.026 -0.108,-0.053 -0.162,-0.08 v 0 c -0.005,-0.002 -0.009,-0.005 -0.013,-0.007 v 0 c -0.036,-0.018 -0.071,-0.035 -0.106,-0.053 v 0 c 0,0 0,0 0,-10e-4 v 0 c -0.018,-0.009 -0.037,-0.018 -0.055,-0.028 v 0 c -0.002,-10e-4 -0.005,-0.002 -0.007,-0.003 v 0 c -0.033,-0.017 -0.066,-0.034 -0.099,-0.052 v 0 c -0.004,-0.002 -0.009,-0.004 -0.013,-0.007 v 0 c -0.054,-0.028 -0.107,-0.056 -0.16,-0.085 v 0 c -0.002,0 -0.002,-10e-4 -0.003,-10e-4 v 0 c -0.035,-0.019 -0.069,-0.037 -0.103,-0.056 v 0 c -0.004,-0.002 -0.007,-0.004 -0.01,-0.005 v 0 c -0.09,-0.049 -0.178,-0.098 -0.267,-0.149 v 0 c -0.002,-10e-4 -0.005,-0.003 -0.007,-0.004 v 0 c -0.09,-0.051 -0.18,-0.103 -0.269,-0.155 v 0 c -10e-4,-10e-4 -0.002,-10e-4 -0.002,-0.002 v 0 c -0.054,-0.031 -0.108,-0.064 -0.162,-0.096 v 0 c 0,0 0,0 0,0 v 0 c -0.034,-0.021 -0.069,-0.042 -0.104,-0.063 v 0 c -0.002,-10e-4 -0.004,-0.003 -0.006,-0.004 v 0 c -0.053,-0.032 -0.106,-0.065 -0.158,-0.097 v 0 c -10e-4,-10e-4 -0.002,-0.002 -0.003,-0.002 v 0 c -0.034,-0.022 -0.069,-0.043 -0.103,-0.065 v 0 c -10e-4,-10e-4 -0.002,-10e-4 -0.003,-0.002 v 0 c -0.052,-0.033 -0.105,-0.067 -0.157,-0.101 v 0 c -0.002,-10e-4 -0.003,-10e-4 -0.005,-0.002 v 0 c -0.033,-0.022 -0.066,-0.044 -0.099,-0.066 v 0 c -0.002,-10e-4 -0.003,-10e-4 -0.005,-0.003 v 0 c -0.051,-0.033 -0.102,-0.067 -0.153,-0.101 v 0 C 9.858,300.993 9.854,300.99 9.85,300.988 v 0 c -0.03,-0.021 -0.061,-0.042 -0.091,-0.062 v 0 C 9.756,300.924 9.753,300.922 9.75,300.92 v 0 c -0.051,-0.034 -0.101,-0.069 -0.151,-0.104 v 0 c -0.003,-0.002 -0.005,-0.003 -0.007,-0.005 v 0 C 9.56,300.789 9.529,300.768 9.498,300.746 v 0 C 9.495,300.744 9.493,300.742 9.49,300.74 v 0 c -0.05,-0.035 -0.1,-0.071 -0.15,-0.106 v 0 C 9.338,300.632 9.335,300.63 9.333,300.629 v 0 c -0.03,-0.022 -0.062,-0.045 -0.092,-0.067 v 0 C 9.238,300.56 9.235,300.558 9.232,300.556 v 0 C 9.184,300.52 9.135,300.485 9.087,300.449 v 0 c -0.005,-0.004 -0.009,-0.007 -0.014,-0.011 v 0 c -0.028,-0.02 -0.056,-0.041 -0.083,-0.062 v 0 c -0.005,-0.003 -0.009,-0.007 -0.014,-0.01 v 0 C 8.929,300.33 8.882,300.295 8.835,300.259 v 0 C 8.83,300.255 8.824,300.25 8.818,300.246 v 0 c -0.026,-0.02 -0.053,-0.041 -0.08,-0.062 v 0 c -0.005,-0.004 -0.009,-0.007 -0.013,-0.01 v 0 c -0.047,-0.037 -0.094,-0.073 -0.14,-0.11 v 0 C 8.579,300.06 8.574,300.055 8.568,300.051 v 0 C 8.542,300.03 8.516,300.009 8.49,299.988 v 0 C 8.485,299.984 8.48,299.98 8.475,299.976 v 0 C 8.46,299.964 8.444,299.952 8.429,299.939 v 0 c 0,0 -10e-4,0 -10e-4,0 v 0 c -0.03,-0.025 -0.059,-0.049 -0.09,-0.073 v 0 C 8.332,299.861 8.326,299.856 8.32,299.85 v 0 c -0.025,-0.02 -0.051,-0.041 -0.076,-0.062 v 0 c -0.005,-0.004 -0.011,-0.009 -0.016,-0.013 v 0 c -0.014,-0.012 -0.029,-0.024 -0.044,-0.036 v 0 C 8.18,299.735 8.176,299.731 8.171,299.728 v 0 C 8.145,299.706 8.12,299.685 8.094,299.663 v 0 c -0.006,-0.006 -0.013,-0.011 -0.019,-0.017 v 0 c -0.026,-0.021 -0.051,-0.043 -0.076,-0.064 v 0 C 7.995,299.578 7.99,299.574 7.986,299.571 v 0 c -0.015,-0.013 -0.03,-0.026 -0.045,-0.038 v 0 c -0.004,-0.004 -0.008,-0.007 -0.012,-0.011 v 0 C 7.904,299.5 7.879,299.479 7.854,299.457 v 0 c -0.008,-0.006 -0.015,-0.013 -0.022,-0.019 v 0 c -0.023,-0.02 -0.046,-0.04 -0.069,-0.061 v 0 C 7.757,299.372 7.75,299.366 7.744,299.36 v 0 C 7.73,299.348 7.716,299.336 7.702,299.324 v 0 C 7.696,299.318 7.69,299.313 7.684,299.307 v 0 c -0.023,-0.02 -0.047,-0.041 -0.07,-0.062 v 0 c -0.006,-0.006 -0.013,-0.012 -0.02,-0.018 v 0 c -0.023,-0.02 -0.046,-0.042 -0.069,-0.062 v 0 c -0.006,-0.006 -0.013,-0.012 -0.019,-0.018 v 0 C 7.5,299.142 7.493,299.135 7.486,299.129 v 0 l 9.113,0.298 c 0,10e-4 0.001,10e-4 0.002,0.002 v 0 c 0.022,0.021 0.046,0.043 0.069,0.063 v 0 c 0.005,0.004 0.009,0.008 0.014,0.013 v 0 c 0.023,0.02 0.046,0.041 0.069,0.062 v 0 c 0.003,0.003 0.007,0.006 0.01,0.009 v 0 c 0.023,0.02 0.046,0.041 0.069,0.061 v 0 c 0.002,10e-4 0.003,0.003 0.005,0.004 v 0 c 0.024,0.022 0.048,0.043 0.072,0.064 v 0 c 0.004,0.003 0.007,0.006 0.011,0.01 v 0 c 0.024,0.02 0.047,0.041 0.071,0.062 v 0 c 0.004,0.003 0.007,0.005 0.011,0.009 v 0 c 0.022,0.019 0.044,0.038 0.067,0.058 v 0 c 0.003,0.002 0.005,0.004 0.008,0.007 v 0 c 0.024,0.02 0.046,0.039 0.07,0.059 v 0 c 0.005,0.005 0.01,0.009 0.015,0.013 v 0 c 0.023,0.019 0.046,0.039 0.068,0.058 v 0 c 0.006,0.005 0.012,0.009 0.017,0.014 v 0 c 0.021,0.018 0.041,0.034 0.063,0.052 v 0 c 0.004,0.004 0.008,0.007 0.012,0.01 v 0 c 0.022,0.018 0.043,0.036 0.065,0.054 v 0 c 0.007,0.006 0.013,0.011 0.02,0.017 v 0 c 0.023,0.018 0.044,0.036 0.067,0.054 v 0 c 0.006,0.005 0.012,0.01 0.018,0.015 v 0 c 0.022,0.018 0.042,0.034 0.064,0.052 v 0 c 0.005,0.004 0.009,0.007 0.014,0.011 v 0 c 0.021,0.017 0.042,0.034 0.063,0.051 v 0 c 0.007,0.005 0.014,0.011 0.02,0.016 v 0 c 0.022,0.017 0.044,0.035 0.066,0.052 v 0 c 0.007,0.006 0.015,0.012 0.021,0.017 v 0 c 0.021,0.016 0.042,0.032 0.062,0.048 v 0 c 0.007,0.006 0.014,0.011 0.021,0.017 v 0 c 0.019,0.014 0.038,0.029 0.057,0.044 v 0 c 0.008,0.006 0.015,0.012 0.023,0.018 v 0 c 0.022,0.017 0.043,0.033 0.066,0.05 v 0 c 0.007,0.005 0.014,0.011 0.021,0.016 v 0 c 0.022,0.017 0.043,0.033 0.065,0.05 v 0 c 0.007,0.005 0.013,0.01 0.02,0.015 v 0 c 0.019,0.014 0.038,0.028 0.057,0.043 v 0 c 0.007,0.005 0.015,0.01 0.022,0.016 v 0 c 0.021,0.016 0.044,0.032 0.065,0.048 v 0 c 0.009,0.007 0.017,0.013 0.026,0.019 v 0 c 0.02,0.015 0.042,0.031 0.063,0.046 v 0 c 0.008,0.006 0.016,0.012 0.024,0.018 v 0 c 0.017,0.013 0.035,0.025 0.052,0.038 v 0 c 0.008,0.006 0.017,0.012 0.025,0.018 v 0 c 0.021,0.015 0.043,0.031 0.064,0.046 v 0 c 0.009,0.006 0.018,0.013 0.027,0.02 v 0 c 0.02,0.014 0.04,0.028 0.059,0.042 v 0 c 0.011,0.007 0.022,0.015 0.033,0.023 v 0 c 0.015,0.01 0.03,0.021 0.045,0.031 v 0 c 0.011,0.008 0.021,0.015 0.032,0.023 v 0 c 0.02,0.013 0.039,0.027 0.059,0.04 v 0 c 0.011,0.008 0.022,0.016 0.033,0.023 v 0 c 0.019,0.013 0.038,0.026 0.057,0.039 v 0 c 0.011,0.008 0.023,0.016 0.034,0.024 v 0 c 0.015,0.01 0.029,0.019 0.043,0.029 v 0 c 0.013,0.009 0.026,0.017 0.039,0.026 v 0 c 0.018,0.012 0.036,0.024 0.054,0.037 v 0 c 0.011,0.007 0.021,0.014 0.032,0.021 v 0 c 0.02,0.013 0.041,0.027 0.062,0.041 v 0 c 0.01,0.007 0.021,0.014 0.032,0.021 v 0 c 0.014,0.01 0.028,0.019 0.043,0.028 v 0 c 0.014,0.01 0.029,0.019 0.044,0.029 v 0 c 0.016,0.01 0.032,0.021 0.048,0.031 v 0 c 0.012,0.008 0.024,0.015 0.036,0.023 v 0 c 0.02,0.013 0.039,0.025 0.059,0.038 v 0 c 0.012,0.008 0.023,0.015 0.034,0.022 v 0 c 0.015,0.009 0.029,0.018 0.043,0.027 v 0 c 0.016,0.01 0.032,0.02 0.049,0.031 v 0 c 0.013,0.008 0.028,0.017 0.042,0.026 v 0 c 0.013,0.008 0.026,0.016 0.039,0.024 v 0 c 0.019,0.012 0.039,0.024 0.058,0.036 v 0 c 0.012,0.008 0.025,0.015 0.037,0.023 v 0 c 0.014,0.008 0.027,0.016 0.04,0.025 v 0 c 0.017,0.01 0.034,0.02 0.051,0.031 v 0 c 0.015,0.008 0.029,0.017 0.044,0.026 v 0 c 0.012,0.007 0.024,0.014 0.036,0.022 v 0 c 0.02,0.012 0.041,0.024 0.061,0.036 v 0 c 0.012,0.007 0.024,0.014 0.036,0.021 v 0 c 0.014,0.009 0.028,0.017 0.042,0.025 v 0 c 0.018,0.01 0.035,0.021 0.053,0.031 v 0 c 0.013,0.008 0.027,0.016 0.04,0.023 v 0 c 0.013,0.008 0.026,0.015 0.039,0.023 v 0 c 0.02,0.011 0.04,0.023 0.06,0.034 v 0 c 0.012,0.007 0.025,0.014 0.037,0.021 v 0 c 0.015,0.009 0.029,0.017 0.044,0.025 v 0 c 0.017,0.01 0.034,0.019 0.05,0.028 v 0 c 0.015,0.009 0.03,0.017 0.044,0.025 v 0 c 0.012,0.007 0.025,0.014 0.037,0.02 v 0 c 0.02,0.012 0.041,0.023 0.061,0.034 v 0 c 0.013,0.007 0.025,0.014 0.038,0.021 v 0 c 0.015,0.008 0.031,0.017 0.046,0.025 v 0 c 0.016,0.009 0.032,0.018 0.048,0.026 v 0 c 0.016,0.009 0.031,0.017 0.046,0.025 v 0 c 0.012,0.006 0.023,0.012 0.034,0.018 v 0 c 0.021,0.012 0.043,0.023 0.064,0.034 v 0 c 0.012,0.006 0.024,0.013 0.035,0.019 v 0 c 0.02,0.01 0.039,0.02 0.058,0.03 v 0 c 0.013,0.007 0.024,0.013 0.036,0.019 v 0 c 0.018,0.009 0.036,0.018 0.053,0.027 v 0 c 0.01,0.005 0.02,0.011 0.03,0.016 v 0 c 0.023,0.011 0.046,0.023 0.068,0.034 v 0 c 0.011,0.006 0.021,0.011 0.032,0.017 v 0 c 0.02,0.01 0.041,0.02 0.061,0.03 v 0 c 0.013,0.007 0.026,0.013 0.039,0.02 v 0 c 0.016,0.007 0.032,0.016 0.048,0.023 v 0 c 0.01,0.006 0.021,0.011 0.032,0.016 v 0 c 0.023,0.012 0.046,0.023 0.069,0.034 v 0 c 0.01,0.005 0.02,0.01 0.03,0.015 v 0 c 0.024,0.011 0.047,0.022 0.071,0.034 v 0 c 0.009,0.004 0.019,0.009 0.028,0.013 v 0 c 0.018,0.009 0.037,0.018 0.055,0.027 v 0 c 0.01,0.004 0.018,0.008 0.028,0.013 v 0 c 0.024,0.011 0.049,0.023 0.073,0.034 v 0 c 0.008,0.004 0.017,0.008 0.025,0.012 v 0 c 0.025,0.011 0.051,0.023 0.076,0.035 v 0 c 0.007,0.003 0.015,0.006 0.022,0.01 v 0 c 0.022,0.01 0.045,0.02 0.068,0.031 v 0 c 0.006,0.002 0.011,0.005 0.017,0.008 v 0 c 0.026,0.011 0.051,0.022 0.076,0.034 v 0 c 0.009,0.004 0.018,0.008 0.027,0.012 v 0 c 0.025,0.011 0.05,0.022 0.075,0.033 v 0 c 0.008,0.003 0.016,0.007 0.024,0.01 v 0 c 0.022,0.01 0.044,0.019 0.067,0.029 v 0 c 0.006,0.003 0.012,0.006 0.018,0.008 v 0 c 0.027,0.012 0.053,0.023 0.08,0.034 v 0 c 0.007,0.003 0.014,0.006 0.021,0.009 v 0 c 0.026,0.012 0.053,0.023 0.08,0.034 v 0 c 0.006,0.003 0.013,0.005 0.019,0.008 v 0 c 0.027,0.011 0.054,0.022 0.08,0.033 v 0 c 0.002,10e-4 0.004,0.002 0.006,0.003 v 0 c 0.028,0.011 0.057,0.023 0.085,0.034 v 0 c 0.006,0.003 0.012,0.005 0.018,0.008 v 0 c 0.028,0.011 0.056,0.022 0.084,0.033 v 0 c 0.004,0.002 0.009,0.004 0.014,0.006 v 0 c 0.06,0.024 0.119,0.047 0.179,0.07 v 0 c 0.004,0.002 0.008,0.003 0.012,0.005 v 0 c 0.029,0.011 0.059,0.022 0.089,0.034 v 0 c 0.003,0.001 0.007,0.002 0.01,0.004 v 0 c 0.063,0.023 0.124,0.046 0.187,0.069 v 0 c 0.002,10e-4 0.003,0.002 0.005,0.002 v 0 c 0.032,0.012 0.063,0.023 0.096,0.035 v 0 c 0,0 10e-4,0 0.002,10e-4 v 0 c 1.686,0.606 3.472,0.969 5.326,1.051 v 0 z" /></g></g></g></g><g
       id="g108"><g
         clip-path="url(#clipPath114)"
         id="g110"><g
           transform="translate(15.1443,37.2453)"
           id="g116"><path
             id="path118"
             style="fill:#1f8c8d;fill-opacity:1;fill-rule:nonzero;stroke:none"
             d="m 0,0 -9.112,-0.297 -6.024,243.786 9.112,0.298 z" /></g></g></g><g
       id="g120"><g
         clip-path="url(#clipPath126)"
         id="g122"><g
           id="g128"><g
             id="g130"><path
               id="path142"
               style="fill:url(#linearGradient140);stroke:none"
               d="M 6.032,36.949 C 6.346,24.269 15.681,14.188 26.874,14.44 v 0 l 9.112,0.297 C 24.792,14.486 15.458,24.567 15.144,37.246 v 0 z" /></g></g></g></g><g
       id="g144"><g
         clip-path="url(#clipPath150)"
         id="g146"><g
           id="g152"><g
             id="g154"><path
               id="path166"
               style="fill:url(#linearGradient164);stroke:none"
               d="M 6.032,36.949 C 6.341,24.45 15.418,14.475 26.399,14.435 v 0 c 0.022,0 0.043,0 0.065,0 v 0 c 0,0 0,0 0,0 v 0 c 0.136,0 0.273,0.002 0.41,0.005 v 0 l 9.112,0.297 c -0.135,-0.003 -0.271,-0.005 -0.407,-0.005 v 0 c 0,0 -10e-4,0 -0.002,0 v 0 c -0.021,0 -0.042,0 -0.064,0 v 0 C 24.53,14.77 15.453,24.746 15.144,37.246 v 0 z" /></g></g></g></g><g
       id="g168"><g
         clip-path="url(#clipPath174)"
         id="g170"><g
           transform="translate(117.4827,258.2878)"
           id="g176"><path
             id="path178"
             style="fill:#a6c7f7;fill-opacity:1;fill-rule:nonzero;stroke:none"
             d="m 0,0 0.194,-7.867 -38.907,-0.874 -0.194,7.867 z" /></g><g
           transform="translate(65.659,260.3996)"
           id="g180"><path
             id="path182"
             style="fill:#ffa192;fill-opacity:1;fill-rule:nonzero;stroke:none"
             d="m 0,0 c 3.77,0.085 6.94,-3.338 7.045,-7.608 l 0.81,-32.788 c 0.106,-4.269 -2.892,-7.822 -6.661,-7.907 l -34.182,-0.768 c -3.769,-0.084 -6.939,3.33 -7.045,7.6 l -0.81,32.787 c -0.105,4.27 2.892,7.832 6.662,7.916 z" /></g><g
           transform="translate(78.5755,257.4138)"
           id="g184"><path
             id="path186"
             style="fill:#ffffff;fill-opacity:1;fill-rule:nonzero;stroke:none"
             d="M 0,0 0.194,-7.867 39.102,-6.993 38.907,0.874 0,0 m 0.356,-14.407 0.194,-7.867 38.907,0.874 -0.194,7.867 -38.907,-0.874 m 43.818,-55.218 -0.195,7.868 -96.3,-2.163 0.195,-7.868 96.3,2.163 m 0.356,-14.407 -0.194,7.867 -96.301,-2.163 0.194,-7.867 96.301,2.163 m -98.289,78.334 0.81,-32.787 c 0.105,-4.27 3.275,-7.684 7.045,-7.6 l 34.181,0.768 c 3.77,0.085 6.767,3.638 6.662,7.907 l -0.811,32.787 c -0.105,4.27 -3.275,7.694 -7.045,7.609 L -47.098,2.218 c -3.77,-0.084 -6.767,-3.646 -6.661,-7.916 m 99.436,-176.541 -2.136,86.435 -95.021,-2.135 2.136,-86.434 95.021,2.134 M 47.151,15.57 52.557,-203.166 -55.854,-205.6 -61.259,13.136 Z" /></g><g
           transform="translate(117.8382,243.8805)"
           id="g188"><path
             id="path190"
             style="fill:#a6c7f7;fill-opacity:1;fill-rule:nonzero;stroke:none"
             d="m 0,0 0.195,-7.867 -38.907,-0.874 -0.195,7.867 z" /></g><g
           transform="translate(76.281,297.5148)"
           id="g192"><path
             id="path194"
             style="fill:#1f8c8d;fill-opacity:1;fill-rule:nonzero;stroke:none"
             d="M 0,0 C 0.995,0.022 1.827,-0.876 1.854,-2.011 1.882,-3.138 1.096,-4.073 0.101,-4.095 -0.901,-4.118 -1.733,-3.219 -1.761,-2.092 -1.789,-0.958 -1.002,-0.022 0,0" /></g><g
           transform="translate(86.2468,287.8317)"
           id="g196"><path
             id="path198"
             style="fill:#1f8c8d;fill-opacity:1;fill-rule:nonzero;stroke:none"
             d="M 0,0 C 0.625,0.014 1.147,-0.551 1.165,-1.258 1.182,-1.965 0.688,-2.553 0.063,-2.567 l -19.449,-0.437 c -0.625,-0.014 -1.148,0.551 -1.165,1.258 -0.018,0.707 0.477,1.295 1.101,1.309 z" /></g><g
           transform="translate(78.303,46.5002)"
           id="g200"><path
             id="path202"
             style="fill:#ffffff;fill-opacity:1;fill-rule:nonzero;stroke:none"
             d="M 0,0 C 4.995,0.112 9.179,-4.397 9.319,-10.064 9.459,-15.723 5.502,-20.415 0.507,-20.527 -4.488,-20.64 -8.672,-16.13 -8.812,-10.472 -8.952,-4.805 -4.996,-0.111 0,0" /></g><g
           transform="translate(56.8923,288.3693)"
           id="g204"><path
             id="path206"
             style="fill:#1f8c8d;fill-opacity:1;fill-rule:nonzero;stroke:none"
             d="M 0,0 C 1.164,0.026 2.139,-1.026 2.171,-2.345 2.204,-3.672 1.282,-4.759 0.118,-4.785 -1.046,-4.811 -2.021,-3.767 -2.053,-2.44 -2.086,-1.122 -1.164,-0.026 0,0" /></g><g
           transform="translate(122.1165,161.6095)"
           id="g208"><path
             id="path210"
             style="fill:#a6c7f7;fill-opacity:1;fill-rule:nonzero;stroke:none"
             d="m 0,0 2.136,-86.435 -95.021,-2.133 -2.136,86.433 z" /></g><g
           transform="translate(76.281,297.5148)"
           id="g212"><path
             id="path214"
             style="fill:#25a09a;fill-opacity:1;fill-rule:nonzero;stroke:none"
             d="m 0,0 c -1.002,-0.022 -1.789,-0.957 -1.761,-2.092 0.028,-1.127 0.86,-2.025 1.862,-2.003 0.995,0.023 1.781,0.957 1.753,2.084 C 1.827,-0.876 0.994,0.022 0,0 m -19.389,-9.146 c -1.164,-0.025 -2.086,-1.121 -2.053,-2.439 0.033,-1.328 1.007,-2.372 2.171,-2.345 1.165,0.026 2.086,1.112 2.054,2.439 -0.033,1.319 -1.008,2.372 -2.172,2.345 m 9.905,-0.974 c -0.624,-0.014 -1.119,-0.602 -1.101,-1.309 0.017,-0.707 0.54,-1.272 1.164,-1.258 l 19.45,0.437 c 0.625,0.014 1.119,0.602 1.101,1.309 -0.017,0.707 -0.54,1.272 -1.164,1.258 L -9.484,-10.12 M 2.548,-272.302 c 5.366,0.12 9.614,5.161 9.464,11.239 -0.15,6.085 -4.643,10.929 -10.009,10.809 -5.365,-0.121 -9.614,-5.161 -9.464,-11.247 0.15,-6.077 4.644,-10.921 10.009,-10.801 m 53,28.291 -5.442,220.255 -109.76,-2.465 5.442,-220.255 109.76,2.465 M 36.196,8.816 c 11.193,0.251 20.529,-9.822 20.843,-22.509 l 6.023,-243.786 c 0.313,-12.679 -8.514,-23.168 -19.707,-23.42 l -83.65,-1.879 c -11.193,-0.251 -20.528,9.831 -20.842,22.508 l -6.024,243.788 c -0.313,12.687 8.514,23.168 19.707,23.419 z" /></g><g
           transform="translate(122.5549,195.6564)"
           id="g216"><path
             id="path218"
             style="fill:#a6c7f7;fill-opacity:1;fill-rule:nonzero;stroke:none"
             d="M 0,0 0.194,-7.867 -96.105,-10.03 -96.3,-2.163 Z" /></g><g
           transform="translate(122.9114,181.2492)"
           id="g220"><path
             id="path222"
             style="fill:#a6c7f7;fill-opacity:1;fill-rule:nonzero;stroke:none"
             d="m 0,0 0.194,-7.867 -96.3,-2.163 -0.194,7.867 z" /></g><g
           transform="translate(202.1809,138.6222)"
           id="g224"><path
             id="path226"
             style="fill:#ff6355;fill-opacity:1;fill-rule:nonzero;stroke:none"
             d="m 0,0 -3.915,29.163 c 0,0 -25.279,4.266 -33.464,14.393 -7.64,9.453 -12.149,17.633 -12.149,17.633 l -12.617,-9.704 c 0,0 13.587,-33.967 39.791,-46.584" /></g><g
           transform="translate(145.7034,228.3854)"
           id="g228"><path
             id="path230"
             style="fill:#3c61c6;fill-opacity:1;fill-rule:nonzero;stroke:none"
             d="M 0,0 H 0.001 L -6.766,0.672 C -6.979,0.694 -7.195,0.701 -7.414,0.695 -7.434,0.694 -7.453,0.688 -7.473,0.687 -7.76,0.676 -8.05,0.645 -8.344,0.583 l -26.619,-5.605 c -0.104,-0.022 -0.208,-0.047 -0.31,-0.075 -0.06,-0.016 -0.116,-0.044 -0.174,-0.062 -0.164,-0.05 -0.327,-0.108 -0.489,-0.174 -0.098,-0.04 -0.197,-0.08 -0.294,-0.126 -0.166,-0.078 -0.327,-0.166 -0.486,-0.258 -0.062,-0.036 -0.128,-0.062 -0.189,-0.1 -0.022,-0.014 -0.041,-0.032 -0.063,-0.046 -0.255,-0.162 -0.503,-0.341 -0.742,-0.539 -0.034,-0.028 -0.065,-0.061 -0.098,-0.09 -0.205,-0.176 -0.403,-0.365 -0.595,-0.567 -0.072,-0.074 -0.139,-0.153 -0.209,-0.231 -0.153,-0.172 -0.301,-0.351 -0.445,-0.538 -0.065,-0.086 -0.131,-0.17 -0.194,-0.259 -0.162,-0.226 -0.316,-0.461 -0.463,-0.705 -0.026,-0.043 -0.057,-0.082 -0.082,-0.125 -0.005,-0.009 -0.01,-0.02 -0.016,-0.03 -0.168,-0.291 -0.326,-0.594 -0.473,-0.907 -0.039,-0.084 -0.073,-0.172 -0.111,-0.258 -0.104,-0.235 -0.203,-0.472 -0.293,-0.717 -0.018,-0.048 -0.041,-0.094 -0.059,-0.143 -0.015,-0.044 -0.023,-0.093 -0.039,-0.139 -0.16,-0.465 -0.3,-0.942 -0.411,-1.435 -0.004,-0.019 -0.011,-0.036 -0.015,-0.055 -0.011,-0.047 -0.014,-0.098 -0.024,-0.145 -0.084,-0.403 -0.149,-0.814 -0.197,-1.231 -0.006,-0.056 -0.021,-0.11 -0.026,-0.167 -0.003,-0.027 -0.002,-0.055 -0.004,-0.083 -0.044,-0.457 -0.064,-0.92 -0.062,-1.388 0,-0.042 -0.006,-0.083 -0.006,-0.125 0.003,-0.216 0.011,-0.432 0.024,-0.65 l 2.236,-36.745 c 0.022,-0.366 0.064,-0.722 0.114,-1.072 0.006,-0.041 0.007,-0.085 0.013,-0.126 0.015,-0.096 0.036,-0.187 0.052,-0.282 0.02,-0.111 0.039,-0.221 0.061,-0.331 0.032,-0.153 0.068,-0.304 0.105,-0.454 0.025,-0.102 0.049,-0.206 0.076,-0.308 0.043,-0.155 0.091,-0.305 0.139,-0.456 0.028,-0.089 0.054,-0.181 0.085,-0.269 0.062,-0.177 0.129,-0.348 0.198,-0.518 0.023,-0.055 0.043,-0.114 0.067,-0.17 0.095,-0.222 0.196,-0.439 0.304,-0.648 0.025,-0.049 0.054,-0.095 0.079,-0.143 0.085,-0.158 0.171,-0.314 0.263,-0.463 0.044,-0.072 0.091,-0.138 0.136,-0.207 0.079,-0.121 0.158,-0.241 0.241,-0.355 0.053,-0.073 0.109,-0.142 0.163,-0.212 0.08,-0.102 0.161,-0.205 0.244,-0.303 0.061,-0.069 0.122,-0.135 0.184,-0.202 0.084,-0.091 0.169,-0.179 0.256,-0.264 0.065,-0.064 0.132,-0.124 0.198,-0.185 0.088,-0.079 0.178,-0.156 0.269,-0.23 0.069,-0.056 0.139,-0.111 0.21,-0.164 0.093,-0.069 0.188,-0.134 0.284,-0.198 0.073,-0.048 0.145,-0.096 0.218,-0.139 0.099,-0.06 0.2,-0.114 0.301,-0.166 0.074,-0.04 0.149,-0.08 0.224,-0.115 0.106,-0.05 0.216,-0.093 0.325,-0.135 0.072,-0.028 0.144,-0.059 0.218,-0.083 0.122,-0.042 0.247,-0.075 0.372,-0.107 0.062,-0.017 0.124,-0.037 0.188,-0.051 0.186,-0.041 0.374,-0.071 0.565,-0.091 0.004,-10e-4 0.007,-10e-4 0.011,-10e-4 l 6.765,-0.672 c -0.194,0.018 -0.386,0.05 -0.576,0.091 -0.062,0.014 -0.122,0.035 -0.184,0.05 -0.126,0.033 -0.252,0.066 -0.376,0.108 -0.073,0.025 -0.143,0.055 -0.215,0.083 -0.111,0.043 -0.221,0.087 -0.328,0.136 -0.075,0.036 -0.148,0.075 -0.221,0.113 -0.102,0.053 -0.204,0.107 -0.303,0.168 -0.074,0.044 -0.145,0.09 -0.218,0.138 -0.095,0.064 -0.191,0.129 -0.285,0.199 -0.07,0.052 -0.14,0.107 -0.209,0.164 -0.092,0.073 -0.18,0.15 -0.269,0.23 -0.067,0.06 -0.133,0.121 -0.199,0.185 -0.086,0.085 -0.171,0.173 -0.255,0.264 -0.062,0.067 -0.123,0.132 -0.183,0.202 -0.084,0.097 -0.164,0.2 -0.244,0.302 -0.056,0.071 -0.112,0.14 -0.165,0.213 -0.082,0.114 -0.161,0.234 -0.239,0.354 -0.045,0.069 -0.093,0.136 -0.137,0.208 -0.092,0.15 -0.179,0.306 -0.264,0.465 -0.025,0.047 -0.054,0.092 -0.078,0.14 -0.107,0.21 -0.21,0.426 -0.305,0.65 -0.023,0.054 -0.044,0.113 -0.066,0.169 -0.069,0.17 -0.137,0.341 -0.198,0.518 -0.031,0.088 -0.057,0.179 -0.085,0.269 -0.049,0.15 -0.097,0.301 -0.139,0.457 -0.028,0.1 -0.052,0.205 -0.077,0.307 -0.036,0.15 -0.072,0.3 -0.104,0.454 -0.022,0.109 -0.042,0.22 -0.061,0.331 -0.024,0.135 -0.046,0.271 -0.066,0.409 -0.049,0.349 -0.09,0.705 -0.113,1.07 l -2.236,36.746 c -0.016,0.26 -0.018,0.518 -0.019,0.775 -0.002,0.467 0.018,0.931 0.063,1.388 0.008,0.084 0.02,0.167 0.03,0.25 0.048,0.417 0.113,0.828 0.197,1.232 0.014,0.065 0.024,0.133 0.038,0.198 0.111,0.493 0.251,0.971 0.412,1.436 0.032,0.095 0.063,0.189 0.097,0.281 0.091,0.245 0.19,0.483 0.293,0.718 0.038,0.085 0.072,0.174 0.112,0.258 0.147,0.313 0.304,0.616 0.473,0.907 0.03,0.053 0.066,0.101 0.096,0.153 0.147,0.244 0.303,0.481 0.465,0.707 0.063,0.089 0.129,0.173 0.194,0.258 0.144,0.187 0.292,0.367 0.445,0.539 0.069,0.078 0.137,0.156 0.208,0.231 0.193,0.201 0.392,0.391 0.597,0.568 0.033,0.028 0.063,0.06 0.097,0.088 0.239,0.199 0.487,0.377 0.742,0.54 0.082,0.052 0.167,0.097 0.251,0.145 0.16,0.093 0.321,0.182 0.487,0.259 0.097,0.046 0.195,0.086 0.293,0.126 0.162,0.065 0.325,0.124 0.49,0.174 0.16,0.049 0.32,0.102 0.484,0.136 l 26.619,5.606 c 0.293,0.062 0.583,0.092 0.87,0.105 C -0.47,0.025 -0.232,0.023 0.001,0 Z" /></g><g
           transform="translate(144.1253,228.2961)"
           id="g232"><path
             id="path234"
             style="fill:#6085f1;fill-opacity:1;fill-rule:nonzero;stroke:none"
             d="m 0,0 c 3.926,0.827 7.409,-2.933 7.739,-8.359 l 2.236,-36.746 c 0.33,-5.427 -2.614,-10.541 -6.538,-11.367 l -26.621,-5.605 c -3.93,-0.827 -7.414,2.931 -7.744,8.358 l -2.236,36.746 c -0.33,5.427 2.613,10.54 6.545,11.368 z" /></g><g
           transform="translate(194.385,17.7531)"
           id="g236"><path
             id="path238"
             style="fill:#ffcddc;fill-opacity:1;fill-rule:nonzero;stroke:none"
             d="M 0,0 C -0.127,-2.053 -0.31,-4.256 -1.615,-5.846 -3.154,-7.721 -5.782,-8.197 -8.183,-8.55 l -10.491,-1.541 c -0.179,-0.516 0.426,-0.951 0.945,-1.127 2.584,-0.875 5.402,-0.493 8.117,-0.21 3.146,0.327 6.308,0.508 9.471,0.54 1.408,0.014 3.079,0.14 3.793,1.353 0.534,0.905 0.289,2.041 0.164,3.084 -0.38,3.179 0.513,6.416 0.059,9.585 C 3.822,3.499 3.705,3.922 3.359,4.053 3.184,4.119 2.988,4.091 2.804,4.054 0.129,3.513 0.149,2.404 0,0" /></g><g
           transform="translate(195.3411,9.5177)"
           id="g240"><path
             id="path242"
             style="fill:#25a09a;fill-opacity:1;fill-rule:nonzero;stroke:none"
             d="m 0,0 c -2.606,-1.592 -5.254,-2.023 -8.284,-1.646 -0.186,0.024 -1.203,0.247 -1.388,0.267 -0.107,0.581 -0.049,1.15 -0.526,1.132 -2.191,-0.084 -4.378,-0.267 -6.553,-0.548 -0.69,-0.09 -3.313,-0.15 -3.591,-0.688 -0.246,-0.479 -0.089,-1.09 0.26,-1.501 0.349,-0.412 0.852,-0.658 1.354,-0.849 2.485,-0.947 5.229,-0.835 7.884,-0.71 3.266,0.154 6.532,0.309 9.796,0.462 1.114,0.053 2.287,0.124 3.224,0.73 1.376,0.893 1.849,2.694 1.883,4.334 C 4.118,3.968 0.941,0.574 0,0" /></g><g
           transform="translate(143.2278,12.2707)"
           id="g244"><path
             id="path246"
             style="fill:#ffcddc;fill-opacity:1;fill-rule:nonzero;stroke:none"
             d="m 0,0 c -0.396,-2.02 -0.866,-4.179 -2.37,-5.583 -1.772,-1.656 -4.441,-1.783 -6.865,-1.817 -3.535,-0.05 -7.07,-0.099 -10.604,-0.149 -0.245,-0.489 0.298,-0.999 0.788,-1.241 2.448,-1.208 5.291,-1.199 8.02,-1.276 3.162,-0.089 6.32,-0.326 9.46,-0.709 1.397,-0.171 3.07,-0.266 3.937,0.842 0.648,0.828 0.556,1.986 0.569,3.036 0.04,3.201 1.352,6.293 1.318,9.494 C 4.248,2.966 4.187,3.4 3.862,3.575 3.697,3.664 3.499,3.662 3.313,3.649 0.589,3.465 0.464,2.363 0,0" /></g><g
           transform="translate(201.4602,116.2668)"
           id="g248"><path
             id="path250"
             style="fill:#1f8c8d;fill-opacity:1;fill-rule:nonzero;stroke:none"
             d="M 0,0 C 0,0 -2.368,-24.256 -3.256,-37.575 -4.144,-50.894 4.542,-79.241 4.245,-86.937 3.949,-94.632 2.174,-99.071 2.174,-99.071 l -18.632,0.165 -6.332,96.834 z" /></g><g
           transform="translate(183.2796,195.7262)"
           id="g252"><path
             id="path254"
             style="fill:none;stroke:#0052e2;stroke-width:1;stroke-linecap:butt;stroke-linejoin:miter;stroke-miterlimit:10;stroke-dasharray:none;stroke-opacity:1"
             d="m 0,0 c -1.069,-2.706 -2.452,-4.695 -3.089,-4.443 -0.637,0.252 -0.287,2.649 0.782,5.354 1.07,2.706 2.453,4.695 3.089,4.443 C 1.419,5.103 1.069,2.705 0,0 Z" /></g><g
           transform="translate(206.7796,183.6183)"
           id="g256"><path
             id="path258"
             style="fill:#ffcddc;fill-opacity:1;fill-rule:nonzero;stroke:none"
             d="m 0,0 c -2.139,-7.886 -10.264,-12.545 -18.15,-10.407 -7.886,2.137 -12.545,10.263 -10.407,18.15 2.138,7.885 10.264,12.545 18.15,10.407 C -2.521,16.012 2.138,7.886 0,0" /></g><g
           transform="translate(188.4993,180.3752)"
           id="g260"><path
             id="path262"
             style="fill:#ffcddc;fill-opacity:1;fill-rule:nonzero;stroke:none"
             d="M 0,0 -3.207,-16.394 5.837,-19.785 9.4,0.606 Z" /></g></g></g><g
       id="g264"><g
         clip-path="url(#clipPath270)"
         id="g266"><g
           id="g272"><g
             id="g274"><path
               id="path286"
               style="fill:url(#linearGradient284);stroke:none"
               d="M 166.102,114.626 C 161.608,100.93 142.195,21.926 140.311,13.721 v 0 c 2.943,-0.647 15.577,-2.507 15.577,-2.507 v 0 c 0,0 8.087,8.411 15.99,34.723 v 0 c 8.36,27.828 27.099,58.521 28.521,60.779 v 0 c 2.178,3.456 1.838,13.03 1.838,13.03 v 0 c 0,0 -27.433,-1.825 -36.135,-5.12" /></g></g></g></g><g
       id="g288"><g
         clip-path="url(#clipPath294)"
         id="g290"><g
           transform="translate(114.3655,182.4992)"
           id="g296"><path
             id="path298"
             style="fill:#ffcddc;fill-opacity:1;fill-rule:nonzero;stroke:none"
             d="M 0,0 C -0.156,0.598 -0.364,1.232 -0.858,1.604 -1.49,2.08 -2.393,1.973 -3.126,1.675 -3.859,1.376 -4.527,0.912 -5.293,0.71 -6.668,0.348 -8.3,0.839 -9.438,-0.013 c -0.664,-0.497 -0.981,-1.414 -0.765,-2.215 0.112,-0.414 0.348,-0.782 0.522,-1.174 0.594,-1.337 0.487,-2.967 1.351,-4.148 0.657,-0.897 1.745,-1.349 2.777,-1.761 2.502,-0.997 5.005,-1.994 7.507,-2.991 0.161,-0.063 0.346,-0.127 0.501,-0.051 0.131,0.065 0.198,0.209 0.253,0.345 C 3.756,-9.4 3.307,-8.141 1.993,-6.03 0.854,-4.2 0.534,-2.053 0,0" /></g><g
           transform="translate(143.093,3.9806)"
           id="g300"><path
             id="path302"
             style="fill:#25a09a;fill-opacity:1;fill-rule:nonzero;stroke:none"
             d="m 0,0 c -2.793,-1.235 -5.475,-1.314 -8.43,-0.542 -0.179,0.047 -1.159,0.402 -1.34,0.446 -0.03,0.591 0.103,1.148 -0.373,1.192 -2.182,0.204 -4.375,0.31 -6.568,0.317 -0.696,0.003 -3.305,0.287 -3.649,-0.21 -0.308,-0.442 -0.232,-1.069 0.059,-1.522 0.291,-0.453 0.758,-0.763 1.232,-1.02 2.339,-1.265 5.073,-1.515 7.721,-1.739 3.258,-0.276 6.515,-0.553 9.773,-0.829 1.111,-0.095 2.283,-0.179 3.291,0.3 1.482,0.703 2.188,2.426 2.436,4.048 C 4.604,3.392 1.008,0.445 0,0" /></g><g
           transform="translate(112.6926,189.2204)"
           id="g304"><path
             id="path306"
             style="fill:#ffcddc;fill-opacity:1;fill-rule:nonzero;stroke:none"
             d="m 0,0 c -0.185,0.467 -0.437,0.976 -0.914,1.135 -0.57,0.191 -1.197,-0.248 -1.43,-0.803 -0.233,-0.555 -0.176,-1.183 -0.115,-1.781 0.168,-1.658 0.337,-3.317 0.505,-4.975 0.096,-0.944 0.306,-2.053 1.17,-2.443 0.644,-0.29 1.45,-0.012 1.896,0.535 0.859,1.055 0.29,2.288 0.117,3.459 C 0.984,-3.199 0.623,-1.578 0,0" /></g><g
           transform="translate(198.9075,161.5343)"
           id="g308"><path
             id="path310"
             style="fill:#ffa192;fill-opacity:1;fill-rule:nonzero;stroke:none"
             d="m 0,0 c -0.506,3.542 -3.591,6.138 -7.167,6.023 -7.628,-0.245 -19.174,-1.093 -21.067,-2.1 -2.36,-1.254 -18.38,-6.166 -23.292,-6.166 -4.912,0 -25.278,18.445 -25.278,18.445 l -9.96,-10.73 c 0,0 18.19,-22.833 24.991,-25.478 6.8,-2.644 28.152,-2.49 28.152,-2.49 l 0.983,-24.601 c 0,0 31.755,-6.424 34.778,-1.134 3.022,5.289 1.133,25.319 1.133,25.319 z" /></g></g></g><g
       id="g312"><g
         clip-path="url(#clipPath318)"
         id="g314"><g
           id="g320"><g
             id="g322" /><g
             mask="url(#mask336)"
             id="g348"><g
               id="g350"><path
                 id="path360"
                 style="fill:url(#linearGradient358);stroke:none"
                 d="m 165.287,139.038 0.808,-20.22 12.575,22.405 z" /></g></g></g></g></g><g
       id="g362"><g
         clip-path="url(#clipPath368)"
         id="g364"><g
           transform="translate(179.2659,193.2033)"
           id="g370"><path
             id="path372"
             style="fill:none;stroke:#0052e2;stroke-width:1;stroke-linecap:butt;stroke-linejoin:miter;stroke-miterlimit:10;stroke-dasharray:none;stroke-opacity:1"
             d="m 0,0 c -1.069,-2.705 -2.452,-4.694 -3.089,-4.443 -0.637,0.252 -0.287,2.649 0.782,5.355 1.07,2.705 2.453,4.694 3.089,4.442 C 1.419,5.103 1.069,2.706 0,0 Z" /></g><g
           transform="translate(176.7981,193.8986)"
           id="g374"><path
             id="path376"
             style="fill:none;stroke:#0052e2;stroke-width:0.75;stroke-linecap:butt;stroke-linejoin:miter;stroke-miterlimit:10;stroke-dasharray:none;stroke-opacity:1"
             d="M 0,0 C 0.589,-0.154 16.125,-5.937 16.125,-5.937" /></g><g
           transform="translate(190.6721,192.5807)"
           id="g378"><path
             id="path380"
             style="fill:#6085f1;fill-opacity:1;fill-rule:nonzero;stroke:none"
             d="M 0,0 C 0.561,-1.783 -0.589,-4.12 0.779,-5.393 1.541,-6.102 2.71,-6.049 3.721,-6.298 5.553,-6.75 7.024,-8.409 7.253,-10.283 7.481,-12.157 6.452,-14.121 4.782,-15 c -0.503,-0.264 -1.065,-0.446 -1.47,-0.843 -0.771,-0.755 -0.71,-2.026 -0.343,-3.039 0.368,-1.015 0.984,-1.945 1.178,-3.006 C 4.499,-23.802 3.43,-25.645 2.732,-27.462 0.49,-33.305 2.05,-39.916 4.44,-45.7 c 1.81,-4.381 4.157,-8.661 7.712,-11.795 3.556,-3.133 8.498,-4.974 13.118,-3.918 4.62,1.057 8.515,5.494 8.08,10.213 -0.162,1.754 -0.865,3.406 -1.504,5.048 -1.823,4.68 -3.181,10.004 -1.231,14.632 1.044,2.478 2.989,4.604 3.435,7.255 0.576,3.425 -1.562,6.801 -4.295,8.942 -2.734,2.142 -6.044,3.388 -9.075,5.083 -3.032,1.694 -5.957,4.068 -6.975,7.388 -0.722,2.354 -0.406,4.95 -1.259,7.26 C 11.293,7.532 8.092,9.599 4.793,10.05 2.139,10.413 -4.595,9.882 -5.878,6.813 -7.349,3.294 -0.896,2.855 0,0" /></g><g
           transform="translate(216.2278,176.7287)"
           id="g382"><path
             id="path384"
             style="fill:#6085f1;fill-opacity:1;fill-rule:nonzero;stroke:none"
             d="m 0,0 c 1.62,2.546 1.849,6.341 -0.479,8.264 -0.972,0.803 -2.265,1.183 -3.143,2.09 -1.383,1.431 -1.325,3.66 -1.629,5.626 -0.57,3.694 -2.788,7.099 -5.927,9.128 -3.139,2.031 -7.145,2.658 -10.759,1.702 -0.861,-0.227 -1.752,-0.58 -2.262,-1.309 -0.814,-1.163 -0.32,-2.83 0.613,-3.9 0.932,-1.07 2.216,-1.763 3.278,-2.703 2.825,-2.496 3.807,-6.401 5.185,-9.909 1.693,-4.31 4.189,-8.295 7.3,-11.722 C -3.557,-7.437 -2.663,-4.184 0,0" /></g><g
           transform="translate(228.3382,158.3918)"
           id="g386"><path
             id="path388"
             style="fill:#6085f1;fill-opacity:1;fill-rule:nonzero;stroke:none"
             d="m 0,0 c 1.142,-2.485 1.307,-5.356 0.731,-8.029 -0.523,-2.428 -1.643,-4.725 -3.236,-6.632 -0.715,-0.857 -1.55,-1.652 -2.579,-2.083 -1.179,-0.494 -2.505,-0.468 -3.778,-0.363 -4.367,0.358 -9.119,1.895 -11.215,5.742 -2.395,4.396 -1.192,16.481 4.608,18.041 C -10.349,8.053 -2.174,4.733 0,0" /></g></g></g></g></svg>