<?xml version="1.0" encoding="UTF-8" standalone="no"?>
<svg
   xmlns:dc="http://purl.org/dc/elements/1.1/"
   xmlns:cc="http://creativecommons.org/ns#"
   xmlns:rdf="http://www.w3.org/1999/02/22-rdf-syntax-ns#"
   xmlns:svg="http://www.w3.org/2000/svg"
   xmlns="http://www.w3.org/2000/svg"
   viewBox="0 0 200.636 185.99733"
   height="185.99733"
   width="200.636"
   xml:space="preserve"
   id="svg2"
   version="1.1"><metadata
     id="metadata8"><rdf:RDF><cc:Work
         rdf:about=""><dc:format>image/svg+xml</dc:format><dc:type
           rdf:resource="http://purl.org/dc/dcmitype/StillImage" /></cc:Work></rdf:RDF></metadata><defs
     id="defs6"><clipPath
       id="clipPath18"
       clipPathUnits="userSpaceOnUse"><path
         id="path16"
         d="M 0,139.498 H 150.477 V 0 H 0 Z" /></clipPath></defs><g
     transform="matrix(1.3333333,0,0,-1.3333333,0,185.99733)"
     id="g10"><g
       id="g12"><g
         clip-path="url(#clipPath18)"
         id="g14"><g
           transform="translate(120.989,111.6194)"
           id="g20"><path 
             id="path22"
             style="fill:rgb(255,255,255);fill-opacity:1;fill-rule:evenodd;stroke:none"
             d="m 0,0 c 3.186,-0.805 5.561,-3.703 5.561,-7.129 v -52.376 c 0,-4.044 -3.308,-7.352 -7.352,-7.352 H -93.22 c -4.044,0 -7.351,3.308 -7.351,7.352 v 52.376 c 0,3.426 2.375,6.324 5.56,7.129 v -3.019 c -1.582,-0.694 -2.694,-2.278 -2.694,-4.11 v -52.376 c 0,-2.468 2.018,-4.486 4.485,-4.486 h 91.429 c 2.468,0 4.485,2.018 4.485,4.486 v 52.376 c 0,1.832 -1.111,3.416 -2.694,4.11 z" /></g><g
           transform="translate(29.2048,120.614)"
           id="g24"><path
             id="path26"
             style="fill:rgb(255,255,255);fill-opacity:1;fill-rule:evenodd;stroke:none"
             d="M 0,0 H 8.786 V -4.012 H 4.012 V -63.043 H 84.777 V -4.012 C 72.776,-2.128 57.028,-2.944 45.849,-7.39 54.687,1.545 69.758,2.142 88.789,0 V -67.055 H 0 Z" /></g><g
           transform="translate(41.3557,121.6511)"
           id="g28"><path
             id="path30"
             style="fill:rgb(255,255,255);fill-opacity:1;fill-rule:evenodd;stroke:none"
             d="m 0,0 h 9.235 v -4.965 h 9.931 v -14.2 H 0 Z" /></g><path
           id="path32"
           style="fill:rgb(255,255,255);fill-opacity:1;fill-rule:evenodd;stroke:none"
           d="M 53.371,131.581 H 65.486 V 119.467 H 53.371 Z" /><path
           id="path34"
           style="fill:rgb(255,255,255);fill-opacity:1;fill-rule:evenodd;stroke:none"
           d="m 65.883,139.498 h 7.15 v -7.15 h -7.15 z" /><path
           id="path36"
           style="fill:rgb(255,255,255);fill-opacity:1;fill-rule:evenodd;stroke:none"
           d="m 74.621,131.455 h 7.15 v -7.15 h -7.15 z" /><g
           transform="translate(69.4997,102.78)"
           id="g38"><path
             id="path40"
             style="fill:rgb(255,255,255);fill-opacity:1;fill-rule:evenodd;stroke:none"
             d="m 0,0 h -5.795 v -3.116 h -6.23 v -8.909 H 0 Z" /></g><path
           id="path42"
           style="fill:rgb(255,255,255);fill-opacity:1;fill-rule:evenodd;stroke:none"
           d="M 65.225,45.909 H 81.742 V 34.398 H 65.225 Z" /><g
           transform="translate(53.071,34.6716)"
           id="g44"><path
             id="path46"
             style="fill:rgb(255,255,255);fill-opacity:1;fill-rule:evenodd;stroke:none"
             d="m 0,0 h 40.825 c 2.745,0 5.059,-1.948 5.623,-4.53 H -5.623 C -5.058,-1.948 -2.745,0 0,0" /></g><path
           id="path48"
           style="fill:rgb(255,255,255);fill-opacity:1;fill-rule:evenodd;stroke:none"
           d="m 72.74,108.822 h 1.72 V 57.571 h -1.72 z" /><g
           transform="translate(2.2522,52.029)"
           id="g50"><path
             id="path52"
             style="fill:rgb(255,255,255);fill-opacity:1;fill-rule:nonzero;stroke:none"
             d="M 0,0 1.146,-1.985 C 0.508,-2.424 0.112,-2.904 -0.042,-3.434 -0.197,-3.962 -0.126,-4.548 0.166,-5.194 0.474,-5.877 0.853,-6.328 1.299,-6.543 1.745,-6.758 2.163,-6.779 2.551,-6.604 2.802,-6.49 2.98,-6.321 3.091,-6.096 3.2,-5.873 3.237,-5.548 3.2,-5.127 3.177,-4.839 3.073,-4.205 2.894,-3.221 2.665,-1.955 2.653,-0.998 2.86,-0.352 3.15,0.558 3.715,1.2 4.552,1.579 5.09,1.823 5.666,1.899 6.271,1.809 6.878,1.717 7.432,1.44 7.937,0.979 8.441,0.518 8.875,-0.114 9.241,-0.925 9.837,-2.244 9.995,-3.371 9.709,-4.303 9.424,-5.235 8.8,-5.938 7.836,-6.416 l -1.04,2.104 C 7.3,-3.974 7.603,-3.604 7.707,-3.199 7.811,-2.793 7.729,-2.292 7.46,-1.698 7.183,-1.083 6.837,-0.66 6.425,-0.429 6.159,-0.28 5.89,-0.266 5.614,-0.39 5.364,-0.503 5.198,-0.706 5.117,-0.997 5.009,-1.368 5.068,-2.125 5.29,-3.271 5.514,-4.415 5.604,-5.294 5.567,-5.906 5.528,-6.521 5.348,-7.07 5.02,-7.555 4.692,-8.041 4.196,-8.434 3.53,-8.735 2.926,-9.008 2.283,-9.099 1.603,-9 c -0.681,0.097 -1.289,0.394 -1.822,0.892 -0.535,0.498 -1.009,1.206 -1.424,2.123 -0.603,1.334 -0.759,2.497 -0.465,3.49 C -1.817,-1.502 -1.113,-0.672 0,0" /></g><g
           transform="translate(11.2995,36.3498)"
           id="g54"><path
             id="path56"
             style="fill:rgb(255,255,255);fill-opacity:1;fill-rule:nonzero;stroke:none"
             d="m 0,0 0.632,-2.283 c -1.262,-0.393 -2.372,-0.413 -3.329,-0.065 -0.956,0.35 -1.768,1.047 -2.437,2.095 -0.827,1.297 -1.064,2.646 -0.712,4.048 0.355,1.399 1.299,2.59 2.838,3.572 C -1.383,8.404 0.148,8.79 1.583,8.525 3.019,8.261 4.173,7.443 5.046,6.075 5.809,4.879 6.074,3.683 5.842,2.487 5.708,1.774 5.32,1.06 4.678,0.337 L 2.97,1.991 C 3.401,2.429 3.647,2.925 3.707,3.478 3.765,4.033 3.626,4.571 3.293,5.094 2.831,5.819 2.196,6.243 1.388,6.36 0.582,6.482 -0.403,6.17 -1.566,5.428 -2.798,4.643 -3.536,3.858 -3.775,3.082 -4.017,2.301 -3.91,1.557 -3.456,0.846 -3.121,0.321 -2.667,-0.026 -2.092,-0.19 -1.517,-0.354 -0.82,-0.293 0,0" /></g><g
           transform="translate(10.2688,30.7273)"
           id="g58"><path
             id="path60"
             style="fill:rgb(255,255,255);fill-opacity:1;fill-rule:nonzero;stroke:none"
             d="M 0,0 9.074,7.196 10.531,5.358 1.457,-1.838 Z" /></g><g
           transform="translate(13.2746,27.1736)"
           id="g62"><path
             id="path64"
             style="fill:rgb(255,255,255);fill-opacity:1;fill-rule:nonzero;stroke:none"
             d="M 0,0 8.403,7.969 14.302,1.75 12.882,0.402 8.597,4.921 6.73,3.151 10.715,-1.05 9.295,-2.397 5.311,1.804 3.034,-0.355 7.475,-5.038 6.055,-6.384 Z" /></g><g
           transform="translate(20.947,19.5403)"
           id="g66"><path
             id="path68"
             style="fill:rgb(255,255,255);fill-opacity:1;fill-rule:nonzero;stroke:none"
             d="M 0,0 7.118,9.136 8.909,7.74 7.898,-1.311 l 4.77,6.122 1.71,-1.332 -7.118,-9.136 -1.848,1.44 0.977,8.89 -4.68,-6.005 z" /></g><g
           transform="translate(32.5486,11.2576)"
           id="g70"><path
             id="path72"
             style="fill:rgb(255,255,255);fill-opacity:1;fill-rule:nonzero;stroke:none"
             d="M 0,0 4.81,8.337 1.839,10.05 2.817,11.745 10.775,7.154 9.797,5.459 6.841,7.165 2.031,-1.172 Z" /></g><g
           transform="translate(38.8591,7.8464)"
           id="g74"><path
             id="path76"
             style="fill:rgb(255,255,255);fill-opacity:1;fill-rule:nonzero;stroke:none"
             d="M 0,0 4.746,10.564 6.885,9.603 2.14,-0.961 Z" /></g><g
           transform="translate(50.2839,8.3318)"
           id="g78"><path
             id="path80"
             style="fill:rgb(255,255,255);fill-opacity:1;fill-rule:nonzero;stroke:none"
             d="m 0,0 -0.136,4.577 -2.866,-3.55 z m 2.57,-5.734 -2.39,0.818 -0.093,2.818 -4.396,1.503 -1.763,-2.183 -2.347,0.802 8.002,9.503 2.344,-0.801 z" /></g><g
           transform="translate(57.9636,1.5202)"
           id="g82"><path
             id="path84"
             style="fill:rgb(255,255,255);fill-opacity:1;fill-rule:nonzero;stroke:none"
             d="M 0,0 1.417,11.495 9.926,10.445 9.687,8.503 3.506,9.265 3.191,6.713 8.938,6.004 8.699,4.062 2.951,4.77 2.567,1.656 8.973,0.866 8.733,-1.077 Z" /></g><g
           transform="translate(68.0945,4.1052)"
           id="g86"><path
             id="path88"
             style="fill:rgb(255,255,255);fill-opacity:1;fill-rule:nonzero;stroke:none"
             d="m 0,0 2.286,0.16 c 0.115,-0.766 0.374,-1.333 0.78,-1.703 0.409,-0.371 0.966,-0.565 1.675,-0.586 0.749,-0.021 1.32,0.121 1.708,0.428 0.39,0.306 0.592,0.673 0.605,1.099 0.008,0.274 -0.067,0.509 -0.22,0.707 C 6.681,0.301 6.405,0.477 6.011,0.628 5.741,0.733 5.126,0.918 4.163,1.189 2.925,1.539 2.061,1.947 1.57,2.417 0.88,3.076 0.55,3.865 0.576,4.784 0.594,5.375 0.776,5.924 1.123,6.43 1.473,6.935 1.964,7.311 2.6,7.562 3.235,7.814 3.993,7.926 4.883,7.9 6.33,7.858 7.412,7.505 8.123,6.84 8.837,6.174 9.195,5.307 9.201,4.23 L 6.854,4.217 C 6.772,4.819 6.572,5.254 6.254,5.524 5.936,5.795 5.448,5.942 4.797,5.961 4.123,5.98 3.591,5.856 3.202,5.587 2.952,5.413 2.82,5.177 2.812,4.875 2.804,4.6 2.913,4.363 3.139,4.162 3.426,3.902 4.132,3.623 5.259,3.32 6.386,3.021 7.215,2.716 7.748,2.414 8.284,2.11 8.699,1.707 8.991,1.199 9.284,0.692 9.42,0.073 9.398,-0.657 9.379,-1.32 9.178,-1.937 8.792,-2.505 8.405,-3.074 7.873,-3.49 7.191,-3.751 6.509,-4.014 5.664,-4.13 4.659,-4.101 3.195,-4.058 2.082,-3.688 1.317,-2.989 0.553,-2.292 0.115,-1.295 0,0" /></g><g
           transform="translate(82.1257,0.6726)"
           id="g90"><path
             id="path92"
             style="fill:rgb(255,255,255);fill-opacity:1;fill-rule:nonzero;stroke:none"
             d="M 0,0 -1.178,9.552 -4.581,9.132 -4.82,11.075 4.298,12.199 4.537,10.257 1.15,9.839 2.327,0.287 Z" /></g><g
           transform="translate(92.8425,12.3967)"
           id="g94"><path
             id="path96"
             style="fill:rgb(255,255,255);fill-opacity:1;fill-rule:nonzero;stroke:none"
             d="m 0,0 1.056,-3.126 1.208,0.408 c 0.871,0.294 1.43,0.549 1.685,0.763 0.255,0.214 0.425,0.471 0.507,0.774 0.083,0.302 0.071,0.614 -0.039,0.941 C 4.282,0.161 4.053,0.45 3.732,0.632 3.409,0.813 3.061,0.878 2.679,0.823 2.398,0.782 1.861,0.629 1.064,0.36 Z m 0.857,-9.869 -3.706,10.973 3.553,1.2 C 2.05,2.758 2.943,3.001 3.39,3.029 4.074,3.076 4.721,2.896 5.331,2.487 5.941,2.079 6.395,1.438 6.689,0.564 6.917,-0.11 6.985,-0.716 6.898,-1.258 6.808,-1.8 6.621,-2.265 6.334,-2.655 6.047,-3.042 5.722,-3.345 5.362,-3.561 4.869,-3.844 4.123,-4.155 3.122,-4.494 L 1.683,-4.98 3.08,-9.118 Z" /></g><g
           transform="translate(103.0456,11.9612)"
           id="g98"><path
             id="path100"
             style="fill:rgb(255,255,255);fill-opacity:1;fill-rule:nonzero;stroke:none"
             d="m 0,0 c 0.592,-1.172 1.312,-1.923 2.159,-2.256 0.847,-0.331 1.688,-0.287 2.521,0.133 0.835,0.422 1.367,1.067 1.601,1.937 C 6.512,0.685 6.325,1.721 5.719,2.922 5.12,4.108 4.414,4.863 3.598,5.182 2.782,5.504 1.944,5.447 1.081,5.011 0.219,4.576 -0.327,3.93 -0.557,3.074 -0.785,2.216 -0.601,1.191 0,0 m -2.116,-1.155 c -0.531,1.054 -0.821,2.02 -0.866,2.896 -0.033,0.645 0.05,1.282 0.246,1.905 0.195,0.625 0.484,1.16 0.865,1.609 0.508,0.597 1.182,1.109 2.024,1.535 C 1.679,7.559 3.136,7.7 4.53,7.216 5.924,6.73 7.045,5.644 7.896,3.957 8.74,2.284 8.945,0.745 8.515,-0.656 8.084,-2.06 7.106,-3.146 5.588,-3.912 c -1.538,-0.775 -3,-0.923 -4.382,-0.441 -1.381,0.481 -2.489,1.546 -3.322,3.198" /></g><g
           transform="translate(117.364,13.0823)"
           id="g102"><path
             id="path104"
             style="fill:rgb(255,255,255);fill-opacity:1;fill-rule:nonzero;stroke:none"
             d="M 0,0 -5.177,8.114 -8.067,6.269 -9.12,7.919 -1.375,12.86 -0.322,11.211 -3.2,9.375 1.977,1.262 Z" /></g><g
           transform="translate(123.1687,17.3166)"
           id="g106"><path
             id="path108"
             style="fill:rgb(255,255,255);fill-opacity:1;fill-rule:nonzero;stroke:none"
             d="M 0,0 -7.558,8.776 -1.062,14.37 0.216,12.887 -4.503,8.823 -2.825,6.875 1.563,10.653 2.84,9.17 -1.548,5.391 0.5,3.014 5.391,7.225 6.668,5.742 Z" /></g><g
           transform="translate(131.2487,24.3933)"
           id="g110"><path
             id="path112"
             style="fill:rgb(255,255,255);fill-opacity:1;fill-rule:nonzero;stroke:none"
             d="m 0,0 -8.746,7.592 1.488,1.714 8.986,-1.489 -5.862,5.088 1.421,1.637 L 6.033,6.95 4.497,5.181 -4.328,6.627 1.42,1.637 Z" /></g><g
           transform="translate(140.6384,36.2317)"
           id="g114"><path
             id="path116"
             style="fill:rgb(255,255,255);fill-opacity:1;fill-rule:nonzero;stroke:none"
             d="m 0,0 -8.104,5.191 -1.85,-2.887 -1.648,1.056 4.956,7.736 1.648,-1.055 -1.841,-2.875 8.104,-5.191 z" /></g><g
           transform="translate(144.446,42.4363)"
           id="g118"><path
             id="path120"
             style="fill:rgb(255,255,255);fill-opacity:1;fill-rule:nonzero;stroke:none"
             d="M 0,0 -10.325,5.245 -9.264,7.336 1.062,2.091 Z" /></g><g
           transform="translate(144.6228,53.845)"
           id="g122"><path
             id="path124"
             style="fill:rgb(255,255,255);fill-opacity:1;fill-rule:nonzero;stroke:none"
             d="m 0,0 -4.577,0.092 3.402,-3.039 z M 5.854,2.281 4.919,-0.065 2.1,-0.018 0.38,-4.333 2.473,-6.203 1.555,-8.507 -7.539,-0.042 -6.621,2.26 Z" /></g></g></g></g></svg>